<?xml version="1.0" encoding="UTF-8" standalone="no"?>
<!DOCTYPE svg PUBLIC "-//W3C//DTD SVG 1.1//EN" "http://www.w3.org/Graphics/SVG/1.1/DTD/svg11.dtd">
<svg xmlns:serif="http://www.serif.com/" width="100%" height="100%" viewBox="0 0 100 100" version="1.1"
	 xmlns="http://www.w3.org/2000/svg" xml:space="preserve"
	 style="fill-rule:evenodd;clip-rule:evenodd;stroke-linejoin:round;stroke-miterlimit:2;">
    <g id="Úroveň-6" serif:id="Úroveň 6" transform="matrix(1.19048,0,0,1.19048,-1177.41,-159.524)">
        <g transform="matrix(0.608408,0,0,0.608408,384.451,101.495)">
            <path
				d="M1035.61,142.56C1035.77,142.218 1036.12,142 1036.5,142C1036.88,142 1037.23,142.218 1037.39,142.56L1043.08,154.439L1056.14,156.183C1056.52,156.233 1056.83,156.495 1056.95,156.856C1057.07,157.217 1056.96,157.614 1056.69,157.876L1047.15,166.961L1049.53,179.917C1049.6,180.291 1049.44,180.671 1049.14,180.894C1048.83,181.117 1048.42,181.144 1048.09,180.964L1036.5,174.7L1024.91,180.964C1024.58,181.144 1024.17,181.117 1023.86,180.894C1023.56,180.671 1023.4,180.291 1023.47,179.917L1025.85,166.961L1016.31,157.876C1016.03,157.614 1015.94,157.217 1016.05,156.856C1016.17,156.495 1016.48,156.233 1016.86,156.183L1029.92,154.439L1035.61,142.56Z"
				style="fill:white;"/>
        </g>
		<g transform="matrix(0.608408,0,0,0.608408,416.371,101.495)">
            <path
				d="M1035.61,142.56C1035.77,142.218 1036.12,142 1036.5,142C1036.88,142 1037.23,142.218 1037.39,142.56L1043.08,154.439L1056.14,156.183C1056.52,156.233 1056.83,156.495 1056.95,156.856C1057.07,157.217 1056.96,157.614 1056.69,157.876L1047.15,166.961L1049.53,179.917C1049.6,180.291 1049.44,180.671 1049.14,180.894C1048.83,181.117 1048.42,181.144 1048.09,180.964L1036.5,174.7L1024.91,180.964C1024.58,181.144 1024.17,181.117 1023.86,180.894C1023.56,180.671 1023.4,180.291 1023.47,179.917L1025.85,166.961L1016.31,157.876C1016.03,157.614 1015.94,157.217 1016.05,156.856C1016.17,156.495 1016.48,156.233 1016.86,156.183L1029.92,154.439L1035.61,142.56Z"
				style="fill:white;"/>
        </g>
		<g transform="matrix(0.608408,0,0,0.608408,384.451,53.939)">
            <path
				d="M1035.61,142.56C1035.77,142.218 1036.12,142 1036.5,142C1036.88,142 1037.23,142.218 1037.39,142.56L1043.08,154.439L1056.14,156.183C1056.52,156.233 1056.83,156.495 1056.95,156.856C1057.07,157.217 1056.96,157.614 1056.69,157.876L1047.15,166.961L1049.53,179.917C1049.6,180.291 1049.44,180.671 1049.14,180.894C1048.83,181.117 1048.42,181.144 1048.09,180.964L1036.5,174.7L1024.91,180.964C1024.58,181.144 1024.17,181.117 1023.86,180.894C1023.56,180.671 1023.4,180.291 1023.47,179.917L1025.85,166.961L1016.31,157.876C1016.03,157.614 1015.94,157.217 1016.05,156.856C1016.17,156.495 1016.48,156.233 1016.86,156.183L1029.92,154.439L1035.61,142.56Z"
				style="fill:white;"/>
        </g>
		<g transform="matrix(0.608408,0,0,0.608408,416.371,53.939)">
            <path
				d="M1035.61,142.56C1035.77,142.218 1036.12,142 1036.5,142C1036.88,142 1037.23,142.218 1037.39,142.56L1043.08,154.439L1056.14,156.183C1056.52,156.233 1056.83,156.495 1056.95,156.856C1057.07,157.217 1056.96,157.614 1056.69,157.876L1047.15,166.961L1049.53,179.917C1049.6,180.291 1049.44,180.671 1049.14,180.894C1048.83,181.117 1048.42,181.144 1048.09,180.964L1036.5,174.7L1024.91,180.964C1024.58,181.144 1024.17,181.117 1023.86,180.894C1023.56,180.671 1023.4,180.291 1023.47,179.917L1025.85,166.961L1016.31,157.876C1016.03,157.614 1015.94,157.217 1016.05,156.856C1016.17,156.495 1016.48,156.233 1016.86,156.183L1029.92,154.439L1035.61,142.56Z"
				style="fill:white;"/>
        </g>
		<g transform="matrix(0.608408,0,0,0.608408,384.451,77.717)">
            <path
				d="M1035.61,142.56C1035.77,142.218 1036.12,142 1036.5,142C1036.88,142 1037.23,142.218 1037.39,142.56L1043.08,154.439L1056.14,156.183C1056.52,156.233 1056.83,156.495 1056.95,156.856C1057.07,157.217 1056.96,157.614 1056.69,157.876L1047.15,166.961L1049.53,179.917C1049.6,180.291 1049.44,180.671 1049.14,180.894C1048.83,181.117 1048.42,181.144 1048.09,180.964L1036.5,174.7L1024.91,180.964C1024.58,181.144 1024.17,181.117 1023.86,180.894C1023.56,180.671 1023.4,180.291 1023.47,179.917L1025.85,166.961L1016.31,157.876C1016.03,157.614 1015.94,157.217 1016.05,156.856C1016.17,156.495 1016.48,156.233 1016.86,156.183L1029.92,154.439L1035.61,142.56Z"
				style="fill:white;"/>
        </g>
		<g transform="matrix(0.608408,0,0,0.608408,384.451,77.717)">
            <path
				d="M1035.61,142.56C1035.77,142.218 1036.12,142 1036.5,142C1036.88,142 1037.23,142.218 1037.39,142.56L1043.08,154.439L1056.14,156.183C1056.52,156.233 1056.83,156.495 1056.95,156.856C1057.07,157.217 1056.96,157.614 1056.69,157.876L1047.15,166.961L1049.53,179.917C1049.6,180.291 1049.44,180.671 1049.14,180.894C1048.83,181.117 1048.42,181.144 1048.09,180.964L1036.5,174.7L1024.91,180.964C1024.58,181.144 1024.17,181.117 1023.86,180.894C1023.56,180.671 1023.4,180.291 1023.47,179.917L1025.85,166.961L1016.31,157.876C1016.03,157.614 1015.94,157.217 1016.05,156.856C1016.17,156.495 1016.48,156.233 1016.86,156.183L1029.92,154.439L1035.61,142.56Z"
				style="fill:white;"/>
        </g>
		<g transform="matrix(0.608408,0,0,0.608408,416.371,77.717)">
            <path
				d="M1035.61,142.56C1035.77,142.218 1036.12,142 1036.5,142C1036.88,142 1037.23,142.218 1037.39,142.56L1043.08,154.439L1056.14,156.183C1056.52,156.233 1056.83,156.495 1056.95,156.856C1057.07,157.217 1056.96,157.614 1056.69,157.876L1047.15,166.961L1049.53,179.917C1049.6,180.291 1049.44,180.671 1049.14,180.894C1048.83,181.117 1048.42,181.144 1048.09,180.964L1036.5,174.7L1024.91,180.964C1024.58,181.144 1024.17,181.117 1023.86,180.894C1023.56,180.671 1023.4,180.291 1023.47,179.917L1025.85,166.961L1016.31,157.876C1016.03,157.614 1015.94,157.217 1016.05,156.856C1016.17,156.495 1016.48,156.233 1016.86,156.183L1029.92,154.439L1035.61,142.56Z"
				style="fill:white;"/>
        </g>
    </g>
</svg>
