<?xml version="1.0" encoding="UTF-8" standalone="no"?>
<!DOCTYPE svg PUBLIC "-//W3C//DTD SVG 1.1//EN" "http://www.w3.org/Graphics/SVG/1.1/DTD/svg11.dtd">
<svg xmlns="http://www.w3.org/2000/svg" class="arena-logo" id="arena-logo-1" viewBox="60 60 880 880" version="1.1"
	 xml:space="preserve" style="view-transition-name: arena-1-logo;fill-rule:evenodd;clip-rule:evenodd;stroke-linejoin:round;stroke-miterlimit:2;">
    <g id="Text">
        <g transform="matrix(-7.55208,0,0,7.55208,770.204,-4891.21)">
            <path d="M50.871,745.536L73.038,745.536L71.134,748.472L52.792,748.472L50.871,745.536Z" fill="black"
				  style=""/>
        </g>
		<g id="Arena">
            <g transform="matrix(7.55208,0,0,7.55208,-165.566,33.6355)">
                <path
					d="M57.548,77.778L73.577,77.778C74.161,77.778 74.688,77.933 75.16,78.243C75.631,78.554 76.035,78.942 76.372,79.408C76.709,79.873 76.967,80.383 77.146,80.938C77.326,81.492 77.416,82.013 77.416,82.501C77.416,83.181 77.296,83.802 77.057,84.364C76.817,84.926 76.484,85.418 76.058,85.839C75.631,86.26 75.126,86.604 74.542,86.87C73.959,87.136 73.323,87.314 72.634,87.402L72.589,87.602L77.977,92.481L70.142,92.481L64.036,86.826L64.036,83.144L71.669,83.144C71.833,83.144 71.942,83.067 71.994,82.912C72.047,82.756 72.073,82.62 72.073,82.501C72.073,82.353 72.017,82.202 71.904,82.047C71.792,81.891 71.661,81.814 71.512,81.814L62.801,81.814L62.801,92.481L57.548,92.481L57.548,77.778Z"
                    fill="black" style="fill-rule:nonzero;"/>
            </g>
			<g transform="matrix(7.55208,0,0,7.55208,-165.566,33.6355)">
                <path
					d="M93.487,87.181L84.327,87.181L84.327,88.423L97.55,88.423L97.55,92.481L78.805,92.481L78.805,82.501C78.805,81.969 78.902,81.422 79.096,80.86C79.291,80.298 79.564,79.792 79.916,79.341C80.267,78.89 80.69,78.517 81.184,78.221C81.678,77.925 82.232,77.778 82.845,77.778L97.55,77.778L97.55,81.836L84.754,81.836C84.544,81.836 84.432,81.891 84.417,82.002C84.402,82.113 84.38,82.287 84.35,82.523L84.35,83.1L93.487,83.1L93.487,87.181Z"
                    fill="black" style="fill-rule:nonzero;"/>
            </g>
			<g transform="matrix(7.55208,0,0,7.55208,-165.566,33.6355)">
                <path
					d="M118.65,77.778L113.419,77.778L113.419,86.382L106.078,77.778L98.827,77.778L98.827,92.481L104.057,92.481L104.057,83.876L111.578,92.481L118.65,92.481L118.65,77.778Z"
                    fill="black" style="fill-rule:nonzero;"/>
            </g>
			<g transform="matrix(7.55208,0,0,7.55208,-165.566,-5011.56)">
                <path
					d="M56.489,760.51L50.251,760.51L44.729,752.099L37.074,764.27L30.825,764.27L42.305,745.675L47.473,745.675L56.489,760.51Z"
                    fill="black" style="fill-rule:nonzero;"/>
            </g>
			<g transform="matrix(7.55208,0,0,7.55208,-165.566,-5011.36)">
                <path
					d="M119.772,760.496L126.01,760.496L131.532,752.086L139.187,764.256L145.435,764.256L133.955,745.661L128.787,745.661L119.772,760.496Z"
                    fill="black" style="fill-rule:nonzero;"/>
            </g>
        </g>
		<g id="Laser">
            <g transform="matrix(7.55208,0,0,-7.55208,-165.566,33.6355)">
                <path
					d="M81.945,-75.183L77.464,-75.183L73.702,-68.826L69.614,-75.183L65.1,-75.183L71.756,-64.62L75.469,-64.62L81.945,-75.183Z"
                    fill="black" style="fill-rule:nonzero;"/>
            </g>
			<g transform="matrix(7.55208,0,0,7.55208,-165.566,-5268.74)">
                <path
					d="M51.072,773.899C51.072,774.281 51.139,774.67 51.273,775.068C51.407,775.466 51.594,775.826 51.837,776.149C52.079,776.473 52.37,776.74 52.71,776.953C53.05,777.164 53.431,777.27 53.853,777.27L63.974,777.27L63.974,774.36L55.167,774.36C55.032,774.36 54.952,774.318 54.927,774.233C54.901,774.149 54.883,774.063 54.873,773.979L54.873,766.728L51.072,766.728L51.072,773.899Z"
                    fill="black" style="fill-rule:nonzero;"/>
            </g>
			<g transform="matrix(7.55208,0,0,7.55208,-165.566,-5268.57)">
                <path
					d="M82.447,774.338L82.447,777.248L92.88,777.248C93.268,777.248 93.625,777.144 93.955,776.938C94.284,776.731 94.567,776.469 94.803,776.151C95.038,775.833 95.223,775.483 95.36,775.101C95.495,774.72 95.563,774.355 95.563,774.004C95.563,773.644 95.493,773.257 95.351,772.843C95.211,772.43 95.014,772.049 94.763,771.699C94.512,771.349 94.214,771.057 93.869,770.824C93.524,770.591 93.142,770.474 92.724,770.474L86.464,770.474C86.38,770.474 86.325,770.427 86.299,770.331C86.272,770.236 86.259,770.145 86.259,770.061C86.28,769.881 86.309,769.761 86.346,769.703C86.382,769.645 86.474,769.616 86.62,769.616L95.265,769.616L95.265,766.706L85.286,766.706C84.857,766.706 84.471,766.812 84.125,767.024C83.78,767.236 83.485,767.504 83.239,767.827C82.993,768.15 82.802,768.513 82.666,768.916C82.53,769.319 82.462,769.711 82.462,770.093C82.462,770.464 82.536,770.845 82.682,771.238C82.828,771.63 83.027,771.99 83.278,772.319C83.529,772.648 83.824,772.918 84.165,773.13C84.505,773.342 84.868,773.448 85.255,773.448L91.123,773.448C91.207,773.448 91.296,773.506 91.39,773.623C91.484,773.74 91.531,773.84 91.531,773.925C91.531,773.978 91.5,774.06 91.437,774.172C91.374,774.283 91.301,774.338 91.217,774.338L82.447,774.338ZM107.08,773.448L100.678,773.448L100.678,774.338L109.92,774.338L109.92,777.248L96.819,777.248L96.819,770.093C96.819,769.711 96.887,769.319 97.023,768.916C97.159,768.513 97.349,768.15 97.595,767.827C97.841,767.504 98.137,767.236 98.482,767.024C98.827,766.812 99.214,766.706 99.643,766.706L109.92,766.706L109.92,769.616L100.976,769.616C100.83,769.616 100.752,769.655 100.741,769.735C100.731,769.814 100.715,769.939 100.694,770.108L100.694,770.522L107.08,770.522L107.08,773.448ZM111.175,766.706L111.181,777.27L114.873,777.27L114.846,769.679L120.918,769.679C121.023,769.679 121.117,769.722 121.2,769.806C121.284,769.891 121.326,769.987 121.326,770.093C121.326,770.177 121.308,770.276 121.271,770.387C121.234,770.498 121.159,770.554 121.044,770.554L115.709,770.554L115.709,773.194L119.977,777.248L125.452,777.248L121.734,773.671L121.718,773.607C122.2,773.543 122.644,773.416 123.052,773.225C123.46,773.035 123.813,772.788 124.111,772.486C124.409,772.184 124.642,771.834 124.809,771.436C124.977,771.039 125.06,770.591 125.06,770.093C125.06,769.743 124.998,769.369 124.872,768.972C124.746,768.574 124.566,768.209 124.331,767.875C124.095,767.541 123.813,767.263 123.483,767.04C123.154,766.817 122.785,766.706 122.378,766.706L111.175,766.706Z"
                    fill="black" style="fill-rule:nonzero;"/>
            </g>
        </g>
		<g id="Písek" transform="matrix(7.55208,0,0,7.55208,-165.566,-4773.97)">
            <path
				d="M57.324,733.977L57.324,744.507L60.995,744.507L60.995,736.867L67.064,736.867C67.168,736.867 67.262,736.923 67.346,737.034C67.429,737.145 67.472,737.254 67.472,737.36C67.472,737.445 67.453,737.542 67.417,737.653C67.38,737.765 67.304,737.82 67.189,737.82L61.857,737.82L61.857,740.869L67.864,740.869C68.345,740.806 68.789,740.679 69.197,740.488C69.605,740.298 69.957,740.052 70.255,739.75C70.554,739.449 70.786,739.096 70.953,738.694C71.121,738.292 71.204,737.847 71.204,737.36C71.204,737.01 71.141,736.637 71.016,736.24C70.89,735.843 70.71,735.478 70.475,735.144C70.24,734.81 69.957,734.533 69.628,734.31C69.299,734.088 68.93,733.977 68.522,733.977L57.324,733.977ZM72.459,744.507L76.113,744.507L76.113,733.977L72.459,733.977L72.459,744.507ZM77.65,741.6L86.119,741.6C86.203,741.6 86.276,741.544 86.339,741.434C86.401,741.322 86.433,741.24 86.433,741.187C86.433,741.103 86.386,741.002 86.292,740.885C86.197,740.769 86.109,740.711 86.025,740.711L80.159,740.711C79.773,740.711 79.41,740.605 79.07,740.393C78.73,740.181 78.434,739.911 78.183,739.583C77.932,739.255 77.734,738.895 77.587,738.503C77.441,738.111 77.367,737.73 77.367,737.36C77.367,736.979 77.436,736.587 77.572,736.184C77.707,735.782 77.898,735.419 78.144,735.096C78.39,734.774 78.685,734.506 79.03,734.294C79.375,734.083 79.762,733.977 80.191,733.977L90.165,733.977L90.165,736.883L81.524,736.883C81.378,736.883 81.286,736.912 81.249,736.97C81.213,737.029 81.184,737.148 81.163,737.328C81.163,737.413 81.176,737.503 81.203,737.598C81.229,737.693 81.284,737.741 81.367,737.741L87.625,737.741C88.043,737.741 88.424,737.857 88.77,738.09C89.115,738.323 89.413,738.615 89.664,738.964C89.914,739.313 90.111,739.694 90.251,740.107C90.393,740.52 90.464,740.907 90.464,741.267C90.464,741.616 90.395,741.981 90.259,742.362C90.124,742.744 89.938,743.093 89.703,743.41C89.467,743.728 89.186,743.99 88.856,744.197C88.527,744.403 88.168,744.507 87.782,744.507L77.65,744.507L77.65,741.6ZM101.975,740.711L95.576,740.711L95.576,741.6L104.814,741.6L104.814,744.507L91.718,744.507L91.718,737.36C91.718,736.979 91.786,736.587 91.922,736.184C92.058,735.782 92.249,735.419 92.495,735.096C92.74,734.774 93.035,734.506 93.381,734.294C93.725,734.083 94.112,733.977 94.541,733.977L104.814,733.977L104.814,736.883L95.874,736.883C95.728,736.883 95.65,736.923 95.639,737.002C95.629,737.082 95.613,737.206 95.592,737.376L95.592,737.788L101.975,737.788L101.975,740.711ZM119.101,733.977L114.365,733.977L109.723,738.662L109.723,733.977L106.069,733.977L106.069,744.507L109.723,744.507L109.723,739.837L114.365,744.507L119.101,744.507L113.894,739.249L119.101,733.977Z"
                fill="black" style="fill-rule:nonzero;"/>
        </g>
		<g transform="matrix(7.55207,0.00725484,0.00725484,-7.55207,-170.985,6390.91)">
            <path d="M79.395,748.45L125.718,748.45L123.827,745.558L77.462,745.513L79.395,748.45Z" fill="black"
				  style=""/>
        </g>
		<g transform="matrix(7.55208,0,0,7.55208,-165.566,-4891.21)">
            <path d="M74.384,745.536L78.053,745.536L76.129,748.472L72.464,748.472L74.384,745.536Z" fill="black"
				  style=""/>
        </g>
    </g>
	<g id="Arrows">
        <g transform="matrix(7.55208,0,0,7.55208,-165.566,-5915.53)">
            <path
				d="M110.155,816.936L110.155,816.954M84.807,806.052L84.745,810.684C84.747,811.696 84.214,812.63 83.336,813.137L72.717,819.267C71.887,819.746 70.874,819.768 70.022,819.333L69.803,819.21L65.563,816.812C65.293,816.595 65.067,816.334 64.894,816.033L64.88,816.008C64.132,814.682 64.579,812.971 65.901,812.206L65.927,812.192L74.49,807.248L80.593,803.724C82.427,802.667 84.727,803.946 84.807,806.052ZM110.194,817.007L106.152,819.27C105.282,819.776 104.196,819.782 103.324,819.276L92.705,813.146C91.873,812.668 91.347,811.802 91.3,810.844C91.285,809.137 91.266,807.429 91.253,805.723C91.305,805.382 91.42,805.053 91.593,804.754C92.369,803.412 94.085,802.949 95.43,803.724L95.436,803.727L104,808.671L110.103,812.194C111.449,812.972 111.906,814.697 111.127,816.045C110.899,816.44 110.581,816.766 110.194,817.007ZM85.326,819.477L85.27,823.568L85.27,823.57C85.445,824.722 84.877,825.868 83.846,826.437C82.871,826.972 81.675,826.881 80.796,826.22L80.796,826.219L79.94,825.735L77.433,824.319L77.131,824.147C76.747,823.901 76.428,823.57 76.201,823.175L76.2,823.174C75.414,821.809 75.88,820.061 77.244,819.274L77.246,819.273L81.043,817.081C82.916,816 85.269,817.325 85.326,819.477ZM98.826,824.169L95.257,826.168L95.255,826.168C94.362,826.883 93.102,826.975 92.108,826.399C91.126,825.836 90.59,824.731 90.722,823.617C90.722,823.289 90.717,822.962 90.715,822.634C90.704,821.559 90.69,820.483 90.685,819.407C90.777,817.304 93.094,815.993 94.963,817.071L98.76,819.263C100.629,820.34 100.667,823.046 98.826,824.169"
                fill="black" style="fill-rule:nonzero;"/>
        </g>
		<g transform="matrix(7.55208,0,0,7.55208,-165.566,-5626.54)">
            <path
				d="M62.81,784.733L66.73,787.065L66.791,787.102L66.792,787.102C67.223,787.35 67.583,787.708 67.833,788.139C68.074,788.553 68.212,789.034 68.212,789.549L68.212,801.81C68.212,802.297 68.088,802.755 67.87,803.155C67.644,803.57 67.316,803.922 66.921,804.178L66.705,804.305L63.31,806.306L62.509,806.779C62.349,806.841 62.183,806.888 62.012,806.921C61.846,806.952 61.675,806.968 61.5,806.968C60.723,806.968 60.021,806.653 59.512,806.145C59.003,805.636 58.689,804.932 58.689,804.155L58.689,787.218C58.689,786.732 58.806,786.289 59.009,785.905C59.253,785.445 59.62,785.071 60.055,784.811C60.491,784.552 60.994,784.407 61.51,784.407C61.946,784.407 62.39,784.51 62.81,784.733"
                fill="black" style="fill-rule:nonzero;"/>
        </g>
		<g transform="matrix(7.55208,0,0,7.55208,-165.566,-5626.36)">
            <path
				d="M74.697,790.972L74.876,791.078L78.214,793.066L78.214,793.066L78.215,793.066C78.356,793.122 78.491,793.188 78.619,793.265C78.747,793.341 78.868,793.427 78.981,793.523C79.142,793.657 79.283,793.807 79.405,793.965C79.804,794.484 79.997,795.112 79.984,795.735C79.972,796.359 79.754,796.978 79.332,797.48C79.204,797.633 79.056,797.774 78.89,797.902C78.793,797.977 78.691,798.046 78.585,798.108C78.484,798.167 78.379,798.22 78.27,798.266L78.27,798.266L78.269,798.266L77.425,798.766L74.944,800.229L74.644,800.405C74.444,800.508 74.231,800.589 74.008,800.644C73.793,800.696 73.569,800.724 73.337,800.724C72.549,800.724 71.835,800.404 71.317,799.888C70.8,799.371 70.481,798.657 70.481,797.868L70.481,793.483C70.481,792.979 70.605,792.52 70.82,792.124C71.07,791.664 71.443,791.29 71.883,791.031C72.323,790.771 72.831,790.628 73.35,790.628C73.803,790.628 74.263,790.736 74.697,790.972"
                fill="black" style="fill-rule:nonzero;"/>
        </g>
		<g transform="matrix(7.55208,0,0,7.55208,-165.566,-5626.54)">
            <path
				d="M113.091,784.733L109.172,787.065L109.109,787.102C108.678,787.35 108.317,787.708 108.068,788.139C107.827,788.553 107.689,789.034 107.689,789.549L107.689,801.81C107.689,802.297 107.813,802.755 108.031,803.155C108.257,803.57 108.585,803.922 108.98,804.178L109.196,804.305L112.59,806.306L113.393,806.779C113.552,806.841 113.718,806.888 113.889,806.921C114.055,806.952 114.226,806.968 114.401,806.968C115.178,806.968 115.881,806.653 116.389,806.145C116.898,805.636 117.212,804.932 117.212,804.155L117.212,787.218C117.212,786.732 117.095,786.289 116.891,785.905C116.648,785.445 116.281,785.071 115.845,784.811C115.41,784.552 114.907,784.407 114.391,784.407C113.956,784.407 113.511,784.51 113.091,784.733"
				style="fill:rgb(26,70,148);fill-rule:nonzero;"/>
        </g>
		<g transform="matrix(7.55208,0,0,7.55208,-165.566,-5626.36)">
            <path
				d="M101.203,790.972L101.025,791.078L97.687,793.066L97.686,793.066L97.686,793.066C97.545,793.122 97.41,793.188 97.283,793.265C97.154,793.341 97.033,793.427 96.92,793.523C96.759,793.657 96.618,793.807 96.496,793.965C96.097,794.484 95.904,795.112 95.917,795.735C95.929,796.359 96.148,796.978 96.569,797.48C96.697,797.633 96.845,797.774 97.011,797.902C97.108,797.977 97.21,798.046 97.316,798.108C97.417,798.167 97.522,798.22 97.63,798.266L97.631,798.266L97.632,798.266L98.476,798.766L100.957,800.229L101.257,800.405C101.457,800.508 101.67,800.589 101.893,800.644C102.108,800.696 102.332,800.724 102.563,800.724C103.352,800.724 104.066,800.404 104.583,799.888C105.1,799.371 105.42,798.657 105.42,797.868L105.42,793.483C105.42,792.979 105.296,792.52 105.081,792.124C104.831,791.664 104.458,791.29 104.018,791.031C103.578,790.771 103.07,790.628 102.55,790.628C102.099,790.628 101.638,790.736 101.203,790.972"
				style="fill:rgb(26,70,148);fill-rule:nonzero;"/>
        </g>
    </g>
</svg>
