<?xml version="1.0" encoding="UTF-8" standalone="no"?>
<!DOCTYPE svg PUBLIC "-//W3C//DTD SVG 1.1//EN" "http://www.w3.org/Graphics/SVG/1.1/DTD/svg11.dtd">
<svg xmlns="http://www.w3.org/2000/svg"
	 viewBox="0 0 540 540" version="1.1" xml:space="preserve"
	 style="fill-rule:evenodd;clip-rule:evenodd;stroke-linejoin:round;stroke-miterlimit:2;" class="arena-logo"
	 id="arena-2">
    <g transform="matrix(0.5,0,0,0.5,0,0)">
        <g transform="matrix(1.45291,0,0,1.45291,-237.402,-222.979)">
            <g transform="matrix(3.99522,0,0,3.99522,-181.812,-519.425)">
                <path
					d="M100.494,257.549l-10.206,0l-0,16.607l9.395,0l0,3.491l-9.395,0l-0,20.203l-3.882,0l-0,-43.734l14.088,-0l0,3.433Zm22.095,37.201c0,0.916 -0.296,1.66 -0.887,2.232c-0.582,0.582 -1.335,0.868 -2.251,0.868l-11.904,0c-0.906,0 -1.65,-0.286 -2.232,-0.868c-0.582,-0.572 -0.868,-1.316 -0.868,-2.232l-0,-40.634l3.882,-0l0,40.3l10.368,0l0,-40.3l3.892,-0l0,40.634Zm25.01,3.1l-2.68,0l-11.685,-32.164l0,32.164l-3.662,0l-0,-43.734l2.909,-0l11.456,31.611l-0,-31.611l3.662,-0l0,43.734Zm35.764,-3.1c0,0.915 -0.279,1.657 -0.849,2.232c-0.574,0.579 -1.307,0.868 -2.222,0.868l-11.007,0c-0.916,0 -1.665,-0.291 -2.252,-0.868c-0.587,-0.577 -0.877,-1.316 -0.877,-2.232l-0,-11.093l3.882,-0l-0,10.759l9.443,0l0,-10.425l-12.076,-14.585c-0.834,-1.007 -1.249,-2.117 -1.249,-3.329l-0,-8.861c-0,-0.907 0.291,-1.655 0.877,-2.232c0.586,-0.577 1.336,-0.868 2.251,-0.868l11.008,-0c0.916,-0 1.648,0.289 2.222,0.868c0.57,0.574 0.849,1.326 0.849,2.232l0,10.177l-3.882,0l0,-9.844l-9.443,0l-0,9.225l12.123,14.584c0.806,0.968 1.202,2.061 1.202,3.272l0,10.12Zm24.209,-17.379c0,0.905 -0.3,1.655 -0.887,2.241c-0.586,0.586 -1.336,0.887 -2.241,0.887l-10.321,0l0,17.351l-3.882,0l-0,-43.734l14.203,-0c0.906,-0 1.655,0.291 2.241,0.868c0.587,0.577 0.887,1.326 0.887,2.232l0,20.155Zm-3.891,-0.344l-0,-19.478l-9.558,0l0,19.478l9.558,0Zm25.559,20.823l-3.853,0l-1.546,-9.729l-8.689,-0l-1.536,9.729l-3.739,0l-0,-0.114l7.793,-43.735l3.825,0l7.745,43.849Zm-5.895,-13.163l-3.834,-23.694l-3.854,23.694l7.688,-0Zm27.96,10.063c-0,0.913 -0.302,1.656 -0.897,2.232c-0.595,0.576 -1.347,0.868 -2.261,0.868l-11.265,0c-0.904,0 -1.649,-0.29 -2.232,-0.868c-0.578,-0.573 -0.868,-1.316 -0.868,-2.232l0,-37.534c0,-0.907 0.29,-1.659 0.868,-2.232c0.583,-0.579 1.326,-0.868 2.232,-0.868l11.265,-0c0.916,-0 1.666,0.292 2.261,0.868c0.595,0.576 0.897,1.328 0.897,2.232l-0,10.177l-3.911,0l0,-9.844l-9.729,0l-0,36.867l9.729,0l0,-10.759l3.911,-0l-0,11.093Zm21.157,3.1l-14.365,0l-0,-43.734l14.203,-0l-0,3.433l-10.321,0l-0,16.321l9.395,0l0,3.501l-9.395,-0l-0,17.045l10.483,0l-0,3.434Zm-53.748,-105.519l0,0.032l0,-0.032Zm-44.582,-19.143l-0.106,8.021l-0.002,0.126c0.003,0.875 -0.226,1.739 -0.662,2.498c-0.419,0.73 -1.032,1.364 -1.815,1.816l-18.676,10.782c-0.742,0.428 -1.549,0.643 -2.349,0.662c-0.83,0.02 -1.654,-0.169 -2.392,-0.547l-0.384,-0.215l-6.033,-3.411l-1.424,-0.807c-0.234,-0.188 -0.453,-0.398 -0.653,-0.631c-0.193,-0.225 -0.369,-0.471 -0.524,-0.738l-0.026,-0.046c-0.656,-1.163 -0.79,-2.499 -0.467,-3.71c0.321,-1.213 1.098,-2.302 2.264,-2.975l0.045,-0.025l15.061,-8.695l10.734,-6.199c0.741,-0.427 1.518,-0.638 2.281,-0.666c0.915,-0.034 1.809,0.195 2.586,0.63c0.778,0.435 1.439,1.075 1.893,1.862c0.383,0.663 0.618,1.431 0.649,2.268Zm18.699,-4.122l-0.001,0m25.953,23.391l-7.11,3.978l-0,0c-0.756,0.44 -1.618,0.676 -2.493,0.677c-0.842,0.002 -1.697,-0.211 -2.479,-0.665l-0.001,0l-18.677,-10.781c-0.744,-0.428 -1.333,-1.02 -1.749,-1.703c-0.434,-0.709 -0.681,-1.518 -0.721,-2.346l-0.004,-0.439l-0.066,-6.931l-0.012,-1.638c0.045,-0.296 0.117,-0.59 0.219,-0.88c0.098,-0.28 0.223,-0.556 0.378,-0.823c0.683,-1.181 1.779,-1.976 3,-2.303c1.22,-0.327 2.565,-0.19 3.748,0.491l0.001,0l0.01,0.006l15.061,8.695l10.734,6.197c0.743,0.429 1.315,0.999 1.722,1.649c0.485,0.776 0.731,1.664 0.743,2.554c0.013,0.891 -0.21,1.784 -0.663,2.568c-0.383,0.664 -0.931,1.251 -1.641,1.694Zm-58.15,12.557l0,-0.001l0,0.001Zm14.414,-8.214l-0.006,0.365l-0.093,6.831l0,0.003c0.04,0.262 0.058,0.525 0.055,0.786c-0.004,0.263 -0.028,0.525 -0.074,0.783c-0.065,0.363 -0.165,0.709 -0.299,1.033c-0.438,1.065 -1.226,1.91 -2.187,2.439c-0.96,0.528 -2.096,0.741 -3.23,0.541c-0.347,-0.061 -0.694,-0.161 -1.035,-0.301c-0.197,-0.081 -0.391,-0.175 -0.578,-0.281c-0.18,-0.101 -0.354,-0.215 -0.521,-0.34l-0.001,-0.001l-0.001,-0l-1.503,-0.852l-4.409,-2.49l-0.532,-0.302c-0.333,-0.213 -0.644,-0.466 -0.922,-0.758c-0.27,-0.282 -0.511,-0.6 -0.714,-0.952l-0.001,-0.002c-0.693,-1.202 -0.833,-2.57 -0.502,-3.811c0.333,-1.241 1.138,-2.355 2.339,-3.048l0.002,-0.002l6.678,-3.854c0.77,-0.444 1.578,-0.658 2.369,-0.68c0.922,-0.023 1.82,0.215 2.601,0.657c0.782,0.442 1.447,1.089 1.904,1.881c0.396,0.688 0.637,1.486 0.66,2.355Zm23.742,8.253l-0.317,0.178l-5.96,3.337l-0.002,0l-0.001,0.001c-0.206,0.165 -0.425,0.312 -0.654,0.44c-0.23,0.128 -0.47,0.238 -0.718,0.328c-0.675,0.246 -1.402,0.346 -2.126,0.282c-0.697,-0.06 -1.392,-0.27 -2.038,-0.645c-0.677,-0.389 -1.226,-0.916 -1.632,-1.524c-0.423,-0.633 -0.692,-1.355 -0.792,-2.104c-0.029,-0.212 -0.044,-0.423 -0.047,-0.637c-0.002,-0.209 0.009,-0.418 0.033,-0.627l0,-0.002l-0.011,-1.727l-0.051,-5.064l-0.003,-0.611c0.017,-0.392 0.082,-0.786 0.194,-1.173c0.11,-0.375 0.266,-0.744 0.469,-1.098c0.693,-1.202 1.807,-2.008 3.049,-2.34c1.242,-0.333 2.611,-0.192 3.813,0.501l6.678,3.855c0.772,0.445 1.364,1.043 1.778,1.721c0.479,0.785 0.72,1.681 0.728,2.577c0.006,0.896 -0.221,1.793 -0.677,2.583c-0.397,0.688 -0.97,1.295 -1.713,1.749Zm3.951,24.72l-6.182,-3.682l-0.002,-0.001c-0.247,-0.097 -0.485,-0.214 -0.709,-0.347c-0.226,-0.135 -0.44,-0.287 -0.641,-0.455c-0.281,-0.235 -0.528,-0.494 -0.741,-0.77c-0.707,-0.913 -1.046,-2.019 -1.023,-3.117c0.023,-1.098 0.41,-2.188 1.151,-3.073c0.225,-0.268 0.483,-0.518 0.773,-0.743l0,0c0.17,-0.131 0.346,-0.251 0.53,-0.36c0.18,-0.106 0.367,-0.201 0.56,-0.283l0,0l0.002,0l1.487,-0.875l0,-0l4.36,-2.573l0.528,-0.311c0.35,-0.181 0.725,-0.323 1.117,-0.419c0.379,-0.093 0.775,-0.142 1.184,-0.142c1.386,0 2.642,0.562 3.551,1.472c0.908,0.909 1.471,2.164 1.471,3.55l-0,7.713c-0,0.886 -0.218,1.692 -0.593,2.385c-0.44,0.812 -1.094,1.471 -1.868,1.927c-0.775,0.456 -1.668,0.708 -2.584,0.708c-0.795,-0 -1.606,-0.19 -2.371,-0.604Zm20.906,11.015l-7.001,-4.168l-0,0c-0.759,-0.436 -1.394,-1.067 -1.833,-1.823c-0.424,-0.729 -0.666,-1.575 -0.666,-2.478l-0,-21.566c-0,-0.857 0.217,-1.663 0.601,-2.365c0.398,-0.73 0.974,-1.349 1.671,-1.799l0.378,-0.222l5.969,-3.522l1.411,-0.831c0.282,-0.108 0.575,-0.193 0.878,-0.248c0.291,-0.055 0.592,-0.084 0.899,-0.084c1.366,0 2.601,0.553 3.495,1.448c0.894,0.897 1.447,2.133 1.447,3.501l-0,29.786c-0,0.856 -0.207,1.635 -0.564,2.31c-0.428,0.809 -1.074,1.468 -1.84,1.924c-0.765,0.456 -1.651,0.71 -2.558,0.71c-0.767,-0 -1.548,-0.181 -2.287,-0.573Zm-134.142,80.155l1.497,-0l0,11.747l6.632,0l0,1.286l-8.129,0l0,-13.033Zm12.387,9.054l5.767,-0l-2.912,-7.835l-2.855,7.835Zm1.793,-9.054l2.071,-0l4.908,13.033l-1.525,-0.003l-1.071,-2.742l-6.594,-0l-1.018,2.742l-1.523,0.003l4.752,-13.033Zm14.127,-0.104c0.975,-0 1.758,0.052 2.35,0.156c0.592,0.104 1.05,0.287 1.375,0.548c0.325,0.26 0.562,0.614 0.714,1.06c0.15,0.446 0.226,0.958 0.226,1.538l-0,0.364l-1.462,0c-0,-0.44 -0.024,-0.808 -0.07,-1.103c-0.047,-0.296 -0.157,-0.536 -0.331,-0.721c-0.185,-0.232 -0.49,-0.383 -0.914,-0.452c-0.423,-0.07 -1.053,-0.104 -1.888,-0.104l-0.366,-0c-0.638,-0 -1.154,0.032 -1.549,0.095c-0.394,0.064 -0.731,0.206 -1.009,0.426c-0.163,0.127 -0.276,0.336 -0.34,0.625c-0.064,0.29 -0.095,0.644 -0.095,1.061c-0,0.614 0.063,1.065 0.191,1.355c0.128,0.29 0.316,0.501 0.566,0.635c0.249,0.132 0.58,0.225 0.992,0.278c0.412,0.051 0.844,0.078 1.297,0.078l0.8,-0c0.859,-0 1.549,0.04 2.072,0.121c0.522,0.081 0.986,0.264 1.392,0.548c0.406,0.284 0.69,0.756 0.853,1.416c0.093,0.394 0.139,0.898 0.139,1.512c0,0.764 -0.09,1.419 -0.269,1.964c-0.18,0.544 -0.468,0.955 -0.862,1.234c-0.418,0.254 -1.044,0.428 -1.88,0.521c-0.557,0.058 -1.288,0.087 -2.193,0.087l-0.54,-0c-0.731,-0 -1.288,-0.035 -1.671,-0.105c-0.615,-0.115 -1.105,-0.318 -1.471,-0.608c-0.365,-0.289 -0.62,-0.666 -0.765,-1.129c-0.146,-0.464 -0.218,-0.979 -0.218,-1.547c0.023,-0.139 0.041,-0.287 0.052,-0.443c0.012,-0.156 0.018,-0.269 0.018,-0.339l1.462,-0l-0.035,0.298c-0,0.539 0.035,0.994 0.104,1.364c0.07,0.368 0.215,0.649 0.435,0.835c0.29,0.257 0.668,0.388 1.132,0.388l2.419,-0c0.511,-0 0.94,-0.032 1.288,-0.096c0.349,-0.064 0.644,-0.177 0.888,-0.345c0.244,-0.165 0.406,-0.417 0.488,-0.75c0.081,-0.333 0.121,-0.747 0.121,-1.242l0,-0.206c0,-0.368 -0.029,-0.692 -0.087,-0.967c-0.058,-0.275 -0.18,-0.501 -0.365,-0.672c-0.186,-0.197 -0.476,-0.331 -0.871,-0.406c-0.394,-0.075 -0.864,-0.113 -1.409,-0.113c-1.126,0 -1.944,-0.028 -2.455,-0.086c-0.975,-0.105 -1.706,-0.336 -2.193,-0.696c-0.336,-0.255 -0.574,-0.591 -0.714,-1.008c-0.139,-0.417 -0.208,-0.926 -0.208,-1.529c-0,-0.741 0.078,-1.367 0.234,-1.877c0.157,-0.509 0.395,-0.897 0.714,-1.164c0.319,-0.266 0.746,-0.466 1.279,-0.599c0.534,-0.134 1.41,-0.2 2.629,-0.2Zm7.774,13.137l-0,-13.033l8.389,-0l0,1.286l-6.927,-0l-0,4.449l6.632,-0l-0,1.216l-6.632,0l-0,4.796l6.927,0l0,1.286l-8.389,0Zm18.101,-11.747l-4.827,-0l-0,5.231l4.653,-0c0.502,-0 0.902,-0.038 1.207,-0.113c0.302,-0.076 0.571,-0.241 0.804,-0.496c0.185,-0.208 0.316,-0.475 0.386,-0.799c0.069,-0.324 0.104,-0.683 0.104,-1.077l-0,-0.435c-0,-0.417 -0.02,-0.759 -0.061,-1.025c-0.041,-0.266 -0.145,-0.498 -0.316,-0.695c-0.168,-0.197 -0.427,-0.345 -0.778,-0.443c-0.351,-0.099 -0.739,-0.148 -1.172,-0.148Zm-0.023,-1.286c0.661,-0 1.259,0.076 1.793,0.226c0.534,0.151 0.957,0.394 1.27,0.73c0.279,0.301 0.476,0.698 0.592,1.19c0.116,0.492 0.174,1.069 0.174,1.729c0,0.557 -0.023,0.979 -0.069,1.269c-0.082,0.475 -0.227,0.863 -0.436,1.164c-0.371,0.487 -0.957,0.782 -1.758,0.886c0.627,0.082 1.135,0.336 1.523,0.765c0.389,0.429 0.584,0.956 0.584,1.581l-0,3.493l-1.497,0l-0,-2.85c-0,-0.405 -0.035,-0.755 -0.105,-1.051c-0.069,-0.295 -0.194,-0.545 -0.374,-0.747c-0.18,-0.203 -0.421,-0.345 -0.722,-0.426c-0.302,-0.081 -0.661,-0.122 -1.08,-0.122l-4.699,0l-0,5.196l-1.462,0l-0,-13.033l6.266,-0Zm16.442,13.033l0,-13.033l8.39,-0l0,1.286l-6.928,-0l0,4.449l6.632,-0l0,1.216l-6.632,0l0,4.796l6.928,0l0,1.286l-8.39,0Zm10.907,-13.033l1.758,-0l3.699,5.601l3.682,-5.601l1.74,-0l-4.195,6.308l4.491,6.725l-1.72,-0.003l-3.989,-5.975l-4.041,5.975l-1.808,0.003l4.665,-6.725l-4.282,-6.308Zm13.901,-0l1.462,-0l0,13.033l-1.462,0l0,-13.033Zm8.592,13.033l-0,-11.747l-4.212,-0l-0,-1.286l9.921,-0l0,1.286l-4.212,-0l-0,11.747l-1.497,0Zm15.815,-3.979l5.768,-0l-2.912,-7.835l-2.856,7.835Zm1.794,-9.054l2.071,-0l4.908,13.033l-1.526,-0.003l-1.07,-2.742l-6.594,-0l-1.018,2.742l-1.523,0.003l4.752,-13.033Zm15.438,1.286l-4.827,-0l-0,5.231l4.653,-0c0.502,-0 0.902,-0.038 1.207,-0.113c0.301,-0.076 0.571,-0.241 0.804,-0.496c0.185,-0.208 0.316,-0.475 0.385,-0.799c0.07,-0.324 0.105,-0.683 0.105,-1.077l-0,-0.435c-0,-0.417 -0.021,-0.759 -0.061,-1.025c-0.041,-0.266 -0.145,-0.498 -0.316,-0.695c-0.169,-0.197 -0.427,-0.345 -0.778,-0.443c-0.351,-0.099 -0.74,-0.148 -1.172,-0.148Zm-0.023,-1.286c0.661,-0 1.259,0.076 1.792,0.226c0.534,0.151 0.958,0.394 1.271,0.73c0.279,0.301 0.476,0.698 0.592,1.19c0.116,0.492 0.174,1.069 0.174,1.729c0,0.557 -0.023,0.979 -0.069,1.269c-0.082,0.475 -0.227,0.863 -0.436,1.164c-0.371,0.487 -0.957,0.782 -1.758,0.886c0.627,0.082 1.135,0.336 1.523,0.765c0.389,0.429 0.584,0.956 0.584,1.581l-0,3.493l-1.497,0l-0,-2.85c-0,-0.405 -0.035,-0.755 -0.105,-1.051c-0.069,-0.295 -0.194,-0.545 -0.374,-0.747c-0.18,-0.203 -0.421,-0.345 -0.722,-0.426c-0.302,-0.081 -0.662,-0.122 -1.08,-0.122l-4.699,0l-0,5.196l-1.462,0l-0,-13.033l6.266,-0Zm7.043,13.033l-0,-13.033l8.389,-0l0,1.286l-6.927,-0l-0,4.449l6.631,-0l0,1.216l-6.631,0l-0,4.796l6.927,0l0,1.286l-8.389,0Zm11.777,-13.033l2.454,-0l7.311,11.921l0.034,-11.921l1.497,-0l0,13.033l-2.419,0l-7.346,-11.814l-0.034,11.814l-1.497,0l-0,-13.033Zm16.598,9.054l5.768,-0l-2.913,-7.835l-2.855,7.835Zm1.794,-9.054l2.071,-0l4.908,13.033l-1.526,-0.003l-1.07,-2.742l-6.594,-0l-1.018,2.742l-1.524,0.003l4.753,-13.033Zm-141.492,23.299l-0,-0.347c-0,-0.31 -0.016,-0.545 -0.048,-0.704c-0.056,-0.279 -0.162,-0.484 -0.317,-0.616c-0.155,-0.131 -0.341,-0.216 -0.556,-0.256c-0.215,-0.04 -0.495,-0.06 -0.838,-0.06l-0.203,0c-0.694,0 -1.184,0.02 -1.472,0.06c-0.534,0.071 -0.925,0.231 -1.172,0.477c-0.12,0.144 -0.215,0.315 -0.287,0.514c-0.072,0.199 -0.108,0.466 -0.108,0.8l0,2.939c0,0.653 0.042,1.136 0.126,1.451c0.083,0.314 0.215,0.551 0.39,0.71c0.17,0.176 0.381,0.287 0.639,0.335c0.016,0 0.263,0.024 0.743,0.072l0.614,-0c0.16,-0 0.385,-0.008 0.672,-0.024c0.289,-0.016 0.495,-0.024 0.615,-0.024c0.191,-0.024 0.344,-0.048 0.456,-0.072c0.249,-0.055 0.441,-0.151 0.576,-0.287c0.21,-0.19 0.313,-0.461 0.313,-0.812l0,-1.027l1.006,0l-0,0.514c-0,0.462 -0.024,0.808 -0.072,1.039c-0.08,0.382 -0.24,0.697 -0.479,0.943c-0.239,0.247 -0.59,0.419 -1.053,0.514c-0.319,0.064 -0.729,0.096 -1.232,0.096l-1.651,-0c-0.415,-0 -0.762,-0.044 -1.041,-0.132c-0.279,-0.087 -0.582,-0.271 -0.909,-0.549c-0.199,-0.175 -0.369,-0.454 -0.509,-0.836c-0.139,-0.382 -0.209,-0.796 -0.209,-1.243l-0,-3.523c-0,-0.86 0.179,-1.505 0.538,-1.935c0.311,-0.374 0.778,-0.625 1.4,-0.753c0.415,-0.087 0.977,-0.131 1.687,-0.131l1.496,-0c0.51,0.048 0.913,0.197 1.208,0.446c0.215,0.177 0.387,0.434 0.514,0.77c0.128,0.337 0.192,0.81 0.192,1.422l-0,0.229l-1.029,-0Zm-4.235,-4.754l0.287,-0.49l1.804,0.904l1.835,-0.904l0.261,0.49l-2.106,1.302l-2.081,-1.302Zm7.21,10.917l-0,-8.958l5.766,-0l0,0.884l-4.762,-0l0,3.057l4.559,0l-0,0.836l-4.559,0l0,3.297l4.762,0l0,0.884l-5.766,-0Zm11.062,-9.03c0.67,-0 1.208,0.036 1.615,0.108c0.407,0.071 0.722,0.196 0.945,0.376c0.223,0.179 0.387,0.422 0.49,0.728c0.104,0.307 0.156,0.659 0.156,1.057l0,0.251l-1.005,0c-0,-0.302 -0.016,-0.555 -0.048,-0.758c-0.032,-0.203 -0.107,-0.369 -0.227,-0.496c-0.128,-0.159 -0.337,-0.263 -0.628,-0.311c-0.291,-0.047 -0.724,-0.071 -1.298,-0.071l-0.252,-0c-0.438,-0 -0.793,0.022 -1.064,0.065c-0.272,0.044 -0.503,0.142 -0.694,0.293c-0.112,0.088 -0.19,0.231 -0.233,0.43c-0.044,0.199 -0.066,0.442 -0.066,0.729c-0,0.422 0.044,0.732 0.131,0.932c0.088,0.199 0.218,0.344 0.389,0.436c0.171,0.091 0.399,0.155 0.682,0.191c0.283,0.036 0.58,0.053 0.891,0.053l0.551,0c0.59,0 1.065,0.028 1.423,0.084c0.359,0.056 0.679,0.181 0.957,0.376c0.28,0.195 0.475,0.52 0.587,0.974c0.063,0.27 0.095,0.617 0.095,1.039c0,0.525 -0.061,0.975 -0.185,1.349c-0.124,0.375 -0.321,0.657 -0.592,0.849c-0.287,0.175 -0.718,0.294 -1.292,0.358c-0.383,0.04 -0.886,0.06 -1.508,0.06l-0.371,-0c-0.502,-0 -0.885,-0.024 -1.148,-0.072c-0.423,-0.08 -0.76,-0.219 -1.011,-0.418c-0.252,-0.199 -0.427,-0.458 -0.526,-0.777c-0.1,-0.318 -0.15,-0.672 -0.15,-1.063c0.016,-0.095 0.028,-0.197 0.036,-0.304c0.008,-0.108 0.012,-0.185 0.012,-0.233l1.005,0l-0.024,0.205c-0,0.37 0.024,0.683 0.072,0.938c0.047,0.252 0.147,0.445 0.299,0.573c0.199,0.177 0.458,0.267 0.777,0.267l1.663,-0c0.351,-0 0.647,-0.022 0.886,-0.066c0.239,-0.044 0.442,-0.121 0.61,-0.237c0.167,-0.113 0.279,-0.286 0.335,-0.515c0.056,-0.229 0.084,-0.514 0.084,-0.854l-0,-0.142c-0,-0.253 -0.02,-0.476 -0.06,-0.664c-0.04,-0.19 -0.124,-0.345 -0.251,-0.462c-0.128,-0.136 -0.327,-0.228 -0.599,-0.279c-0.271,-0.052 -0.594,-0.078 -0.969,-0.078c-0.774,0 -1.336,-0.02 -1.687,-0.06c-0.67,-0.071 -1.172,-0.23 -1.507,-0.477c-0.232,-0.176 -0.395,-0.407 -0.491,-0.693c-0.095,-0.287 -0.143,-0.637 -0.143,-1.051c-0,-0.51 0.054,-0.94 0.161,-1.29c0.108,-0.351 0.271,-0.617 0.491,-0.8c0.219,-0.184 0.513,-0.321 0.879,-0.413c0.367,-0.091 0.969,-0.137 1.807,-0.137Zm5.714,0.072l1.005,-0l-0,3.917l0.883,0l3.675,-3.917l1.328,-0l-4.104,4.335l4.595,4.623l-1.376,-0l-4.116,-4.156l-0.885,-0l-0,4.156l-1.005,-0l-0,-8.958Zm8.825,8.958l-0,-8.958l5.767,-0l-0,0.883l-4.762,0l-0,3.058l4.558,0l0,0.836l-4.558,0l-0,3.297l4.762,0l-0,0.884l-5.767,-0Zm2.189,-10.117l1.783,-1.35l0.466,0.633l-1.914,1.207l-0.335,-0.49Zm10.081,5.961l0,3.272l3.434,0c0.606,0 1.013,-0.163 1.22,-0.489c0.136,-0.216 0.204,-0.582 0.204,-1.099c-0,-0.494 -0.084,-0.881 -0.251,-1.159c-0.216,-0.351 -0.563,-0.525 -1.041,-0.525l-3.566,-0Zm3.027,-3.919l-3.027,0l0,3.034l3.075,0c0.319,0 0.57,-0.027 0.754,-0.083c0.183,-0.056 0.337,-0.151 0.46,-0.287c0.124,-0.135 0.206,-0.324 0.246,-0.567c0.04,-0.243 0.06,-0.52 0.06,-0.83c-0,-0.223 -0.015,-0.405 -0.042,-0.544c-0.028,-0.139 -0.102,-0.272 -0.222,-0.4c-0.119,-0.128 -0.273,-0.213 -0.46,-0.257c-0.188,-0.044 -0.469,-0.066 -0.844,-0.066Zm0.682,-0.883c0.702,-0 1.204,0.195 1.508,0.585c0.271,0.342 0.406,0.864 0.406,1.565c0,0.677 -0.103,1.182 -0.311,1.516c-0.167,0.263 -0.438,0.463 -0.813,0.598c0.614,0.127 1.017,0.434 1.208,0.92c0.12,0.302 0.179,0.808 0.179,1.516c0,0.669 -0.151,1.199 -0.454,1.589c-0.351,0.446 -0.885,0.669 -1.603,0.669l-4.834,-0l0,-8.958l4.714,-0Zm8.095,8.17l0.515,-0c0.494,-0 0.861,-0.02 1.1,-0.06c0.359,-0.064 0.622,-0.179 0.79,-0.347c0.192,-0.167 0.307,-0.465 0.347,-0.895c0.016,-0.183 0.024,-0.41 0.024,-0.681l-0,-6.187l1.029,-0l-0,6.414c-0,0.955 -0.243,1.64 -0.73,2.054c-0.327,0.247 -0.794,0.41 -1.4,0.49c-0.367,0.048 -0.909,0.072 -1.627,0.072c-0.566,-0 -0.989,-0.016 -1.268,-0.048c-0.455,-0.056 -0.842,-0.169 -1.16,-0.34c-0.32,-0.172 -0.553,-0.451 -0.701,-0.837c-0.147,-0.386 -0.221,-0.81 -0.221,-1.272l0,-6.533l1.005,-0l0,6.509c0,0.351 0.028,0.632 0.084,0.843c0.056,0.211 0.173,0.376 0.353,0.495c0.179,0.12 0.434,0.203 0.766,0.251c0.33,0.048 0.695,0.072 1.094,0.072Zm10.775,-0.096c0.415,0 0.76,-0.046 1.035,-0.137c0.275,-0.092 0.501,-0.261 0.676,-0.508c0.176,-0.247 0.299,-0.605 0.371,-1.075c0.048,-0.327 0.072,-0.725 0.072,-1.195l-0,-1.982c-0,-0.621 -0.124,-1.127 -0.371,-1.517c-0.327,-0.517 -0.83,-0.777 -1.508,-0.777l-3.553,0l0,7.191l3.278,0Zm0.347,0.884l-4.642,-0l0,-8.958l4.391,-0c0.686,-0 1.248,0.119 1.687,0.358c0.39,0.207 0.706,0.522 0.945,0.944c0.287,0.541 0.431,1.274 0.431,2.197l-0,1.911c-0,0.717 -0.084,1.318 -0.252,1.804c-0.223,0.645 -0.594,1.111 -1.112,1.398c-0.184,0.119 -0.399,0.207 -0.646,0.263c-0.247,0.055 -0.515,0.083 -0.802,0.083Zm4.961,-0l-0,-8.958l5.767,-0l-0,0.883l-4.762,0l-0,3.058l4.558,0l0,0.836l-4.558,0l-0,3.297l4.762,0l-0,0.884l-5.767,-0Zm0.921,-10.929l0.287,-0.49l1.805,0.904l1.834,-0.904l0.262,0.49l-2.106,1.302l-2.082,-1.302Zm11.265,1.971l1.006,-0l-0,6.784c-0,0.382 -0.05,0.721 -0.15,1.015c-0.1,0.295 -0.261,0.526 -0.484,0.693c-0.232,0.191 -0.549,0.328 -0.952,0.412c-0.402,0.084 -0.887,0.126 -1.453,0.126c-0.551,-0 -0.997,-0.064 -1.34,-0.191c-0.343,-0.128 -0.61,-0.315 -0.802,-0.562c-0.12,-0.135 -0.209,-0.306 -0.269,-0.514c-0.06,-0.207 -0.09,-0.469 -0.09,-0.788l0,-1.278l1.005,-0l0,0.693c0,0.406 0.01,0.719 0.03,0.937c0.02,0.22 0.114,0.405 0.281,0.556c0.104,0.088 0.257,0.157 0.461,0.209c0.203,0.052 0.453,0.078 0.748,0.078c0.39,-0.032 0.722,-0.056 0.993,-0.072c0.271,-0.016 0.502,-0.112 0.693,-0.287c0.144,-0.127 0.234,-0.266 0.27,-0.418c0.036,-0.151 0.053,-0.378 0.053,-0.681l0,-6.712Zm7.079,0.812l-0.527,-0c-0.534,-0 -0.909,0.028 -1.124,0.083c-0.343,0.088 -0.591,0.263 -0.742,0.526c-0.112,0.223 -0.178,0.476 -0.197,0.759c-0.021,0.282 -0.034,0.511 -0.042,0.686l-0,3.273c-0,0.414 0.036,0.752 0.107,1.015c0.04,0.144 0.104,0.295 0.192,0.454c0.127,0.223 0.355,0.375 0.682,0.454c0.223,0.056 0.542,0.084 0.957,0.084l0.586,-0c0.806,-0 1.332,-0.034 1.579,-0.102c0.247,-0.067 0.439,-0.189 0.574,-0.364c0.104,-0.143 0.188,-0.323 0.251,-0.538c0.065,-0.215 0.097,-0.525 0.097,-0.931l-0,-3.44c-0,-0.279 -0.017,-0.518 -0.048,-0.717c-0.056,-0.358 -0.174,-0.635 -0.354,-0.83c-0.179,-0.195 -0.446,-0.313 -0.801,-0.352c-0.355,-0.04 -0.752,-0.06 -1.19,-0.06Zm-0.132,-0.884c0.782,-0 1.348,0.032 1.699,0.096c0.646,0.119 1.101,0.366 1.364,0.74c0.064,0.08 0.111,0.155 0.143,0.227c0.216,0.462 0.323,1.175 0.323,2.138l0,3.082c0,0.509 -0.037,0.9 -0.113,1.17c-0.076,0.271 -0.194,0.534 -0.353,0.789c-0.223,0.358 -0.61,0.601 -1.161,0.728c-0.367,0.088 -0.837,0.132 -1.412,0.132l-1.029,-0c-0.534,-0 -0.957,-0.036 -1.267,-0.108c-0.463,-0.103 -0.834,-0.303 -1.113,-0.597c-0.216,-0.239 -0.367,-0.542 -0.455,-0.908c-0.087,-0.366 -0.131,-0.776 -0.131,-1.23l-0,-3.177c-0,-0.526 0.026,-0.954 0.077,-1.284c0.052,-0.331 0.174,-0.643 0.365,-0.938c0.256,-0.366 0.654,-0.613 1.197,-0.741c0.343,-0.079 0.857,-0.119 1.543,-0.119l0.323,-0Zm9.71,9.03l-1.448,-0l-3.206,-8.958l1.077,-0l2.819,8.195l0.052,-0.002l2.812,-8.193l1.065,-0l-3.171,8.958Zm5.056,-8.958l1.005,-0l0,8.958l-1.005,-0l0,-8.958Zm9.507,2.795l0,-0.347c0,-0.311 -0.016,-0.545 -0.048,-0.705c-0.055,-0.278 -0.161,-0.483 -0.317,-0.615c-0.155,-0.131 -0.341,-0.217 -0.556,-0.256c-0.215,-0.04 -0.495,-0.06 -0.838,-0.06l-0.203,-0c-0.694,-0 -1.184,0.02 -1.471,0.06c-0.535,0.071 -0.926,0.231 -1.173,0.477c-0.12,0.144 -0.215,0.315 -0.287,0.514c-0.072,0.199 -0.108,0.466 -0.108,0.8l0,2.939c0,0.653 0.042,1.136 0.126,1.451c0.084,0.314 0.215,0.551 0.391,0.71c0.169,0.176 0.381,0.287 0.638,0.335c0.016,0 0.263,0.024 0.744,0.072l0.614,-0c0.159,-0 0.385,-0.008 0.672,-0.024c0.289,-0.016 0.494,-0.024 0.614,-0.024c0.191,-0.024 0.345,-0.048 0.456,-0.072c0.25,-0.056 0.441,-0.151 0.577,-0.287c0.209,-0.19 0.313,-0.461 0.313,-0.812l-0,-1.027l1.005,-0l-0,0.514c-0,0.462 -0.024,0.808 -0.072,1.039c-0.08,0.382 -0.239,0.697 -0.478,0.943c-0.24,0.247 -0.591,0.419 -1.054,0.514c-0.318,0.064 -0.729,0.096 -1.232,0.096l-1.651,-0c-0.414,-0 -0.761,-0.044 -1.041,-0.132c-0.279,-0.087 -0.582,-0.271 -0.909,-0.549c-0.199,-0.175 -0.369,-0.454 -0.508,-0.836c-0.14,-0.383 -0.21,-0.796 -0.21,-1.243l0,-3.523c0,-0.86 0.179,-1.505 0.539,-1.935c0.311,-0.374 0.777,-0.625 1.399,-0.753c0.415,-0.087 0.977,-0.131 1.687,-0.131l1.496,-0c0.51,0.048 0.913,0.197 1.208,0.446c0.216,0.177 0.387,0.434 0.515,0.77c0.127,0.337 0.191,0.81 0.191,1.422l0,0.229l-1.029,-0Zm2.975,6.163l0,-8.958l5.766,-0l0,0.883l-4.761,0l-0,3.058l4.558,0l0,0.836l-4.558,0l-0,3.297l4.761,0l0,0.884l-5.766,-0Zm-83.977,-30.948l0.517,-0l-0,15.533l-0.517,-0l0,-15.533Z"
                    fill="black" style="fill-rule:nonzero;"/>
            </g>
			<g transform="matrix(3.99522,0,0,3.99522,-181.812,-815.984)">
                <path
					d="M135.246,277.223l6.893,4.103l-0,0l0.109,0.065l-0,0c0.759,0.436 1.393,1.066 1.832,1.822c0.423,0.729 0.665,1.576 0.665,2.481l0,21.563c0,0.857 -0.218,1.663 -0.601,2.366c-0.397,0.73 -0.973,1.349 -1.668,1.799l-0.381,0.223l-5.969,3.519l-1.411,0.832c-0.281,0.109 -0.573,0.193 -0.874,0.25c-0.292,0.055 -0.592,0.084 -0.9,0.084c-1.366,-0 -2.602,-0.554 -3.496,-1.449c-0.895,-0.896 -1.448,-2.133 -1.448,-3.5l0,-29.786c0,-0.855 0.207,-1.635 0.564,-2.31c0.429,-0.809 1.074,-1.468 1.84,-1.924c0.765,-0.456 1.65,-0.71 2.558,-0.71c0.766,0 1.548,0.181 2.287,0.572"
					style="fill:#e41e25;fill-rule:nonzero;"/>
            </g>
			<g transform="matrix(3.99522,0,0,3.99522,-181.812,-815.817)">
                <path
					d="M156.152,288.196l0.315,0.188l0,0l5.87,3.495l0.002,0.001c0.247,0.098 0.484,0.214 0.709,0.348c0.225,0.134 0.438,0.286 0.637,0.454l0.001,-0c0.282,0.237 0.531,0.499 0.746,0.778c0.702,0.913 1.04,2.017 1.018,3.114c-0.022,1.096 -0.405,2.185 -1.147,3.068c-0.226,0.268 -0.485,0.518 -0.777,0.743c-0.171,0.131 -0.35,0.253 -0.537,0.362c-0.177,0.104 -0.362,0.197 -0.553,0.277l-0.001,0.001l-0.001,0l-1.486,0.879l-4.362,2.573l-0.527,0.309c-0.352,0.182 -0.727,0.324 -1.12,0.42c-0.378,0.092 -0.772,0.142 -1.179,0.142c-1.387,0 -2.643,-0.562 -3.552,-1.471c-0.91,-0.909 -1.472,-2.166 -1.472,-3.553l0,-7.711c0,-0.887 0.219,-1.694 0.596,-2.389c0.44,-0.811 1.096,-1.469 1.87,-1.925c0.774,-0.455 1.666,-0.708 2.581,-0.708c0.794,0 1.605,0.191 2.369,0.605"
					style="fill:#e41e25;fill-rule:nonzero;"/>
            </g>
        </g>
    </g>
</svg>
