<?xml version="1.0" encoding="UTF-8" standalone="no"?>
<!DOCTYPE svg PUBLIC "-//W3C//DTD SVG 1.1//EN" "http://www.w3.org/Graphics/SVG/1.1/DTD/svg11.dtd">
<svg xmlns:xlink="http://www.w3.org/1999/xlink" class="arena-logo" viewBox="-50 -100 990 726" version="1.1" xmlns="http://www.w3.org/2000/svg" xml:space="preserve" style="fill-rule:evenodd;clip-rule:evenodd;stroke-linejoin:round;stroke-miterlimit:2;">
    <g>
        <path d="M17.401,344.952l0,63.208l63.988,0l-0,16.58l-80.679,-0l-0,-16.58l0.112,0l0,-63.208l16.579,0Z" fill="black" style="fill-rule:nonzero;"/>
        <path d="M143.258,399.48l8.012,16.467l-36.054,0c-2.821,5.792 -4.229,8.721 -4.229,8.792l-18.583,-0c1.854,-3.704 2.891,-5.784 3.116,-6.229l1.221,-2.563l4.342,-8.787l13.129,-26.821l13.133,-26.817l4.23,-8.571l12.462,0c1.113,2.304 2.521,5.159 4.229,8.571l13.242,26.817l13.242,26.821l4.341,8.787c0.517,1.042 0.925,1.896 1.221,2.563c0.225,0.445 1.3,2.525 3.229,6.229l-18.696,-0c-1.708,-3.409 -3.375,-6.821 -5.008,-10.238l-13.242,-26.816l-8.791,-17.805l-8.679,17.805l-5.788,11.795l19.921,0Z" fill="black" style="fill-rule:nonzero;"/>
        <path d="M232.17,392.581c-7.121,-0.075 -12.017,-0.112 -14.688,-0.112c-4.008,-0 -7.641,-0.538 -10.908,-1.613c-3.262,-1.075 -5.992,-2.854 -8.179,-5.341c-2.188,-2.484 -3.279,-5.584 -3.279,-9.292c0.071,-4.6 0.183,-9.754 0.333,-15.471c0.292,-10.308 7.6,-15.537 21.921,-15.687l58.088,-0l0.112,17.691c-29.083,-0.296 -47.071,-0.479 -53.971,-0.554c-3.042,-0.075 -5.25,0.296 -6.621,1.113c-1.375,0.816 -2.058,2.412 -2.058,4.783l-0.225,1.892c-0.075,2.525 0.65,4.47 2.171,5.841c1.521,1.375 3.729,2.059 6.621,2.059l17.358,-0c7.717,-0.071 12.871,-0.109 15.471,-0.109c6.304,0.15 11.462,1.521 15.466,4.117c4.009,2.596 5.934,6.604 5.788,12.017c-0.075,4.675 -0.225,9.866 -0.446,15.579c-0.371,10.091 -7.937,15.175 -22.7,15.246l-57.979,-0l8.012,-16.692c22.996,0.075 37.984,0.187 44.959,0.333c6.825,0.075 10.275,-2.075 10.35,-6.454l0.221,-1.892c0.075,-2.52 -0.596,-4.358 -2.005,-5.508c-1.408,-1.15 -3.595,-1.762 -6.562,-1.833c-5.863,-0 -11.613,-0.038 -17.25,-0.113" fill="black" style="fill-rule:nonzero;"/>
        <path d="M335.438,376.556l3.229,-0c2.075,-0 4.375,0.021 6.896,0.058c2.525,0.038 4.825,0.054 6.9,0.054l3.229,0l-0.112,16.579l-3.117,0c-2.15,0 -4.488,-0.016 -7.008,-0.054c-2.525,-0.037 -4.825,-0.054 -6.9,-0.054l-4.009,0l-15.8,-16.696c6.379,0.075 11.942,0.113 16.692,0.113m-48.183,-31.604l80.341,-0l0,16.583l-63.65,-0l0,46.625l63.984,-0l-0,16.579l-80.675,0l-0,-16.579l0.108,-0l-0,-53.638l-0.108,-9.57Z" fill="black" style="fill-rule:nonzero;"/>
        <path d="M374.941,344.952l62.429,0c14.908,0.225 22.512,5.492 22.813,15.8c0.145,5.717 0.258,10.871 0.333,15.471c-0,5.417 -2.004,9.421 -6.009,12.017c-4.008,2.6 -9.166,3.895 -15.47,3.895l-2,0c7.196,8.238 16.687,19.142 28.487,32.717l-22.371,0c-5.116,-6.083 -9.866,-11.646 -14.241,-16.692c-17.88,-20.7 -27.005,-31.341 -27.375,-31.937l1.333,-0c2.3,-0 5.008,0.037 8.125,0.112l12.129,0c5.567,0.075 9.313,0.109 11.242,0.109c3.041,-0 5.246,-0.463 6.621,-1.388c1.37,-0.929 2.02,-2.616 1.945,-5.066l-0.22,-1.892c-0,-2.371 -0.667,-3.967 -2.005,-4.783c-1.333,-0.817 -3.562,-1.188 -6.679,-1.113c-1.483,0.075 -6.283,0.092 -14.408,0.054c-8.125,-0.037 -12.296,-0.054 -12.521,-0.054l-7.675,0l-9.571,0.113l-14.912,-17.363Z" fill="black" style="fill-rule:nonzero;"/>
        <path d="M561.443,376.556l5.008,-0c3.338,-0 6.992,0.021 10.963,0.058c3.966,0.038 7.583,0.054 10.85,0.054l5.008,0l0,12.796c0,1.708 -0.021,3.6 -0.058,5.675c-0.038,2.079 -0.054,4.008 -0.054,5.788l-0,2.558c-0,3.712 -0.263,6.787 -0.78,9.237c-0.52,2.45 -1.466,4.617 -2.837,6.509c-1.375,1.896 -3.321,3.283 -5.842,4.175c-2.525,0.891 -5.75,1.333 -9.683,1.333l-41.508,0c-3.934,0 -7.159,-0.442 -9.68,-1.333c-2.525,-0.892 -4.47,-2.279 -5.841,-4.175c-1.375,-1.892 -2.321,-4.059 -2.838,-6.509c-0.521,-2.45 -0.779,-5.525 -0.779,-9.237l0,-38.058c0.071,-7.567 1.758,-12.867 5.063,-15.913c3.3,-3.042 8.512,-4.562 15.633,-4.562l59.204,-0l0,16.583l-58.979,-0c-2.821,0.15 -4.267,1.892 -4.342,5.229l0,36.613c0,1.854 0.259,3.112 0.779,3.783c0.517,0.667 1.409,1 2.671,1l39.617,-0c1.333,-0 2.262,-0.317 2.779,-0.946c0.521,-0.629 0.779,-1.908 0.779,-3.837l0,-2.563c0,-1.704 0.038,-3.596 0.113,-5.675l-0,-2l-16.134,0l-15.804,-16.696c6.379,0.075 11.942,0.113 16.692,0.113" fill="black" style="fill-rule:nonzero;"/>
        <path d="M655.254,399.48l8.012,16.467l-36.054,0c-2.821,5.792 -4.229,8.721 -4.229,8.792l-18.583,-0c1.854,-3.704 2.891,-5.784 3.116,-6.229l1.221,-2.563l4.342,-8.787l13.129,-26.821l13.133,-26.817l4.229,-8.571l12.463,0c1.112,2.304 2.521,5.159 4.229,8.571l13.242,26.817l13.241,26.821l4.342,8.787c0.517,1.042 0.925,1.896 1.221,2.563c0.225,0.445 1.3,2.525 3.229,6.229l-18.696,-0c-1.708,-3.409 -3.375,-6.821 -5.004,-10.238l-13.246,-26.816l-8.791,-17.805l-8.68,17.805l-5.787,11.795l19.921,0Z" fill="black" style="fill-rule:nonzero;"/>
        <path d="M797.582,344.841l-0,39.95c-0.075,10.016 -0.113,19.179 -0.113,27.487l0,12.463l-16.579,-0l-0,-12.463c-0,-8.308 0.037,-17.471 0.108,-27.487l0,-6.121l-5.229,10.571l-13.129,26.821c-2.525,5.116 -3.933,7.975 -4.229,8.566l-12.467,0.113c-1.112,-2.3 -2.521,-5.192 -4.225,-8.679l-13.241,-26.821l-5.234,-10.571l0,46.071l-16.579,-0l0,-79.454l-0.225,-0.334l0.225,0l0,-0.112l16.579,-0l0,0.112l1.896,0c1.629,3.413 3.296,6.825 5.004,10.238l13.242,26.821l8.792,17.691l8.683,-17.691l13.129,-26.821l5.008,-10.35l2,-0l0,-0.113l16.584,0.113Z" fill="black" style="fill-rule:nonzero;"/>
        <path d="M857.337,376.556l3.229,-0c2.075,-0 4.375,0.021 6.896,0.058c2.525,0.038 4.825,0.054 6.9,0.054l3.229,0l-0.112,16.579l-3.117,0c-2.15,0 -4.487,-0.016 -7.008,-0.054c-2.525,-0.037 -4.825,-0.054 -6.9,-0.054l-4.004,0l-15.805,-16.696c6.38,0.075 11.942,0.113 16.692,0.113m-48.183,-31.604l80.346,-0l-0,16.583l-63.655,-0l0,46.625l63.988,-0l-0,16.579l-80.679,0l-0,-16.579l0.112,-0l0,-53.638l-0.112,-9.57Z" fill="black" style="fill-rule:nonzero;"/>
        <path d="M212.492,493.152c11.475,0.05 18.671,0.075 21.588,0.075c2.029,0 3.5,-0.308 4.416,-0.929c0.913,-0.616 1.346,-1.741 1.296,-3.375l-0.146,-1.262c0,-1.584 -0.446,-2.646 -1.337,-3.188c-0.892,-0.546 -2.375,-0.791 -4.45,-0.746c-0.992,0.05 -4.192,0.067 -9.609,0.038c-5.416,-0.021 -8.195,-0.038 -8.345,-0.038c-2.821,0 -5.242,0.03 -7.271,0.075l-0,41.621l-11.054,0l-0,-53.191l11.054,-0c13.8,-0 23.146,0.025 28.041,0.075c9.546,0.1 14.417,3.583 14.617,10.458c0.1,3.808 0.171,7.246 0.221,10.312c-0,3.613 -1.333,6.284 -4.004,8.013c-2.671,1.733 -6.109,2.596 -10.313,2.596l-15.429,0.296l-9.275,-10.83Z" fill="black" style="fill-rule:nonzero;"/>
        <path d="M292.762,508.583l5.341,10.979l-24.037,-0c-1.879,3.858 -2.817,5.812 -2.817,5.862l-12.392,0c1.238,-2.475 1.93,-3.858 2.08,-4.154l0.816,-1.708l2.892,-5.859l17.508,-35.758l2.817,-5.712l8.313,-0c0.741,1.533 1.679,3.437 2.816,5.712l17.659,35.758l2.891,5.859c0.346,0.696 0.617,1.262 0.817,1.708c0.15,0.296 0.867,1.679 2.15,4.154l-12.463,0c-1.137,-2.275 -2.25,-4.55 -3.337,-6.825l-8.829,-17.879l-5.859,-11.871l-5.787,11.871l-3.858,7.863l13.279,-0Z" fill="black" style="fill-rule:nonzero;"/>
        <path d="M309.453,472.232l41.621,-0c9.938,0.15 15.008,3.658 15.204,10.533c0.1,3.808 0.175,7.246 0.225,10.312c0,3.613 -1.337,6.284 -4.008,8.013c-2.671,1.733 -6.108,2.596 -10.313,2.596l-1.333,-0c4.796,5.491 11.129,12.758 18.992,21.812l-14.913,0c-3.412,-4.054 -6.575,-7.766 -9.496,-11.129c-11.92,-13.8 -18,-20.896 -18.25,-21.292l0.892,0c1.533,0 3.338,0.026 5.417,0.076l8.083,-0c3.713,0.049 6.208,0.075 7.496,0.075c2.025,-0 3.496,-0.309 4.412,-0.93c0.917,-0.616 1.346,-1.741 1.3,-3.375l-0.15,-1.262c0,-1.579 -0.445,-2.646 -1.333,-3.188c-0.892,-0.546 -2.375,-0.791 -4.454,-0.745c-0.988,0.05 -4.192,0.066 -9.604,0.037c-5.417,-0.021 -8.2,-0.037 -8.346,-0.037l-5.121,-0l-6.379,0.075l-9.942,-11.571Z" fill="black" style="fill-rule:nonzero;"/>
        <path d="M377.629,472.232l39.396,-0c4.796,-0 8.321,1.05 10.571,3.154c2.25,2.1 3.35,5.771 3.3,11.012l-0,3.859c-0,2.625 -0.013,5.479 -0.038,8.57c-0.025,3.092 -0.037,5.946 -0.037,8.567l-0,3.858c-0,2.475 -0.171,4.513 -0.517,6.121c-0.346,1.609 -0.966,3.054 -1.854,4.342c-0.892,1.287 -2.179,2.225 -3.858,2.817c-1.684,0.595 -3.809,0.891 -6.38,0.891l-12.02,0l-10.759,-11.129c7.271,0 14.542,0.025 21.813,0.075l0.15,0c0.887,0 1.508,-0.208 1.854,-0.629c0.346,-0.421 0.517,-1.275 0.517,-2.563l-0,-3.783l0.075,-8.604l-0,-12.317c-0.146,-2.025 -1.113,-3.087 -2.892,-3.187l-28.267,-0l0,42.137l-11.054,0l0,-53.191Z" fill="black" style="fill-rule:nonzero;"/>
        <path d="M491.952,472.232l-0,6.083c-0,4.104 -0.013,8.596 -0.038,13.462c-0.025,4.875 -0.037,9.338 -0.037,13.392l-0,6.083c-0,2.475 -0.175,4.525 -0.517,6.159c-0.35,1.633 -0.979,3.079 -1.892,4.341c-0.916,1.259 -2.216,2.188 -3.895,2.78c-1.684,0.595 -3.834,0.891 -6.455,0.891l-27.675,0c-2.62,0 -4.77,-0.296 -6.45,-0.891c-1.683,-0.592 -2.983,-1.521 -3.895,-2.78c-0.917,-1.262 -1.546,-2.708 -1.892,-4.341c-0.346,-1.634 -0.521,-3.684 -0.521,-6.159l0,-39.02l11.054,-0l0,38.945c0,1.238 0.171,2.08 0.521,2.525c0.346,0.442 0.938,0.667 1.779,0.667l26.413,0c0.887,0 1.504,-0.208 1.854,-0.629c0.346,-0.421 0.517,-1.275 0.517,-2.563l-0,-6.008c-0,-4.054 0.012,-8.529 0.037,-13.429c0.025,-4.892 0.038,-9.371 0.038,-13.425l-0,-6.083l11.054,-0Z" fill="black" style="fill-rule:nonzero;"/>
        <path d="M534.535,514.146l1.633,0c2.075,-0.05 3.546,-0.358 4.412,-0.925c0.863,-0.571 1.275,-1.696 1.225,-3.379l-0.075,-1.258c-0.05,-1.679 -0.483,-2.904 -1.295,-3.675c-0.817,-0.763 -2.167,-1.146 -4.046,-1.146c-2.075,-0.05 -3.809,-0.075 -5.192,-0.075c-0.2,0.046 -0.396,0.075 -0.596,0.075l-5.637,-0.075l-10.313,-10.533c11.475,0.045 18.671,0.07 21.588,0.07c2.029,0 3.5,-0.308 4.416,-0.925c0.913,-0.62 1.346,-1.745 1.3,-3.379l-0.15,-1.258c0,-1.583 -0.445,-2.646 -1.333,-3.192c-0.892,-0.541 -2.375,-0.791 -4.454,-0.741c-0.988,0.05 -4.192,0.062 -9.608,0.037c-5.413,-0.025 -8.196,-0.037 -8.342,-0.037c-2.821,-0 -5.246,0.025 -7.275,0.075l-0,41.62l-11.05,0l-0,-53.191l11.05,-0c13.8,-0 23.15,0.021 28.046,0.071c9.546,0.1 14.416,3.587 14.612,10.462c0.15,5.883 0.225,9.321 0.225,10.308c-0.1,2.425 -1.066,4.38 -2.896,5.863c1.634,1.092 2.475,2.671 2.525,4.75c0.096,2.075 0.171,5.517 0.221,10.308c0.05,3.713 -0.679,6.521 -2.187,8.425c-1.509,1.9 -3.575,2.879 -6.196,2.929l-10.608,-11.204Z" fill="black" style="fill-rule:nonzero;"/>
        <rect x="561.759" y="472.232" width="11.054" height="53.192" fill="black" style="fill-rule:nonzero;"/>
        <path d="M594.475,472.232l39.096,-0l0,11.054l-38.946,-0c-1.883,0.1 -2.845,1.258 -2.895,3.487l-0,24.404c-0,1.238 0.175,2.08 0.52,2.525c0.346,0.442 0.938,0.667 1.78,0.667l28.858,0l10.833,11.054l-40.283,0c-2.621,0 -4.775,-0.296 -6.454,-0.891c-1.684,-0.592 -2.984,-1.521 -3.896,-2.78c-0.917,-1.262 -1.546,-2.708 -1.892,-4.341c-0.346,-1.634 -0.521,-3.684 -0.521,-6.159l0,-25.37c0.05,-5.046 1.175,-8.58 3.375,-10.609c2.2,-2.029 5.675,-3.041 10.425,-3.041" fill="black" style="fill-rule:nonzero;"/>
        <path d="M673.559,493.301l2.15,-0c1.387,-0 2.921,0.012 4.6,0.037c1.683,0.025 3.216,0.038 4.6,0.038l2.15,-0l-0.071,11.054l-2.079,0c-1.434,0 -2.992,-0.012 -4.675,-0.037c-1.679,-0.025 -3.213,-0.038 -4.596,-0.038l-2.675,0l-10.533,-11.129c4.254,0.05 7.962,0.075 11.129,0.075m-32.121,-21.071l53.558,0l0,11.054l-42.433,0l-0,31.088l42.658,-0l0,11.05l-53.783,-0l-0,-11.05l0.071,-0l-0,-35.763l-0.071,-6.379Z" fill="black" style="fill-rule:nonzero;"/>
        <path d="M316.021,0.404l-0.35,250.929l193.179,0c12.367,0 22.513,-1.4 30.446,-4.2c7.929,-2.796 14.054,-7.179 18.375,-13.125c4.317,-5.946 7.291,-12.775 8.925,-20.471c1.629,-7.7 2.45,-17.375 2.45,-29.05l0.35,-84.333c-0,0 -144.867,-0.475 -164.929,-0.704l49.695,52.496l63.084,-0l-0,6.296c-0.234,6.533 -0.346,12.487 -0.346,17.85l0,8.045c-0,6.067 -0.817,10.1 -2.45,12.075c-1.633,1.984 -4.55,2.975 -8.75,2.975l-137.533,0l-0,-198.783l-52.146,0Z" style="fill:url(#_Linear1);fill-rule:nonzero;"/>
        <rect x="390.417" y="37.379" width="184.262" height="2.363" style="fill:#00b0ec;"/>
        <path d="M568.898,20.107l2.85,9.679l8,-6.154l-3.383,9.508l10.087,-0.279l-8.325,5.7l8.326,5.704l-10.088,-0.279l3.383,9.508l-8,-6.154l-2.85,9.679l-2.85,-9.679l-8,6.154l3.384,-9.508l-10.088,0.279l8.325,-5.704l-8.325,-5.7l10.088,0.279l-3.384,-9.508l8,6.154l2.85,-9.679Z" style="fill:#00b0ec;fill-rule:nonzero;"/>
    </g>
    <defs>
        <linearGradient id="_Linear1" x1="0" y1="0" x2="1" y2="0" gradientUnits="userSpaceOnUse" gradientTransform="matrix(-156.246,118.107,-118.107,-156.246,485.957,81.0024)"><stop offset="0" style="stop-color:#00b5e9;stop-opacity:1"/><stop offset="1" style="stop-color:#813a96;stop-opacity:1"/></linearGradient>
    </defs>
</svg>
