<svg xmlns="http://www.w3.org/2000/svg" version="1.1" width="512"
     height="512" x="0" y="0" viewBox="0 0 64 64" style="enable-background:new 0 0 512 512" xml:space="preserve"
     class="">
    <g>
        <path fill="#000"
              d="M52.83 45.51 51 47.34v8.16c0 .55-.45 1-1 1H14c-.55 0-1-.45-1-1v-2.13c-.12-.03-.24-.07-.36-.12-.64-.22-1.21-.62-1.64-1.12v3.37c0 1.65 1.35 3 3 3h36c1.65 0 3-1.35 3-3V45.32c-.05.07-.11.13-.17.19zM22 17.5c-1.1 0-2-.9-2-2v-8c0-1.1.9-2 2-2s2 .9 2 2v8c0 1.1-.9 2-2 2zM42 17.5c-1.1 0-2-.9-2-2v-8c0-1.1.9-2 2-2s2 .9 2 2v8c0 1.1-.9 2-2 2z"/>
        <path fill="#000000"
              d="M53 13.5v8c0 1.1-.9 2-2 2H13c-1.1 0-2-.9-2-2v-8c0-1.1.9-2 2-2h6v4c0 1.65 1.35 3 3 3s3-1.35 3-3v-4h14v4c0 1.65 1.35 3 3 3s3-1.35 3-3v-4h6c1.1 0 2 .9 2 2z"/>
        <path fill="#000"
              d="M53 25.5c0-.53-.14-1.04-.39-1.47-.47.3-1.02.47-1.61.47h-1c.55 0 1 .45 1 1v17h-5c-1.65 0-3 1.35-3 3v5H14c-.55 0-1-.45-1-1v-24c0-.55.45-1 1-1h-1c-.59 0-1.14-.17-1.61-.47-.25.43-.39.94-.39 1.47v24a3 3 0 0 0 2 2.82c.31.12.65.18 1 .18h29.17c.47 0 .92-.15 1.23-.28.34-.15.66-.36.9-.6l6.82-6.82c.24-.24.45-.56.6-.9.007-.018.009-.036.015-.054.126-.3.265-.725.265-1.176z"
              opacity="1" data-original="#212121" class=""/>
        <path fill="#000000"
              d="M27.204 47.285v-2.398l4.334-6.666c.323-.499.627-.975.913-1.43.286-.454.521-.92.704-1.397s.275-.986.275-1.529c0-.572-.11-1.008-.33-1.309-.22-.3-.536-.451-.946-.451-.44 0-.778.121-1.012.363-.235.242-.396.561-.484.957s-.132.829-.132 1.298v.836h-3.322v-.88c0-1.056.165-1.995.495-2.816s.851-1.463 1.562-1.925 1.646-.693 2.805-.693c1.569 0 2.75.411 3.542 1.232.792.822 1.188 1.973 1.188 3.454 0 .719-.11 1.382-.33 1.991-.22.608-.51 1.195-.869 1.76s-.745 1.148-1.155 1.749l-3.432 5.17h5.302v2.684z"/>
    </g>
</svg>