<svg xmlns="http://www.w3.org/2000/svg" version="1.1" width="512"
     height="512" x="0" y="0" viewBox="0 0 64 64" style="enable-background:new 0 0 512 512" xml:space="preserve"
     class=""><g><path fill="#212121" d="M52.83 45.51 51 47.34v8.16c0 .55-.45 1-1 1H14c-.55 0-1-.45-1-1v-2.13c-.12-.03-.24-.07-.36-.12-.64-.22-1.21-.62-1.64-1.12v3.37c0 1.65 1.35 3 3 3h36c1.65 0 3-1.35 3-3V45.32c-.05.07-.11.13-.17.19zM22 17.5c-1.1 0-2-.9-2-2v-8c0-1.1.9-2 2-2s2 .9 2 2v8c0 1.1-.9 2-2 2zM42 17.5c-1.1 0-2-.9-2-2v-8c0-1.1.9-2 2-2s2 .9 2 2v8c0 1.1-.9 2-2 2z"/><path
        fill="#000000"
        d="M53 13.5v8c0 1.1-.9 2-2 2H13c-1.1 0-2-.9-2-2v-8c0-1.1.9-2 2-2h6v4c0 1.65 1.35 3 3 3s3-1.35 3-3v-4h14v4c0 1.65 1.35 3 3 3s3-1.35 3-3v-4h6c1.1 0 2 .9 2 2z"/><path
        fill="#212121"
        d="M53 25.5c0-.53-.14-1.04-.39-1.47-.47.3-1.02.47-1.61.47h-1c.55 0 1 .45 1 1v17h-5c-1.65 0-3 1.35-3 3v5H14c-.55 0-1-.45-1-1v-24c0-.55.45-1 1-1h-1c-.59 0-1.14-.17-1.61-.47-.25.43-.39.94-.39 1.47v24a3 3 0 0 0 2 2.82c.31.12.65.18 1 .18h29.17c.47 0 .92-.15 1.23-.28.34-.15.66-.36.9-.6l6.82-6.82c.24-.24.45-.56.6-.9.007-.018.009-.036.015-.054.126-.3.265-.725.265-1.176z"/><path
        fill="#000000"
        d="M32.011 47.45c-1.188 0-2.13-.224-2.827-.671s-1.199-1.078-1.507-1.892-.462-1.749-.462-2.805v-.638h3.388v.594c.014.572.062 1.045.143 1.419.08.374.223.657.429.847.205.19.499.286.88.286.396 0 .689-.099.88-.297.19-.198.322-.487.396-.869.073-.381.11-.851.11-1.408 0-.895-.132-1.587-.396-2.079-.264-.491-.792-.744-1.584-.759h-.594V36.67h.528c.792 0 1.331-.212 1.617-.638.286-.425.429-1.093.429-2.002 0-.704-.103-1.254-.308-1.65-.206-.396-.587-.594-1.144-.594-.558 0-.924.22-1.1.66s-.271 1.004-.286 1.694v.792h-3.388v-.968c0-1.041.19-1.925.572-2.651a3.913 3.913 0 0 1 1.628-1.661c.704-.381 1.562-.572 2.574-.572s1.877.184 2.596.55c.718.367 1.265.902 1.639 1.606s.561 1.577.561 2.618c0 1.042-.216 1.907-.649 2.596s-.964 1.129-1.595 1.32c.44.147.828.389 1.166.726.337.337.601.789.792 1.353.19.565.286 1.265.286 2.101 0 1.071-.154 2.021-.462 2.849-.308.829-.814 1.478-1.518 1.947s-1.635.704-2.794.704z"/></g></svg>