<svg xmlns:xlink="http://www.w3.org/1999/xlink" xmlns="http://www.w3.org/2000/svg" version="1.1" width="512"
     height="512" x="0" y="0" viewBox="0 0 64 64" style="enable-background:new 0 0 512 512" xml:space="preserve"
     class=""><g><path fill="#212121" d="M52.83 45.51 51 47.34v8.16c0 .55-.45 1-1 1H14c-.55 0-1-.45-1-1v-2.13c-.12-.03-.24-.07-.36-.12-.64-.22-1.21-.62-1.64-1.12v3.37c0 1.65 1.35 3 3 3h36c1.65 0 3-1.35 3-3V45.32c-.05.07-.11.13-.17.19zM22 17.5c-1.1 0-2-.9-2-2v-8c0-1.1.9-2 2-2s2 .9 2 2v8c0 1.1-.9 2-2 2zM42 17.5c-1.1 0-2-.9-2-2v-8c0-1.1.9-2 2-2s2 .9 2 2v8c0 1.1-.9 2-2 2z"/><path
        fill="#000000"
        d="M53 13.5v8c0 1.1-.9 2-2 2H13c-1.1 0-2-.9-2-2v-8c0-1.1.9-2 2-2h6v4c0 1.65 1.35 3 3 3s3-1.35 3-3v-4h14v4c0 1.65 1.35 3 3 3s3-1.35 3-3v-4h6c1.1 0 2 .9 2 2z"/><path
        fill="#212121"
        d="M53 25.5c0-.53-.14-1.04-.39-1.47-.47.3-1.02.47-1.61.47h-1c.55 0 1 .45 1 1v17h-5c-1.65 0-3 1.35-3 3v5H14c-.55 0-1-.45-1-1v-24c0-.55.45-1 1-1h-1c-.59 0-1.14-.17-1.61-.47-.25.43-.39.94-.39 1.47v24a3 3 0 0 0 2 2.82c.31.12.65.18 1 .18h29.17c.47 0 .92-.15 1.23-.28.34-.15.66-.36.9-.6l6.82-6.82c.24-.24.45-.56.6-.9.007-.018.009-.036.015-.054.126-.3.265-.725.265-1.176z"/><path
        fill="#000000"
        d="M31.901 47.329c-1.247 0-2.2-.228-2.86-.682s-1.111-1.092-1.353-1.914c-.242-.821-.363-1.782-.363-2.882h3.278c0 .646.04 1.188.121 1.628.08.44.227.77.44.99.212.22.531.323.957.308.425-.014.733-.176.924-.484.19-.308.308-.748.352-1.32s.066-1.247.066-2.024c0-.631-.037-1.188-.11-1.672-.074-.484-.217-.865-.429-1.144-.213-.278-.539-.418-.979-.418-.396 0-.723.14-.979.418-.257.279-.444.675-.561 1.188h-2.904l.242-10.12h8.184v2.926h-5.39l-.198 3.938c.176-.22.473-.41.891-.572s.869-.257 1.353-.286c.924-.088 1.69.088 2.299.528.608.44 1.06 1.089 1.353 1.947s.44 1.903.44 3.135c0 .939-.059 1.808-.176 2.607-.118.8-.345 1.489-.682 2.068s-.821 1.03-1.452 1.353c-.63.322-1.452.484-2.464.484z"/></g></svg>