<svg xmlns="http://www.w3.org/2000/svg" version="1.1" width="512"
     height="512" x="0" y="0" viewBox="0 0 64 64" style="enable-background:new 0 0 512 512" xml:space="preserve"
     class=""><g><path fill="#212121" d="M52.83 45.51 51 47.34v8.16c0 .55-.45 1-1 1H14c-.55 0-1-.45-1-1v-2.13c-.12-.03-.24-.07-.36-.12-.64-.22-1.21-.62-1.64-1.12v3.37c0 1.65 1.35 3 3 3h36c1.65 0 3-1.35 3-3V45.32c-.05.07-.11.13-.17.19zM22 17.5c-1.1 0-2-.9-2-2v-8c0-1.1.9-2 2-2s2 .9 2 2v8c0 1.1-.9 2-2 2zM42 17.5c-1.1 0-2-.9-2-2v-8c0-1.1.9-2 2-2s2 .9 2 2v8c0 1.1-.9 2-2 2z" opacity="1" data-original="#212121"></path><path
        fill="#000000"
        d="M53 13.5v8c0 1.1-.9 2-2 2H13c-1.1 0-2-.9-2-2v-8c0-1.1.9-2 2-2h6v4c0 1.65 1.35 3 3 3s3-1.35 3-3v-4h14v4c0 1.65 1.35 3 3 3s3-1.35 3-3v-4h6c1.1 0 2 .9 2 2z"/><path
        fill="#212121"
        d="M53 25.5c0-.53-.14-1.04-.39-1.47-.47.3-1.02.47-1.61.47h-1c.55 0 1 .45 1 1v17h-5c-1.65 0-3 1.35-3 3v5H14c-.55 0-1-.45-1-1v-24c0-.55.45-1 1-1h-1c-.59 0-1.14-.17-1.61-.47-.25.43-.39.94-.39 1.47v24a3 3 0 0 0 2 2.82c.31.12.65.18 1 .18h29.17c.47 0 .92-.15 1.23-.28.34-.15.66-.36.9-.6l6.82-6.82c.24-.24.45-.56.6-.9.007-.018.009-.036.015-.054.126-.3.265-.725.265-1.176z"
        opacity="1" data-original="#212121"></path><path fill="#000000"
                                                         d="M32.022 47.406c-1.129 0-2.05-.253-2.761-.759-.712-.506-1.232-1.199-1.562-2.079s-.495-1.884-.495-3.014v-6.336c0-1.159.135-2.2.407-3.124.271-.924.751-1.65 1.441-2.178.689-.528 1.672-.792 2.948-.792 1.1 0 1.976.172 2.629.517s1.125.854 1.419 1.529c.293.675.44 1.504.44 2.486 0 .044.003.092.011.143.007.052.011.099.011.143h-3.212c0-.748-.073-1.305-.22-1.672-.147-.366-.499-.55-1.056-.55-.352 0-.627.11-.825.33s-.338.59-.418 1.111c-.081.521-.121 1.236-.121 2.145v1.826c.19-.322.487-.572.891-.748.403-.176.869-.271 1.397-.286.938-.029 1.69.18 2.255.627.564.448.971 1.063 1.221 1.848s.374 1.668.374 2.651c0 1.203-.146 2.273-.44 3.212-.293.939-.789 1.668-1.485 2.189-.697.521-1.646.781-2.849.781zm.044-2.53c.367 0 .642-.125.825-.374s.308-.601.374-1.056.099-1.005.099-1.65c0-.616-.019-1.155-.055-1.617s-.15-.825-.341-1.089-.506-.396-.946-.396c-.206 0-.4.041-.583.121a1.66 1.66 0 0 0-.781.693v2.838c0 .44.04.854.121 1.243.08.389.223.701.429.935.205.235.491.352.858.352z"/></g></svg>