<svg xmlns="http://www.w3.org/2000/svg" version="1.1" width="512"
     height="512" x="0" y="0" viewBox="0 0 64 64" style="enable-background:new 0 0 512 512" xml:space="preserve"
     class=""><g><path fill="#212121" d="M52.83 45.51 51 47.34v8.16c0 .55-.45 1-1 1H14c-.55 0-1-.45-1-1v-2.13c-.12-.03-.24-.07-.36-.12-.64-.22-1.21-.62-1.64-1.12v3.37c0 1.65 1.35 3 3 3h36c1.65 0 3-1.35 3-3V45.32c-.05.07-.11.13-.17.19zM22 17.5c-1.1 0-2-.9-2-2v-8c0-1.1.9-2 2-2s2 .9 2 2v8c0 1.1-.9 2-2 2zM42 17.5c-1.1 0-2-.9-2-2v-8c0-1.1.9-2 2-2s2 .9 2 2v8c0 1.1-.9 2-2 2z" opacity="1" data-original="#212121"></path><path
        fill="#000000"
        d="M53 13.5v8c0 1.1-.9 2-2 2H13c-1.1 0-2-.9-2-2v-8c0-1.1.9-2 2-2h6v4c0 1.65 1.35 3 3 3s3-1.35 3-3v-4h14v4c0 1.65 1.35 3 3 3s3-1.35 3-3v-4h6c1.1 0 2 .9 2 2z"/><path
        fill="#212121"
        d="M53 25.5c0-.53-.14-1.04-.39-1.47-.47.3-1.02.47-1.61.47h-1c.55 0 1 .45 1 1v17h-5c-1.65 0-3 1.35-3 3v5H14c-.55 0-1-.45-1-1v-24c0-.55.45-1 1-1h-1c-.59 0-1.14-.17-1.61-.47-.25.43-.39.94-.39 1.47v24a3 3 0 0 0 2 2.82c.31.12.65.18 1 .18h29.17c.47 0 .92-.15 1.23-.28.34-.15.66-.36.9-.6l6.82-6.82c.24-.24.45-.56.6-.9.007-.018.009-.036.015-.054.126-.3.265-.725.265-1.176z"
        opacity="1" data-original="#212121"></path><path fill="#000000"
                                                         d="m29.03 47.175 3.74-15.224h-4.862v-2.596h8.184v2.244L32.33 47.175z"/></g></svg>