<svg xmlns="http://www.w3.org/2000/svg" version="1.1" width="512"
     height="512" x="0" y="0" viewBox="0 0 609.619 609.619" style="enable-background:new 0 0 512 512"
     xml:space="preserve" class=""><g><g fill-rule="evenodd" clip-rule="evenodd"><path d="M381.012 402.784h43.544v43.544h-43.544zM446.328 446.23c22.012-.49 59.688-3.44 87.273-21.707-27.585-18.212-65.316-21.162-87.273-21.642zM337.467 461.372l21.773-10.886v-51.861l-21.773-10.886zM598.733 108.86H10.886C4.874 108.86 0 113.734 0 119.747v35.129a10.886 10.886 0 0 0 9.58 10.799l587.847 70.955a10.883 10.883 0 0 0 12.192-10.81V119.747c0-6.013-4.874-10.887-10.886-10.887z" fill="#000000"/></g><path
        d="M598.733 258.718 10.886 187.773v410.959c0 6.012 4.874 10.886 10.886 10.886h566.075c6.012 0 10.886-4.874 10.886-10.886zM545.62 442.692C507.29 468.1 455.037 468.1 435.442 468.1h-62.747l-36.653 18.332c-4.626 2.035-9.551 3.246-14.598 3.473H87.088v10.886c0 6.012-4.874 10.886-10.886 10.886s-10.886-4.874-10.886-10.886V348.354c0-6.012 4.874-10.886 10.886-10.886s10.886 4.874 10.886 10.886v10.886h234.355c5.045.225 9.977 1.439 14.598 3.473l36.653 18.299h62.747c19.595 0 71.794 0 110.189 25.43a21.935 21.935 0 0 1 0 36.228z"
        fill="#000000"/><path
        d="M87.088 468.1h228.607v-87.088H87.088zm43.545-65.316h130.633c6.012 0 10.886 4.874 10.886 10.886s-4.874 10.886-10.886 10.886H130.633c-6.012 0-10.886-4.874-10.886-10.886s4.873-10.886 10.886-10.886z"
        fill="#000000"/><path fill-rule="evenodd"
                              d="M478.986 87.088V10.886C478.986 4.874 474.112 0 468.1 0H141.519c-6.012 0-10.886 4.874-10.886 10.886v76.202h21.772v-54.43h304.809v54.43z"
                              clip-rule="evenodd" fill="#000000"/></g></svg>