<svg xmlns="http://www.w3.org/2000/svg" version="1.1" width="512"
     height="512" x="0" y="0" viewBox="0 0 4335 4335" style="enable-background:new 0 0 512 512" xml:space="preserve"
     fill-rule="evenodd" class=""><g><path d="M749 2560v-500c-15-30-45-96-82-178-37-81-78-174-115-248 0-4-4-8-4-11-3 3-3 3-3 7l-111 245c-41 89-78 170-93 203v482zM882 2979H211v1070h671zM244 2849h599l-74-159H315zM882 4179H211v156h671zM1267 4179v156h671v-156zM1267 4049h671v-954c-4-12-4-25 0-37v-79h-671zM1300 2849h599l-74-159h-454zM1397 2560h407v-504c-26-55-114-252-177-385l-19-41c0-4-4-7-4-11 0 4-3 4-3 7l-112 245c-40 89-77 170-92 204z" fill="#000000"/><path
        d="M1690 1504c7 19 18 45 33 78l18 41c93 203 175 370 186 400 3 7 3 15 3 26v560l123 264c9 12 14 27 14 43v149c236 367 516 683 835 941l389-517C2052 2467 1882 1021 1860 704h-601c35 273 94 599 190 946l33-72c15-33 26-59 33-78 19-48 37-92 86-92 52 0 66 41 89 96zM1243 574h1340c-20-167-31-344-30-530L1204 0c2 99 9 304 39 574z"
        fill="#000000"/><path
        d="M1990 704c23 318 193 1700 1380 2680l394-523c-128-115-273-264-418-445-290-369-622-939-744-1712zM3864 2948l-424 563c-2 3-3 6-6 9-1 2-3 4-5 6l-423 562c87 65 177 126 269 184l849-1127c-57-38-149-103-260-197z"
        fill="#000000"/></g></svg>