<svg xmlns="http://www.w3.org/2000/svg" version="1.1" width="512"
     height="512" x="0" y="0" viewBox="0 0 512 512" style="enable-background:new 0 0 512 512" xml:space="preserve"
     class=""><g><path d="M147.952 432.924h216.094c-1.673-11.592-3.777-23.911-6.406-35.956H153.9c-2.476 12.132-4.423 24.432-5.948 35.956zM167.066 351.013a237.948 237.948 0 0 0-11 35.955h199.246c-3.257-13.138-7.2-25.581-11.944-35.955zM126.806 130.789 42.62 101.944C33 114.8 28.91 128.473 30.465 142.635c2.48 22.577 18.726 46.122 48.306 70.019l46.329-27.217q4.613-30.477 1.706-54.648zM146.707 442.924c-2.236 19.125-3.292 35.074-3.723 42.893h226.668c-.533-7.877-1.792-23.875-4.242-42.893zM346.949 49.978c-2.267-6.077-11.391-11.807-25.837-16.056-16.965-4.991-39.9-7.739-64.588-7.739-47.382 0-85.226 10.14-90.391 23.607 33.7 13.524 60.9 31.327 92.156 60.3 31.677-25.705 58.841-46.565 88.66-60.112z" fill="#000000"/><path
        d="M75.246 222.634a211.6 211.6 0 0 1-30.767-29.108v89.13c11.719 4.86 22.166 11.293 31.814 17.242 14.6 9 27.392 16.89 39.176 15.553V202.693l-34.6 20.324a5 5 0 0 1-5.623-.383zM71.044 308.41c-13.581-8.374-28.82-17.771-46.547-21.676-9.477 65.842.191 118.609 29.51 161.1h61.462V325.506c-14.769 1.184-29.231-7.728-44.425-17.096zm-24.795 33.166a245.892 245.892 0 0 1-.14-6.845 5 5 0 0 1 4.968-5.033h.033a5 5 0 0 1 5 4.968c.015 2.215.06 4.423.134 6.562a5 5 0 0 1-4.824 5.172h-.177a5 5 0 0 1-4.994-4.824zm23.219 74.383a5 5 0 0 1-6.677-2.327 168.014 168.014 0 0 1-14.955-52.044 5 5 0 1 1 9.92-1.26A158.066 158.066 0 0 0 71.8 409.282a5 5 0 0 1-2.332 6.677zM281.535 220.226a7.557 7.557 0 0 1-5.906-2.823l-22.292-27.632-21.36 26.934a7.554 7.554 0 0 1-5.949 2.874h-93.069l34.564 121.434h175.289l36.041-120.787zm-21.666 105.047a5 5 0 0 1-10 0v-78.446a5 5 0 0 1 10 0zM475.167 47.309c-26.744 4.139-45.275 11.078-59.649 22.3a135.682 135.682 0 0 0-23.138 48.7l74.885-25.838zM440.956 308.41c-15.193 9.368-29.662 18.282-44.425 17.1v122.322h61.462c29.319-42.489 38.987-95.256 29.51-161.1-17.727 3.907-32.966 13.304-46.547 21.678zm11.283 105.222a5 5 0 1 1-9-4.35c10.225-21.161 15.5-46.265 15.686-74.616a5 5 0 0 1 5-4.968h.033a5 5 0 0 1 4.968 5.032c-.198 29.848-5.812 56.394-16.687 78.902zM436.09 223.706a5 5 0 0 1-2.33-.577l-37.229-19.621v111.944c11.782 1.338 24.576-6.552 39.176-15.554 9.649-5.95 20.1-12.385 31.819-17.245l.156-90.019a225.823 225.823 0 0 1-28.253 29.794 5 5 0 0 1-3.339 1.278zM125 119.6c-4.32-20.85-13.4-37.586-27.21-50.047-21.065-16.6-40.775-23.136-60.173-19.9 3.212 10.2 6.057 17.274 8.192 22.584 3.725 9.271 5.861 14.588 2.753 21.168z"
        fill="#000000"/><path
        d="M380.036 192.5c-7.114-48.442.756-89.834 23.4-123.177l-50.37-11.128c-30.566 13.478-58.56 35.314-91.851 62.405a5 5 0 0 1-6.587-.241c-32.351-30.506-59.843-48.607-94.527-62.2l-49.039 10.527c24.149 26.676 32.074 67.2 23.552 120.648a5 5 0 0 1-2.405 3.524l-5.873 3.451 3.777 13.27h94.751l22.51-28.381a7.592 7.592 0 0 1 11.855-.051l23.458 29.079h99.15l3.728-12.5-2.913-1.535a5 5 0 0 1-2.616-3.691z"
        fill="#000000"/><path
        d="m469.48 102.281-79.523 27.438q-4.683 27.114-.382 58.82l45.75 24.111c44.006-40.371 54.642-74.665 34.155-110.369z"
        fill="#000000"/></g></svg>