<svg xmlns="http://www.w3.org/2000/svg" version="1.1" width="512"
     height="512" x="0" y="0" viewBox="0 0 64 64" style="enable-background:new 0 0 512 512" xml:space="preserve"
     class=""><g><g data-name="Layer 3"><path d="M10.6 52.778h10.2a2.734 2.734 0 0 0 0-5.467H10.6zM21.422 19.178c1.85 0 3.355-1.861 3.355-4.148V5h-6.711v10.03c0 2.287 1.505 4.148 3.356 4.148zM20.8 39.844H10.6v5.467h10.2a2.734 2.734 0 0 0 0-5.467zM43.2 52.778h10.2v-5.467H43.2a2.734 2.734 0 0 0 0 5.467zM53.4 39.844H43.2a2.734 2.734 0 0 0 0 5.467h10.2z" fill="#000000"/><path
        d="M42.578 21.178c-2.953 0-5.355-2.758-5.355-6.148v-2.361c-1.3 2-3.125 3.531-5.223 3.531s-3.928-1.528-5.223-3.531v2.361c0 3.39-2.4 6.148-5.355 6.148a5.521 5.521 0 0 1-5.131-4.4A16.955 16.955 0 0 1 10.6 23.27v14.574h10.2a4.716 4.716 0 0 1 2.875 8.467 4.716 4.716 0 0 1-2.875 8.467H10.6V59h42.8v-4.222H43.2a4.716 4.716 0 0 1-2.875-8.467 4.716 4.716 0 0 1 2.875-8.467h10.2V23.27a16.955 16.955 0 0 1-5.691-6.488 5.521 5.521 0 0 1-5.131 4.396z"
        fill="#000000"/><path d="M39.223 6.489v8.541c0 2.287 1.505 4.148 3.355 4.148s3.356-1.861 3.356-4.148V5h-6.711z"
                              fill="#000000"/></g></g></svg>