<svg xmlns="http://www.w3.org/2000/svg" version="1.1" width="512"
     height="512" x="0" y="0" viewBox="0 0 512 512" style="enable-background:new 0 0 512 512" xml:space="preserve"
     class=""><g><path d="M256 150c-33.091 0-60-26.909-60-60V0c19.014 0 36.519 8.774 48.003 24.053L256 40.005l11.997-15.952C279.481 8.774 296.986 0 316 0v90c0 33.091-26.909 60-60 60zM421 150c-16.538 0-30-13.462-30-30V60h30c49.629 0 91 40.371 91 90zM0 150c0-49.629 41.371-90 91-90h30v60c0 16.538-13.462 30-30 30zM241 331.719l-120-30.006v74.076l120 29.992zM271 405.783l120-29.991V301.71l-120 30.007zM241 436.717l-120-30.009v75.011L241 512zM271 436.717V512l120-30.281V406.71z" fill="#000000"/><path
        d="M361 120V60h-15v30c0 49.629-40.371 90-90 90s-90-40.371-90-90V60h-15v60c0 33.091-26.909 60-60 60v53.545l16.996 33.992L256 304.531l148.004-36.995L421 233.545V180c-33.091 0-60-26.909-60-60z"
        fill="#000000"/></g></svg>