<svg xmlns="http://www.w3.org/2000/svg" version="1.1" width="512"
     height="512" x="0" y="0" viewBox="0 0 512 512" style="enable-background:new 0 0 512 512" xml:space="preserve"
     class=""><g><path d="m238.7 380.42-23.89 86.98 28.61 40.88h25.16l28.61-40.88-23.89-86.98zM141.37 380.42l-36.41 127.86h67.64c10.113-36.832 24.889-91.088 34.98-127.86h-66.21zM304.42 380.42c10.084 36.744 24.876 91.061 34.98 127.86h67.64l-36.41-127.86h-66.21zM256 44.56c13.08 0 24.99-6.64 31.87-17.76l14.29-23.08h-92.32l14.29 23.08c6.88 11.12 18.8 17.76 31.87 17.76z" fill="#000000"/><path
        d="M368.77 110.17c-16-23.03-22.65-54.3-12.06-79.64l-23.85-19.41-19.48 31.47C300.99 62.61 279.54 74.56 256 74.56s-44.99-11.95-57.38-31.97l-19.48-31.46-23.85 19.41c10.59 25.35 3.94 56.59-12.06 79.63l-30.62 74.4 29.98 165.85h226.82l29.98-165.86zm-30.68 194.91H297.3c-16.31 0-31.02-6.97-41.3-18.09-10.28 11.12-24.99 18.09-41.3 18.09h-40.79v-30h40.79c14.5 0 26.3-11.8 26.3-26.3v-22.8h30c.01 5.7-.01 17.12 0 22.8 0 14.5 11.8 26.3 26.3 26.3 10.14-.02 30.7.01 40.79 0zm0-112.45H297.3c-16.31 0-31.02-6.97-41.3-18.09-10.28 11.12-24.99 18.09-41.3 18.09h-40.79v-30h40.79c14.5 0 26.3-11.8 26.3-26.3v-22.8h30c.01 5.7-.01 17.12 0 22.8 0 14.5 11.8 26.3 26.3 26.3 10.14-.02 30.7.01 40.79 0zM71.61 155.8c-20.152 2.747-41.336-2.832-55.45-16.23L0 169.1v22.76h35.35c26.893.144 50.355-17.26 59.12-42.05-7.323 2.956-15.101 5.024-22.86 5.99zM495.84 139.57c-20.086 19.271-52.829 20.966-78.31 10.24 8.765 24.791 32.228 42.194 59.12 42.05H512V169.1zM112.95 100.41c16.695-18.819 26.605-52.144 5.69-70.61-7.535-6.608-19.536-9.093-30.33-7.58-34.819 3.889-70.246 44.321-61.03 79.91 4.87 17.663 21.299 26.436 40.61 23.9 16.876-1.978 33.725-12.361 45.06-25.62zM476.42 116.65c8.436-8.607 10.838-20.143 9.38-32.31-2.964-29.104-33.012-59.153-62.111-62.12-45.236-4.864-52.025 41.712-29.449 72.049 5.542 7.827 12.771 14.933 20.619 20.28 17.63 12.643 46.221 17.752 61.561 2.101z"
        fill="#000000"/></g></svg>