<?xml version="1.0" encoding="UTF-8" standalone="no"?>
<!DOCTYPE svg PUBLIC "-//W3C//DTD SVG 1.1//EN" "http://www.w3.org/Graphics/SVG/1.1/DTD/svg11.dtd">
<svg width="100%" height="100%" viewBox="0 0 512 512"
     version="1.1" xmlns="http://www.w3.org/2000/svg" xml:space="preserve"
     style="fill-rule:evenodd;clip-rule:evenodd;stroke-linejoin:round;stroke-miterlimit:2;">
    <g>
        <path d="M225.977,30.023l-0,331.885l60.046,-0l0,-331.885c0,-16.581 -13.441,-30.023 -30.023,-30.023c-16.582,-0 -30.023,13.442 -30.023,30.023Z"
              style="fill-rule:nonzero;"/>
        <g>
            <g>
                <path d="M180.942,199.742l-0,-9.61l-180.936,0l-0,9.61c-0,49.884 40.584,90.468 90.468,90.468c49.884,-0.001 90.468,-40.585 90.468,-90.468Z"
                      style="fill-rule:nonzero;"/>
                <path d="M101.03,43.476l-21.111,-0l-41.843,116.656l31.87,-0l20.527,-57.23l20.528,57.23l31.871,-0l-41.842,-116.656Z"
                      style="fill-rule:nonzero;"/>
            </g>
            <g>
                <path d="M331.058,239.372l0,9.61c0,49.884 40.584,90.468 90.469,90.468c49.884,-0 90.468,-40.584 90.468,-90.468l0,-9.61l-180.937,0Z"
                      style="fill-rule:nonzero;"/>
                <path d="M432.082,92.717l-21.111,-0l-41.844,116.656l31.871,0l20.527,-57.23l20.528,57.23l31.871,0l-41.842,-116.656Z"
                      style="fill-rule:nonzero;"/>
            </g>
            <path d="M84.027,40.988l-4.672,29.635l348.859,51.765l4.162,-29.71l-348.349,-51.69Z"
                  style="fill-rule:nonzero;"/>
        </g>
        <rect x="80.876" y="466.953" width="350.248" height="45.047" style="fill-rule:nonzero;"/>
        <rect x="110.899" y="391.907" width="290.2" height="45.047" style="fill-rule:nonzero;"/>
        <g id="bullet">
            <path d="M399.875,271.732l31.888,-31.165c0.588,-0.574 0.599,-1.514 0.024,-2.101l-18.698,-19.133c-0.575,-0.588 -1.514,-0.599 -2.102,-0.024l-31.888,31.164c-0.588,0.575 -0.598,1.514 -0.024,2.102l-1.063,1.039c-0.574,-0.588 -1.514,-0.599 -2.101,-0.024l-4.252,4.155c-0.588,0.574 -0.599,1.514 -0.024,2.101l18.698,19.133c0.575,0.588 1.514,0.599 2.102,0.024l4.252,-4.155c0.587,-0.574 0.598,-1.514 0.024,-2.101l1.063,-1.039c0.574,0.587 1.514,0.598 2.101,0.024Z"
                  style="fill-rule:nonzero;"/>
            <path d="M416.253,218.318l16.621,17.007c0.574,0.588 1.514,0.599 2.102,0.024l1.062,-1.038c6.988,-6.83 10.4,-16.692 9.132,-26.381c-0.086,-0.656 -0.593,-1.175 -1.247,-1.276c-9.657,-1.49 -19.595,1.695 -26.583,8.524l-1.063,1.039c-0.588,0.574 -0.599,1.514 -0.024,2.101Z"
                  style="fill-rule:nonzero;"/>
        </g>
    </g>
</svg>
