<?xml version="1.0" encoding="UTF-8" standalone="no"?>
<!DOCTYPE svg PUBLIC "-//W3C//DTD SVG 1.1//EN" "http://www.w3.org/Graphics/SVG/1.1/DTD/svg11.dtd">
<svg xmlns:serif="http://www.serif.com/" width="100%" height="100%" viewBox="0 0 512 512"
     version="1.1" xmlns="http://www.w3.org/2000/svg" xml:space="preserve"
     style="fill-rule:evenodd;clip-rule:evenodd;stroke-linejoin:round;stroke-miterlimit:2;">
    <g>
        <path d="M225.977,30.023l-0,331.885l60.046,-0l0,-331.885c0,-16.581 -13.441,-30.023 -30.023,-30.023c-16.582,-0 -30.023,13.442 -30.023,30.023Z"
              style="fill-rule:nonzero;"/>
        <g>
            <g>
                <path d="M180.936,165.532l-0,-9.61l-180.936,0l-0,9.61c-0,49.884 40.584,90.468 90.468,90.468c49.884,-0.001 90.468,-40.585 90.468,-90.468Z"
                      style="fill-rule:nonzero;"/>
                <path d="M101.024,9.266l-21.111,-0l-41.843,116.656l31.87,0l20.527,-57.23l20.528,57.23l31.871,0l-41.842,-116.656Z"
                      style="fill-rule:nonzero;"/>
            </g>
            <g>
                <path d="M331.063,273.405l0,9.61c0,49.884 40.584,90.468 90.469,90.468c49.884,-0 90.468,-40.584 90.468,-90.468l0,-9.61l-180.937,0Z"
                      style="fill-rule:nonzero;"/>
                <path d="M432.087,126.75l-21.111,-0l-41.844,116.656l31.871,-0l20.527,-57.23l20.528,57.23l31.871,-0l-41.842,-116.656Z"
                      style="fill-rule:nonzero;"/>
            </g>
            <path d="M95.418,7.892l-10.421,28.133l331.812,119.511l9.937,-28.307l-331.328,-119.337Z"
                  style="fill-rule:nonzero;"/>
        </g>
        <rect x="80.876" y="466.953" width="350.248" height="45.047" style="fill-rule:nonzero;"/>
        <rect x="110.899" y="391.907" width="290.2" height="45.047" style="fill-rule:nonzero;"/>
        <g id="bullet">
            <path d="M422.679,310.73l31.887,-31.164c0.588,-0.575 0.599,-1.514 0.025,-2.102l-18.699,-19.132c-0.575,-0.588 -1.514,-0.599 -2.102,-0.024l-31.888,31.164c-0.587,0.574 -0.598,1.514 -0.024,2.102l-1.062,1.038c-0.575,-0.588 -1.514,-0.598 -2.102,-0.024l-4.252,4.156c-0.588,0.574 -0.598,1.513 -0.024,2.101l18.699,19.133c0.574,0.588 1.514,0.598 2.101,0.024l4.252,-4.155c0.588,-0.575 0.598,-1.514 0.024,-2.102l1.063,-1.039c0.574,0.588 1.514,0.599 2.102,0.024Z"
                  style="fill-rule:nonzero;"/>
            <path d="M439.056,257.317l16.621,17.007c0.575,0.588 1.514,0.598 2.102,0.024l1.063,-1.039c6.987,-6.829 10.4,-16.691 9.131,-26.38c-0.086,-0.656 -0.593,-1.175 -1.247,-1.276c-9.657,-1.491 -19.595,1.694 -26.583,8.524l-1.063,1.038c-0.587,0.575 -0.598,1.514 -0.024,2.102Z"
                  style="fill-rule:nonzero;"/>
        </g>
        <g id="bullet1" serif:id="bullet">
            <path d="M432.749,302.504l-18.699,-40.477c-0.345,-0.746 -1.227,-1.071 -1.973,-0.726l-24.286,11.22c-0.746,0.344 -1.071,1.226 -0.726,1.972l18.699,40.477c0.345,0.746 1.227,1.071 1.973,0.726l0.623,1.349c-0.746,0.345 -1.071,1.226 -0.726,1.972l2.493,5.397c0.345,0.747 1.227,1.071 1.973,0.726l24.286,-11.219c0.746,-0.345 1.071,-1.227 0.726,-1.973l-2.493,-5.396c-0.345,-0.746 -1.227,-1.071 -1.973,-0.726l-0.623,-1.349c0.746,-0.345 1.071,-1.227 0.726,-1.973Z"
                  style="fill-rule:nonzero;"/>
            <path d="M387.894,269.199l21.587,-9.973c0.747,-0.345 1.071,-1.226 0.726,-1.972l-0.623,-1.349c-4.098,-8.87 -12.25,-15.386 -21.805,-17.432c-0.647,-0.138 -1.305,0.166 -1.619,0.748c-4.636,8.602 -4.96,19.033 -0.862,27.903l0.623,1.349c0.345,0.746 1.226,1.071 1.973,0.726Z"
                  style="fill-rule:nonzero;"/>
        </g>
        <g id="bullet2" serif:id="bullet">
            <path d="M504.926,301.854l-10.67,-36.615c-0.196,-0.675 -0.901,-1.061 -1.576,-0.865l-21.969,6.402c-0.675,0.197 -1.061,0.901 -0.864,1.576l10.669,36.615c0.197,0.675 0.901,1.061 1.576,0.864l0.356,1.221c-0.675,0.196 -1.062,0.901 -0.865,1.576l1.422,4.882c0.197,0.675 0.902,1.061 1.577,0.865l21.968,-6.402c0.675,-0.197 1.062,-0.901 0.865,-1.576l-1.422,-4.882c-0.197,-0.675 -0.902,-1.061 -1.577,-0.865l-0.355,-1.22c0.675,-0.197 1.061,-0.901 0.865,-1.576Z"
                  style="fill-rule:nonzero;"/>
            <path d="M471.221,267.98l19.527,-5.691c0.675,-0.196 1.062,-0.901 0.865,-1.576l-0.355,-1.22c-2.338,-8.024 -8.406,-14.571 -16.227,-17.517c-0.53,-0.199 -1.125,-0.026 -1.465,0.427c-5.015,6.686 -6.615,15.468 -4.277,23.491l0.355,1.221c0.197,0.675 0.902,1.061 1.577,0.865Z"
                  style="fill-rule:nonzero;"/>
        </g>
        <g id="bullet3" serif:id="bullet">
            <path d="M388.697,284.071l-34.534,-28.204c-0.637,-0.519 -1.571,-0.425 -2.091,0.212l-16.922,20.72c-0.52,0.637 -0.426,1.572 0.211,2.091l34.534,28.204c0.637,0.519 1.572,0.425 2.091,-0.211l1.152,0.94c-0.52,0.636 -0.426,1.571 0.211,2.091l4.604,3.76c0.637,0.52 1.572,0.426 2.091,-0.211l16.922,-20.721c0.52,-0.636 0.426,-1.571 -0.211,-2.091l-4.604,-3.76c-0.637,-0.52 -1.571,-0.425 -2.091,0.211l-1.151,-0.94c0.519,-0.637 0.425,-1.571 -0.212,-2.091Z"
                  style="fill-rule:nonzero;"/>
            <path d="M333.788,273.768l15.041,-18.418c0.52,-0.637 0.426,-1.572 -0.211,-2.091l-1.151,-0.94c-7.567,-6.181 -17.749,-8.469 -27.236,-6.125c-0.642,0.159 -1.101,0.721 -1.128,1.382c-0.402,9.763 3.875,19.283 11.442,25.463l1.152,0.94c0.636,0.52 1.571,0.426 2.091,-0.211Z"
                  style="fill-rule:nonzero;"/>
        </g>
    </g>
</svg>
