<?xml version="1.0" encoding="UTF-8" standalone="no"?>
<!DOCTYPE svg PUBLIC "-//W3C//DTD SVG 1.1//EN" "http://www.w3.org/Graphics/SVG/1.1/DTD/svg11.dtd">
<svg xmlns:serif="http://www.serif.com/" width="100%" height="100%" viewBox="0 0 512 512"
     version="1.1" xmlns="http://www.w3.org/2000/svg" xml:space="preserve"
     style="fill-rule:evenodd;clip-rule:evenodd;stroke-linejoin:round;stroke-miterlimit:2;">
    <g>
        <path d="M225.977,30.023l-0,331.885l60.046,-0l0,-331.885c0,-16.581 -13.441,-30.023 -30.023,-30.023c-16.582,-0 -30.023,13.442 -30.023,30.023Z"
              style="fill-rule:nonzero;"/>
        <g>
            <g>
                <path d="M180.936,183.507l-0,-9.61l-180.936,-0l-0,9.61c-0,49.883 40.584,90.467 90.468,90.467c49.884,-0.001 90.468,-40.585 90.468,-90.467Z"
                      style="fill-rule:nonzero;"/>
                <path d="M101.024,27.24l-21.111,0l-41.843,116.656l31.87,0l20.527,-57.229l20.528,57.229l31.871,0l-41.842,-116.656Z"
                      style="fill-rule:nonzero;"/>
            </g>
            <g>
                <path d="M331.063,255.797l0,9.61c0,49.883 40.584,90.468 90.469,90.468c49.884,-0 90.468,-40.585 90.468,-90.468l0,-9.61l-180.937,-0Z"
                      style="fill-rule:nonzero;"/>
                <path d="M432.087,109.141l-21.111,0l-41.844,116.657l31.871,-0l20.527,-57.23l20.528,57.23l31.871,-0l-41.842,-116.657Z"
                      style="fill-rule:nonzero;"/>
            </g>
            <path d="M88.603,25.031l-7.432,29.065l342.462,84.274l6.932,-29.189l-341.962,-84.15Z"
                  style="fill-rule:nonzero;"/>
        </g>
        <rect x="80.876" y="466.953" width="350.248" height="45.047" style="fill-rule:nonzero;"/>
        <rect x="110.899" y="391.907" width="290.2" height="45.047" style="fill-rule:nonzero;"/>
        <g id="bullet">
            <path d="M438.917,290.478l31.888,-31.165c0.587,-0.574 0.598,-1.514 0.024,-2.102l-18.699,-19.132c-0.574,-0.588 -1.514,-0.599 -2.102,-0.024l-31.887,31.164c-0.588,0.575 -0.599,1.514 -0.024,2.102l-1.063,1.038c-0.575,-0.587 -1.514,-0.598 -2.102,-0.024l-4.252,4.156c-0.588,0.574 -0.598,1.514 -0.024,2.101l18.699,19.133c0.574,0.588 1.514,0.598 2.102,0.024l4.251,-4.155c0.588,-0.574 0.599,-1.514 0.024,-2.102l1.063,-1.038c0.575,0.587 1.514,0.598 2.102,0.024Z"
                  style="fill-rule:nonzero;"/>
            <path d="M455.294,237.064l16.621,17.007c0.575,0.588 1.514,0.599 2.102,0.024l1.063,-1.039c6.988,-6.829 10.4,-16.691 9.131,-26.38c-0.086,-0.656 -0.593,-1.175 -1.246,-1.276c-9.658,-1.49 -19.596,1.695 -26.584,8.524l-1.063,1.039c-0.587,0.574 -0.598,1.513 -0.024,2.101Z"
                  style="fill-rule:nonzero;"/>
        </g>
        <g id="bullet1" serif:id="bullet">
            <path d="M405.752,282.251l-18.7,-40.477c-0.344,-0.746 -1.226,-1.071 -1.972,-0.726l-24.286,11.22c-0.747,0.344 -1.071,1.226 -0.726,1.972l18.699,40.477c0.345,0.746 1.226,1.071 1.972,0.726l0.624,1.349c-0.747,0.345 -1.071,1.227 -0.726,1.973l2.493,5.397c0.345,0.746 1.226,1.07 1.972,0.726l24.287,-11.22c0.746,-0.345 1.07,-1.226 0.726,-1.972l-2.493,-5.397c-0.345,-0.746 -1.227,-1.071 -1.973,-0.726l-0.623,-1.349c0.746,-0.345 1.07,-1.227 0.726,-1.973Z"
                  style="fill-rule:nonzero;"/>
            <path d="M360.896,248.946l21.588,-9.973c0.746,-0.344 1.071,-1.226 0.726,-1.972l-0.623,-1.349c-4.098,-8.87 -12.25,-15.385 -21.805,-17.432c-0.647,-0.138 -1.306,0.166 -1.62,0.748c-4.636,8.602 -4.959,19.033 -0.862,27.903l0.624,1.349c0.345,0.746 1.226,1.071 1.972,0.726Z"
                  style="fill-rule:nonzero;"/>
        </g>
    </g>
</svg>
