<?xml version="1.0" encoding="UTF-8" standalone="no"?>
<!DOCTYPE svg PUBLIC "-//W3C//DTD SVG 1.1//EN" "http://www.w3.org/Graphics/SVG/1.1/DTD/svg11.dtd">
<svg xmlns:serif="http://www.serif.com/" width="100%" height="100%" viewBox="0 0 512 512"
     version="1.1" xmlns="http://www.w3.org/2000/svg" xml:space="preserve"
     style="fill-rule:evenodd;clip-rule:evenodd;stroke-linejoin:round;stroke-miterlimit:2;">
    <g>
        <path d="M225.977,30.023l-0,331.885l60.046,-0l0,-331.885c0,-16.581 -13.441,-30.023 -30.023,-30.023c-16.582,-0 -30.023,13.442 -30.023,30.023Z"
              style="fill-rule:nonzero;"/>
        <g>
            <g>
                <path d="M180.936,156.266l-0,-9.609l-180.936,-0l-0,9.609c-0,49.884 40.584,90.468 90.468,90.468c49.884,-0.001 90.468,-40.585 90.468,-90.468Z"
                      style="fill-rule:nonzero;"/>
                <path d="M101.024,0l-21.111,0l-41.843,116.656l31.87,0l20.527,-57.229l20.528,57.229l31.871,0l-41.842,-116.656Z"
                      style="fill-rule:nonzero;"/>
            </g>
            <g>
                <path d="M354.809,267.649l-3.422,8.98c-17.761,46.615 5.713,98.989 52.328,116.751c46.615,17.762 98.99,-5.712 116.751,-52.327l3.422,-8.98l-169.079,-64.424Z"
                      style="fill-rule:nonzero;"/>
                <path d="M432.138,145.591l-21.11,-0l-41.844,116.656l31.87,0l20.528,-57.229l20.527,57.229l31.871,0l-41.842,-116.656Z"
                      style="fill-rule:nonzero;"/>
            </g>
            <path d="M105.479,-10.92l-13.735,26.672l314.992,158.626l13.275,-26.904l-314.532,-158.394Z"
                  style="fill-rule:nonzero;"/>
        </g>
        <rect x="80.876" y="466.953" width="350.248" height="45.047" style="fill-rule:nonzero;"/>
        <rect x="110.899" y="391.907" width="290.2" height="45.047" style="fill-rule:nonzero;"/>
        <g id="bullet">
            <path d="M485.875,350.705l10.991,-43.212c0.202,-0.797 -0.278,-1.604 -1.074,-1.807l-25.927,-6.594c-0.797,-0.203 -1.604,0.277 -1.807,1.074l-10.99,43.212c-0.203,0.796 0.277,1.604 1.074,1.806l-0.367,1.441c-0.796,-0.203 -1.604,0.277 -1.806,1.074l-1.466,5.761c-0.202,0.797 0.278,1.604 1.074,1.807l25.927,6.594c0.797,0.203 1.604,-0.277 1.807,-1.074l1.465,-5.761c0.203,-0.797 -0.277,-1.604 -1.074,-1.807l0.367,-1.44c0.796,0.202 1.604,-0.278 1.806,-1.074Z"
                  style="fill-rule:nonzero;"/>
            <path d="M472.038,296.578l23.046,5.861c0.797,0.203 1.604,-0.277 1.807,-1.074l0.366,-1.44c2.408,-9.469 0.185,-19.665 -5.945,-27.276c-0.415,-0.515 -1.118,-0.694 -1.728,-0.44c-9.021,3.758 -15.846,11.652 -18.254,21.122l-0.366,1.44c-0.203,0.796 0.277,1.604 1.074,1.807Z"
                  style="fill-rule:nonzero;"/>
        </g>
        <g id="bullet1" serif:id="bullet">
            <path d="M488.883,331.943l-18.699,-40.477c-0.345,-0.747 -1.227,-1.071 -1.973,-0.726l-24.286,11.219c-0.746,0.345 -1.071,1.227 -0.726,1.973l18.699,40.477c0.345,0.746 1.227,1.07 1.973,0.726l0.623,1.349c-0.746,0.345 -1.071,1.226 -0.726,1.972l2.493,5.397c0.345,0.746 1.227,1.071 1.973,0.726l24.286,-11.219c0.746,-0.345 1.07,-1.227 0.726,-1.973l-2.493,-5.397c-0.345,-0.746 -1.227,-1.07 -1.973,-0.725l-0.623,-1.35c0.746,-0.344 1.07,-1.226 0.726,-1.972Z"
                  style="fill-rule:nonzero;"/>
            <path d="M444.028,298.638l21.587,-9.973c0.747,-0.345 1.071,-1.226 0.726,-1.973l-0.623,-1.349c-4.098,-8.869 -12.25,-15.385 -21.805,-17.431c-0.647,-0.138 -1.305,0.166 -1.619,0.748c-4.636,8.602 -4.96,19.033 -0.862,27.903l0.623,1.349c0.345,0.746 1.226,1.071 1.973,0.726Z"
                  style="fill-rule:nonzero;"/>
        </g>
        <g id="bullet2" serif:id="bullet">
            <path d="M417.456,331.39l27.187,-35.34c0.502,-0.651 0.38,-1.583 -0.271,-2.084l-21.204,-16.312c-0.652,-0.501 -1.583,-0.38 -2.085,0.272l-27.187,35.34c-0.501,0.651 -0.379,1.583 0.272,2.084l-0.906,1.178c-0.652,-0.501 -1.583,-0.38 -2.084,0.272l-3.625,4.712c-0.501,0.651 -0.38,1.583 0.272,2.084l21.204,16.312c0.651,0.501 1.583,0.38 2.084,-0.272l3.625,-4.712c0.501,-0.651 0.379,-1.583 -0.272,-2.084l0.906,-1.178c0.651,0.501 1.583,0.38 2.084,-0.272Z"
                  style="fill-rule:nonzero;"/>
            <path d="M426.158,276.204l18.848,14.5c0.651,0.501 1.583,0.38 2.084,-0.272l0.906,-1.178c5.958,-7.744 7.949,-17.988 5.33,-27.402c-0.178,-0.637 -0.753,-1.08 -1.414,-1.088c-9.771,-0.117 -19.162,4.434 -25.12,12.178l-0.906,1.178c-0.501,0.652 -0.38,1.583 0.272,2.084Z"
                  style="fill-rule:nonzero;"/>
        </g>
        <g id="bullet3" serif:id="bullet">
            <path d="M410.245,329.072l11.606,-43.051c0.214,-0.793 -0.255,-1.607 -1.048,-1.821l-25.831,-6.964c-0.793,-0.214 -1.607,0.255 -1.821,1.048l-11.606,43.051c-0.214,0.793 0.254,1.608 1.048,1.821l-0.387,1.435c-0.794,-0.214 -1.608,0.255 -1.822,1.049l-1.547,5.74c-0.214,0.793 0.254,1.608 1.048,1.821l25.83,6.964c0.794,0.214 1.608,-0.255 1.822,-1.048l1.547,-5.74c0.214,-0.793 -0.254,-1.608 -1.048,-1.822l0.387,-1.435c0.794,0.214 1.608,-0.254 1.822,-1.048Z"
                  style="fill-rule:nonzero;"/>
            <path d="M397.181,274.753l22.96,6.19c0.794,0.214 1.608,-0.255 1.822,-1.048l0.387,-1.435c2.543,-9.434 0.465,-19.661 -5.555,-27.358c-0.407,-0.521 -1.108,-0.71 -1.722,-0.464c-9.073,3.628 -16.01,11.424 -18.553,20.858l-0.387,1.435c-0.214,0.794 0.254,1.608 1.048,1.822Z"
                  style="fill-rule:nonzero;"/>
        </g>
        <g id="bullet4" serif:id="bullet">
            <path d="M494.961,353.447l18.351,-33.432c0.338,-0.617 0.113,-1.388 -0.503,-1.726l-20.059,-11.011c-0.617,-0.338 -1.388,-0.113 -1.726,0.503l-18.351,33.432c-0.338,0.616 -0.114,1.388 0.503,1.726l-0.612,1.114c-0.616,-0.338 -1.388,-0.113 -1.726,0.503l-2.447,4.458c-0.338,0.616 -0.113,1.387 0.503,1.726l20.059,11.01c0.616,0.338 1.388,0.114 1.726,-0.503l2.447,-4.457c0.338,-0.616 0.113,-1.388 -0.503,-1.726l0.612,-1.114c0.616,0.338 1.388,0.113 1.726,-0.503Z"
                  style="fill-rule:nonzero;"/>
            <path d="M495.087,305.661l17.831,9.787c0.616,0.339 1.388,0.114 1.726,-0.502l0.611,-1.115c4.022,-7.326 4.363,-16.246 0.916,-23.86c-0.234,-0.515 -0.777,-0.814 -1.337,-0.734c-8.275,1.181 -15.617,6.258 -19.638,13.584l-0.612,1.114c-0.338,0.616 -0.113,1.388 0.503,1.726Z"
                  style="fill-rule:nonzero;"/>
        </g>
        <g id="bullet5" serif:id="bullet">
            <path d="M396.716,295.899l-18.23,-40.69c-0.336,-0.751 -1.214,-1.085 -1.964,-0.749l-24.414,10.938c-0.751,0.336 -1.085,1.214 -0.749,1.964l18.229,40.69c0.337,0.75 1.214,1.085 1.964,0.749l0.608,1.356c-0.75,0.336 -1.085,1.214 -0.749,1.964l2.431,5.426c0.336,0.75 1.214,1.084 1.964,0.748l24.414,-10.938c0.75,-0.336 1.085,-1.214 0.749,-1.963l-2.43,-5.426c-0.337,-0.75 -1.214,-1.084 -1.964,-0.748l-0.608,-1.357c0.75,-0.336 1.085,-1.214 0.749,-1.964Z"
                  style="fill-rule:nonzero;"/>
            <path d="M352.249,262.078l21.701,-9.723c0.751,-0.336 1.085,-1.214 0.749,-1.964l-0.608,-1.356c-3.994,-8.917 -12.071,-15.526 -21.602,-17.683c-0.645,-0.145 -1.307,0.151 -1.627,0.73c-4.735,8.547 -5.18,18.974 -1.185,27.891l0.608,1.356c0.336,0.75 1.214,1.085 1.964,0.749Z"
                  style="fill-rule:nonzero;"/>
        </g>
    </g>
</svg>
