<?xml version="1.0" encoding="iso-8859-1"?>
<!-- Generator: Adobe Illustrator 19.0.0, SVG Export Plug-In . SVG Version: 6.00 Build 0)  -->
<svg version="1.1" id="Layer_1" xmlns="http://www.w3.org/2000/svg" x="0px" y="0px"
	 viewBox="0 0 503.607 503.607" style="enable-background:new 0 0 503.607 503.607;" xml:space="preserve">
		<g>
			<path d="M335.738,436.459V184.656c0-4.642-3.752-8.393-8.393-8.393H176.263c-4.642,0-8.393,3.752-8.393,8.393v251.803
				c0,4.642,3.752,8.393,8.393,8.393v8.393c-4.642,0-8.393,3.752-8.393,8.393v33.574c0,4.642,3.752,8.393,8.393,8.393h151.082
				c4.642,0,8.393-3.752,8.393-8.393V461.64c0-4.642-3.752-8.393-8.393-8.393v-8.393
				C331.986,444.853,335.738,441.101,335.738,436.459z"/>
			<path d="M184.656,159.478h134.295c4.642,0,8.393-3.752,8.393-8.393v-8.393c0-55.178-26.364-107.889-70.505-141.01
				c-2.988-2.241-7.084-2.241-10.072,0c-44.141,33.121-70.505,85.831-70.505,141.01v8.393
				C176.263,155.726,180.014,159.478,184.656,159.478z"/>
		</g>
</svg>
