<svg xmlns="http://www.w3.org/2000/svg" version="1.1" width="512"
     height="512" x="0" y="0" viewBox="0 0 43.349 43.349" style="enable-background:new 0 0 512 512" xml:space="preserve"
     fill-rule="evenodd" class=""><g><g fill-rule="nonzero"><path d="M8.295 11.108c-.004-.098-.014-.349-.036-.711H2.884a39.487 39.487 0 0 0-.039.757v4.45l-1.13 2.203-.001.003-.002.002-.001.002v.001l-.002.003-.002.003-.002.003-.001.003-.002.002-.001.003-.002.003-.001.003-.002.003-.002.003v.003l-.002.003-.002.003v.002l-.001.001-.001.003-.002.003v.001l-.001.002-.001.003-.002.003v.003l-.003.006-.001.004-.001.003-.001.002v.001l-.001.003-.001.004-.001.001v.002l-.001.003-.001.003v.001l-.001.002-.002.007-.002.01-.001.003v.003l-.001.003-.001.004-.001.005v.002l-.001.003v.004l-.001.003-.001.007v.006l-.001.003v.01L1.655 18v.904h7.953v-.89a.377.377 0 0 0-.004-.062v-.002l-.002-.007v-.002l-.001-.006v-.002L9.6 17.93l-.001-.003v-.003l-.001-.003-.001-.002v-.003l-.001-.003-.001-.003a.378.378 0 0 0-.046-.104l-1.187-2.314a.38.38 0 0 0-.065-.107v-4.232c0-.016-.001-.03-.003-.046zM8.21 9.636c-.105-1.448-.323-3.695-.752-5.667C7.1 2.327 6.588.857 5.858.13a.38.38 0 0 0-.551-.023c-.742.72-1.26 2.203-1.622 3.862-.429 1.972-.647 4.219-.752 5.667zm-6.554 10.03v19.862c0 .21.17.38.38.38H2.8v.96h-.763a.38.38 0 0 0-.38.38v1.721c0 .21.17.38.38.38H9.23c.21 0 .38-.17.38-.38v-1.72a.38.38 0 0 0-.38-.38h-.763v-.96h.763c.21 0 .38-.171.38-.381V19.665zM18.99 11.108a39.73 39.73 0 0 0-.036-.711h-5.376a39.487 39.487 0 0 0-.038.757v4.45l-1.13 2.203-.002.003-.001.002-.001.002-.001.001-.002.003-.001.003-.002.003-.002.003-.001.002-.002.003-.001.003-.002.003-.001.003-.002.003v.002l-.001.001-.002.003-.001.003v.002l-.001.001-.002.003-.001.003v.001l-.001.002-.002.003v.003l-.002.003-.002.006-.002.004v.003l-.001.002v.001l-.002.003v.004l-.001.001v.002l-.002.003v.004l-.001.002-.002.007-.003.01v.003l-.001.003v.003l-.001.004-.001.005v.002l-.001.003v.004l-.001.003-.001.007v.003l-.001.003v.003l-.001.008v.002L12.35 18v.904h7.953v-.89a.366.366 0 0 0-.005-.062v-.002l-.001-.007v-.002l-.002-.006v-.005l-.001-.003-.001-.003v-.003l-.001-.002-.001-.003v-.003l-.001-.003a.378.378 0 0 0-.047-.104l-1.186-2.314a.382.382 0 0 0-.065-.107v-4.232a.4.4 0 0 0-.003-.046zm-.086-1.472c-.104-1.448-.322-3.695-.752-5.667-.357-1.642-.869-3.112-1.599-3.839a.38.38 0 0 0-.551-.023c-.742.72-1.26 2.203-1.622 3.862-.43 1.972-.647 4.219-.752 5.667zm-6.553 10.03v19.862c0 .21.17.38.38.38h.763v.96h-.763a.38.38 0 0 0-.38.38v1.721c0 .21.17.38.38.38h7.192c.21 0 .38-.17.38-.38v-1.72a.38.38 0 0 0-.38-.38h-.762v-.96h.763c.21 0 .38-.171.38-.381V19.665zM29.685 11.108c-.004-.098-.015-.349-.036-.711h-5.376a38.871 38.871 0 0 0-.038.757v4.45l-1.13 2.203-.002.003-.002.002v.002l-.001.001-.002.003-.002.003-.001.003-.002.003-.001.002-.002.003-.002.003-.001.003-.002.003-.001.003-.001.002v.001l-.002.003-.001.003-.001.002v.001l-.002.003-.001.003v.001l-.002.002v.003l-.002.003-.001.003-.003.006v.004l-.002.003v.003l-.002.003-.001.004v.001l-.001.002-.001.003v.003l-.001.001v.002l-.003.007-.002.01v.003l-.001.003v.003h-.001v.004l-.002.005v.005l-.001.003v.004l-.001.007v.003l-.001.003v.003l-.001.008v.002a.57.57 0 0 0-.001.019v.904h7.953v-.89a.366.366 0 0 0-.005-.062v-.002l-.001-.007v-.002l-.002-.006v-.002l-.001-.003v-.003l-.001-.003v-.003l-.002-.002v-.003l-.001-.003v-.003a.375.375 0 0 0-.047-.104l-1.187-2.314a.38.38 0 0 0-.065-.107v-4.232c0-.016 0-.03-.002-.046zm-.086-1.472c-.104-1.448-.323-3.695-.752-5.667-.358-1.642-.87-3.112-1.6-3.839a.38.38 0 0 0-.551-.023h.001c-.742.72-1.26 2.203-1.622 3.862-.43 1.972-.648 4.219-.752 5.667zm-6.554 10.03v19.862c0 .21.17.38.38.38h.763v.96h-.762a.38.38 0 0 0-.38.38v1.721c0 .21.17.38.38.38h7.192c.21 0 .38-.17.38-.38v-1.72a.38.38 0 0 0-.38-.38h-.762v-.96h.762c.21 0 .38-.171.38-.381V19.665zM40.38 11.108c-.005-.098-.015-.349-.036-.711h-5.376a38.871 38.871 0 0 0-.039.757v4.45l-1.13 2.203-.001.003-.002.002v.002l-.002.001-.001.003-.002.003-.002.003-.001.003-.002.002-.001.003-.002.003-.001.003-.002.003-.001.003-.001.002v.001l-.002.003-.002.003v.003l-.002.003-.002.003v.003l-.002.003-.001.003-.002.003-.002.006-.001.004-.001.003v.002l-.001.001-.001.003-.001.004v.001l-.001.002-.001.003-.001.003v.001l-.001.002-.002.007-.002.01-.001.003v.003l-.001.003-.001.004v.005l-.001.002v.003l-.001.003v.004l-.002.007V17.972h-.001v.01L33.74 18v.904h7.953v-.89a.366.366 0 0 0-.004-.062v-.002l-.002-.007v-.002l-.001-.006v-.002l-.001-.003v-.003l-.002-.003v-.005l-.002-.003v-.003l-.001-.003a.375.375 0 0 0-.046-.104l-1.187-2.314a.38.38 0 0 0-.065-.107v-4.232c0-.016 0-.03-.003-.046zm-.086-1.472c-.105-1.448-.323-3.695-.752-5.667-.358-1.642-.87-3.112-1.6-3.839a.38.38 0 0 0-.551-.023h.001c-.742.72-1.261 2.203-1.622 3.862-.43 1.972-.648 4.219-.753 5.667zm-6.554 10.03v19.862c0 .21.17.38.38.38h.763v.96h-.763a.38.38 0 0 0-.38.38v1.721c0 .21.17.38.38.38h7.193c.21 0 .38-.17.38-.38v-1.72a.38.38 0 0 0-.38-.38h-.763v-.96h.763c.21 0 .38-.171.38-.381V19.665z" fill="#000000"/></g></g></svg>