<?xml version='1.0' encoding='iso-8859-1'?>
<!DOCTYPE svg PUBLIC '-//W3C//DTD SVG 1.1//EN' 'http://www.w3.org/Graphics/SVG/1.1/DTD/svg11.dtd'>
<svg version="1.1" xmlns="http://www.w3.org/2000/svg" viewBox="0 0 293.246 293.246"
	 enable-background="new 0 0 293.246 293.246">
	<g>
		<path
			d="m258.76,12.776c-4.331-14.758-42.869-16.443-76.608-6.542l15.682,53.442c33.739-9.9 65.256-32.142 60.926-46.9z"/>
		<path
			d="m42.999,114.476l138.014-40.499c4.328-1.27 6.807-5.808 5.537-10.136l-16.143-55.014c-1.045-3.561-4.301-5.87-7.833-5.869-0.761,0-1.536,0.107-2.303,0.332l-138.014,40.499c-1.555-5.3-7.111-8.336-12.411-6.78-5.3,1.556-8.335,7.112-6.78,12.411l20.742,70.687c1.279,4.36 5.267,7.188 9.592,7.188 0.932,0 1.88-0.132 2.819-0.407 5.3-1.557 8.335-7.114 6.78-12.412zm11.225-66.519l91.156-26.749c3.177-0.938 6.514,0.888 7.446,4.067 0.934,3.18-0.888,6.514-4.067,7.446l-91.156,26.75c-0.563,0.166-1.133,0.245-1.692,0.245-2.595,0-4.986-1.696-5.754-4.313-0.934-3.179 0.887-6.513 4.067-7.446z"/>
		<path
			d="m117.651,154.073c-32.196-14.135-70.633-17.393-76.816-3.31-6.182,14.082 22.231,40.173 54.427,54.308l22.389-50.998z"/>
		<path
			d="m284.605,206.634c-5.055-2.219-10.956,0.08-13.176,5.137l-131.701-57.819c-1.068-0.469-2.182-0.691-3.279-0.691-3.143,0-6.138,1.824-7.482,4.886l-23.047,52.497c-1.813,4.13 0.065,8.948 4.195,10.761l131.701,57.819v0.001c-2.221,5.057 0.079,10.956 5.137,13.176 1.308,0.574 2.672,0.847 4.015,0.847 3.848,0 7.516-2.234 9.161-5.983l29.612-67.453c2.221-5.059-0.079-10.958-5.136-13.178zm-47.829,16.677c-0.806,0-1.624-0.163-2.409-0.508l-86.986-38.188c-3.034-1.332-4.414-4.872-3.082-7.906 1.332-3.033 4.871-4.414 7.906-3.082l86.986,38.188c3.034,1.332 4.414,4.872 3.082,7.906-0.987,2.249-3.188,3.59-5.497,3.59z"/>
	</g>
</svg>
