<svg height="570pt" viewBox="-105 -17 570 570.66773" width="570pt" xmlns="http://www.w3.org/2000/svg">
	<path
		d="m174.109375 0-4.78125 15.550781c-15.980469 51.902344-24.4375 105.820313-25.109375 160.121094h59.785156c-.671875-54.300781-9.132812-108.21875-25.113281-160.121094zm0 0"/>
	<path d="m136.992188 215.597656h74.238281l-4.988281-19.960937h-64.261719zm0 0"/>
	<path d="m134.183594 235.5625h79.851562v219.585938h-79.851562zm0 0"/>
	<path d="m154.148438 475.113281h39.921874v19.960938h-39.921874zm0 0"/>
	<path d="m134.183594 515.039062h79.851562v19.960938h-79.851562zm0 0"/>
	<path d="m276.730469 215.597656h74.242187l-4.992187-19.960937h-64.261719zm0 0"/>
	<path
		d="m313.847656 0-4.78125 15.550781c-15.980468 51.902344-24.4375 105.820313-25.109375 160.121094h59.835938c-.6875-54.300781-9.164063-108.226563-25.164063-160.121094zm0 0"/>
	<path d="m273.921875 515.039062h79.851563v19.960938h-79.851563zm0 0"/>
	<path d="m273.921875 235.5625h79.851563v219.585938h-79.851563zm0 0"/>
	<path d="m293.886719 475.113281h39.925781v19.960938h-39.925781zm0 0"/>
	<path
		d="m34.371094 0-4.78125 15.550781c-15.980469 51.902344-24.4375 105.820313-25.109375 160.121094h59.832031c-.683594-54.300781-9.160156-108.226563-25.160156-160.121094zm0 0"/>
	<path d="m-2.746094 215.597656h74.238282l-4.988282-19.960937h-64.261718zm0 0"/>
	<path d="m-5.554688 515.039062h79.851563v19.960938h-79.851563zm0 0"/>
	<path d="m-5.554688 235.5625h79.851563v219.585938h-79.851563zm0 0"/>
	<path d="m14.40625 475.113281h39.925781v19.960938h-39.925781zm0 0"/>
</svg>