<?xml version="1.0" encoding="UTF-8" standalone="no"?>
<!DOCTYPE svg PUBLIC "-//W3C//DTD SVG 1.1//EN" "http://www.w3.org/Graphics/SVG/1.1/DTD/svg11.dtd">
<svg xmlns:xlink="http://www.w3.org/1999/xlink" xmlns:serif="http://www.serif.com/" width="100%" height="100%" viewBox="0 0 500 500" version="1.1" xmlns="http://www.w3.org/2000/svg" xml:space="preserve" style="fill-rule:evenodd;clip-rule:evenodd;stroke-linejoin:round;stroke-miterlimit:2;">
    <path d="M427.78,47.675l42.52,-0l0,397.538c0,23.767 -19.295,43.062 -43.062,43.062l-354.476,0c-23.767,0 -43.062,-19.295 -43.062,-43.062l-0,-397.538l42.571,-0l-0,35.002c-0,4.177 3.391,7.569 7.569,7.569l15.137,-0c4.178,-0 7.569,-3.392 7.569,-7.569l0,-35.002l294.857,-0l-0,34.98c-0,4.191 3.403,7.594 7.594,7.594l15.189,0c4.191,0 7.594,-3.403 7.594,-7.594l0,-34.98Zm20.909,65.541l-397.378,0l-0,318.905c-0,19.065 15.478,34.543 34.543,34.543l328.292,0c19.065,0 34.543,-15.478 34.543,-34.543l0,-318.905Z"/>
    <path d="M96.805,16.426l0,62.498c0,2.593 -2.105,4.698 -4.698,4.698l-9.397,0c-2.593,0 -4.698,-2.105 -4.698,-4.698l-0,-62.498c-0,-2.593 2.105,-4.698 4.698,-4.698l9.397,-0c2.593,-0 4.698,2.105 4.698,4.698Z"/>
    <path d="M422.02,16.439l-0,62.472c-0,2.602 -2.113,4.714 -4.714,4.714l-9.429,-0c-2.601,-0 -4.714,-2.112 -4.714,-4.714l0,-62.472c0,-2.602 2.113,-4.714 4.714,-4.714l9.429,-0c2.601,-0 4.714,2.112 4.714,4.714Z"/>
    <path d="M236.854,235.063l-0,32.714c-0,9.028 -7.33,16.358 -16.358,16.358l-32.715,-0c-9.027,-0 -16.357,-7.33 -16.357,-16.358l0,-32.714c0,-9.028 7.33,-16.358 16.357,-16.358l32.715,0c9.028,0 16.358,7.33 16.358,16.358Zm-7.121,3.56c-0,-7.063 -5.734,-12.797 -12.797,-12.797l-25.594,0c-7.063,0 -12.797,5.734 -12.797,12.797l-0,25.594c-0,7.063 5.734,12.797 12.797,12.797l25.594,-0c7.063,-0 12.797,-5.734 12.797,-12.797l-0,-25.594Z"/>
    <path d="M328.576,235.063l-0,32.714c-0,9.028 -7.33,16.358 -16.357,16.358l-32.715,-0c-9.028,-0 -16.358,-7.33 -16.358,-16.358l0,-32.714c0,-9.028 7.33,-16.358 16.358,-16.358l32.715,0c9.027,0 16.357,7.33 16.357,16.358Zm-7.121,3.56c0,-7.063 -5.734,-12.797 -12.797,-12.797l-25.594,0c-7.063,0 -12.797,5.734 -12.797,12.797l0,25.594c0,7.063 5.734,12.797 12.797,12.797l25.594,-0c7.063,-0 12.797,-5.734 12.797,-12.797l0,-25.594Z"/>
    <path d="M420.298,235.063l0,32.714c0,9.028 -7.329,16.358 -16.357,16.358l-32.715,-0c-9.028,-0 -16.357,-7.33 -16.357,-16.358l-0,-32.714c-0,-9.028 7.329,-16.358 16.357,-16.358l32.715,0c9.028,0 16.357,7.33 16.357,16.358Zm-7.121,3.56c0,-7.063 -5.734,-12.797 -12.797,-12.797l-25.594,0c-7.062,0 -12.797,5.734 -12.797,12.797l0,25.594c0,7.063 5.735,12.797 12.797,12.797l25.594,-0c7.063,-0 12.797,-5.734 12.797,-12.797l0,-25.594Z"/>
    <path d="M145.131,316.671l0,32.715c0,9.028 -7.329,16.357 -16.357,16.357l-32.715,0c-9.028,0 -16.357,-7.329 -16.357,-16.357l-0,-32.715c-0,-9.028 7.329,-16.357 16.357,-16.357l32.715,-0c9.028,-0 16.357,7.329 16.357,16.357Zm-7.12,3.561c-0,-7.063 -5.735,-12.797 -12.797,-12.797l-25.594,-0c-7.063,-0 -12.797,5.734 -12.797,12.797l-0,25.593c-0,7.063 5.734,12.797 12.797,12.797l25.594,0c7.062,0 12.797,-5.734 12.797,-12.797l-0,-25.593Z"/>
    <path d="M236.854,316.671l-0,32.715c-0,9.028 -7.33,16.357 -16.358,16.357l-32.715,0c-9.027,0 -16.357,-7.329 -16.357,-16.357l0,-32.715c0,-9.028 7.33,-16.357 16.357,-16.357l32.715,-0c9.028,-0 16.358,7.329 16.358,16.357Zm-7.121,3.561c-0,-7.063 -5.734,-12.797 -12.797,-12.797l-25.594,-0c-7.063,-0 -12.797,5.734 -12.797,12.797l-0,25.593c-0,7.063 5.734,12.797 12.797,12.797l25.594,0c7.063,0 12.797,-5.734 12.797,-12.797l-0,-25.593Z"/>
    <path d="M328.576,316.671l-0,32.715c-0,9.028 -7.33,16.357 -16.357,16.357l-32.715,0c-9.028,0 -16.358,-7.329 -16.358,-16.357l0,-32.715c0,-9.028 7.33,-16.357 16.358,-16.357l32.715,-0c9.027,-0 16.357,7.329 16.357,16.357Zm-7.121,3.561c0,-7.063 -5.734,-12.797 -12.797,-12.797l-25.594,-0c-7.063,-0 -12.797,5.734 -12.797,12.797l0,25.593c0,7.063 5.734,12.797 12.797,12.797l25.594,0c7.063,0 12.797,-5.734 12.797,-12.797l0,-25.593Z"/>
    <path d="M420.298,316.671l0,32.715c0,9.028 -7.329,16.357 -16.357,16.357l-32.715,0c-9.028,0 -16.357,-7.329 -16.357,-16.357l-0,-32.715c-0,-9.028 7.329,-16.357 16.357,-16.357l32.715,-0c9.028,-0 16.357,7.329 16.357,16.357Zm-7.121,3.561c0,-7.063 -5.734,-12.797 -12.797,-12.797l-25.594,-0c-7.062,-0 -12.797,5.734 -12.797,12.797l0,25.593c0,7.063 5.735,12.797 12.797,12.797l25.594,0c7.063,0 12.797,-5.734 12.797,-12.797l0,-25.593Z"/>
    <path d="M145.131,398.28l0,32.714c0,9.028 -7.329,16.358 -16.357,16.358l-32.715,-0c-9.028,-0 -16.357,-7.33 -16.357,-16.358l-0,-32.714c-0,-9.028 7.329,-16.358 16.357,-16.358l32.715,0c9.028,0 16.357,7.33 16.357,16.358Zm-7.12,3.56c-0,-7.063 -5.735,-12.797 -12.797,-12.797l-25.594,0c-7.063,0 -12.797,5.734 -12.797,12.797l-0,25.594c-0,7.063 5.734,12.797 12.797,12.797l25.594,-0c7.062,-0 12.797,-5.734 12.797,-12.797l-0,-25.594Z"/>
    <path d="M236.854,398.28l-0,32.714c-0,9.028 -7.33,16.358 -16.358,16.358l-32.715,-0c-9.027,-0 -16.357,-7.33 -16.357,-16.358l0,-32.714c0,-9.028 7.33,-16.358 16.357,-16.358l32.715,0c9.028,0 16.358,7.33 16.358,16.358Zm-7.121,3.56c-0,-7.063 -5.734,-12.797 -12.797,-12.797l-25.594,0c-7.063,0 -12.797,5.734 -12.797,12.797l-0,25.594c-0,7.063 5.734,12.797 12.797,12.797l25.594,-0c7.063,-0 12.797,-5.734 12.797,-12.797l-0,-25.594Z"/>
    <path d="M328.576,398.28l-0,32.714c-0,9.028 -7.33,16.358 -16.357,16.358l-32.715,-0c-9.028,-0 -16.358,-7.33 -16.358,-16.358l0,-32.714c0,-9.028 7.33,-16.358 16.358,-16.358l32.715,0c9.027,0 16.357,7.33 16.357,16.358Zm-7.121,3.56c0,-7.063 -5.734,-12.797 -12.797,-12.797l-25.594,0c-7.063,0 -12.797,5.734 -12.797,12.797l0,25.594c0,7.063 5.734,12.797 12.797,12.797l25.594,-0c7.063,-0 12.797,-5.734 12.797,-12.797l0,-25.594Z"/>
    <path d="M420.298,398.28l0,32.714c0,9.028 -7.329,16.358 -16.357,16.358l-32.715,-0c-9.028,-0 -16.357,-7.33 -16.357,-16.358l-0,-32.714c-0,-9.028 7.329,-16.358 16.357,-16.358l32.715,0c9.028,0 16.357,7.33 16.357,16.358Zm-7.121,3.56c0,-7.063 -5.734,-12.797 -12.797,-12.797l-25.594,0c-7.062,0 -12.797,5.734 -12.797,12.797l0,25.594c0,7.063 5.735,12.797 12.797,12.797l25.594,-0c7.063,-0 12.797,-5.734 12.797,-12.797l0,-25.594Z"/>
    <path d="M104.884,195.578l-27.861,-27.862l8.474,-8.473l19.255,19.255l34.452,-34.452l8.606,8.606l-42.926,42.926Z"/>
    <path d="M104.884,277.186l-27.861,-27.861l8.474,-8.474l19.255,19.255l34.452,-34.452l8.606,8.606l-42.926,42.926Z"/>
    <path d="M196.607,195.578l-27.862,-27.862l8.474,-8.473l19.255,19.255l34.452,-34.452l8.606,8.606l-42.925,42.926Z"/>
    <path d="M288.329,195.578l-27.861,-27.862l8.473,-8.473l19.255,19.255l34.452,-34.452l8.607,8.606l-42.926,42.926Z"/>
    <path d="M380.051,195.578l-27.861,-27.862l8.474,-8.473l19.255,19.255l34.452,-34.452l8.606,8.606l-42.926,42.926Z"/>
</svg>
