<svg xmlns="http://www.w3.org/2000/svg" version="1.1" width="512"
     height="512" x="0" y="0" viewBox="0 0 491.096 491.096" style="enable-background:new 0 0 512 512"
     xml:space="preserve" class=""><g><path d="M422.835 247.992c-9.548-25.523-38.255-102.093-38.255-102.093-6.305-16.804-25.025-25.329-41.835-19.026l-27.255 10.213-43.302 7.746-44.96-43.15c-3.596-3.48-8.371-4.745-12.99-4.251L169.596 5.939c-1.942-4.036-6.797-5.724-10.888-3.75-4.044 1.974-5.73 6.853-3.756 10.896l45.975 94.214c-2.448 6.002-1.238 13.134 3.729 17.895l9.39 9.003 59.605 122.176-14.457 45.857-20.503-14.033a32.055 32.055 0 0 1-13.501-21.037l-15.824-91.811a31.955 31.955 0 0 0-3.408-9.83l-30.755-56.833-27.288-99.204A12.92 12.92 0 0 0 135.464 0H78.729C71.611 0 65.83 5.78 65.83 12.904v463.251c0 7.125 5.781 12.902 12.898 12.902h270.157a12.909 12.909 0 0 0 11.112-19.469l-46.358-78.469a32.403 32.403 0 0 1-2.546-5.404l-18.068-49.973c5.174-2.953 9.314-7.722 11.256-13.844l.507-1.654 81.129 166.273c1.398 2.899 4.295 4.577 7.32 4.577a8.07 8.07 0 0 0 3.568-.827c4.043-1.974 5.73-6.853 3.756-10.896l-40.752-83.525c.315.016.619.16.955.16 1.846 0 3.756-.214 5.634-.661 13.15-3.103 21.286-16.277 18.181-29.419l-13.722-58.068 43.81-26.474c8.599-5.206 13.988-17.832 8.168-33.392zm-174.691-81.056 7.452 7.164a16.304 16.304 0 0 0 14.169 4.289l53.747-9.624 20.518 54.758-34.75-7.172c-12.291-2.531-24.486 4.641-28.258 16.604l-.272.835-32.606-66.854zm63.776 130.717 9.107-28.941 14.948 3.088-5.65 3.422a24.431 24.431 0 0 0-11.16 26.546l4.918 20.864-12.163-24.979z" fill="#000000" opacity="1" data-original="#000000" class=""></path><path
        d="M322.633 121.93c20.203 0 36.585-16.38 36.585-36.591 0-20.203-16.382-36.583-36.585-36.583-20.199 0-36.598 16.38-36.598 36.583.001 20.211 16.399 36.591 36.598 36.591z"
        fill="#000"/></g></svg>