<svg xmlns="http://www.w3.org/2000/svg" version="1.1" width="512"
     height="512" x="0" y="0" viewBox="0 0 48 48" style="enable-background:new 0 0 512 512" xml:space="preserve"
     class="">
    <g>
        <path d="M24 2a22 22 0 1 0 22 22A22 22 0 0 0 24 2zm0 41a19 19 0 1 1 19-19 19.021 19.021 0 0 1-19 19z"
              fill="#000"/>
        <path d="M24 7a17 17 0 1 0 17 17A17.019 17.019 0 0 0 24 7zm-1 3a1 1 0 0 1 2 0v3a1 1 0 0 1-2 0zM13 25h-3a1 1 0 0 1 0-2h3a1 1 0 0 1 0 2zm12 13a1 1 0 0 1-2 0v-3a1 1 0 0 1 2 0zm1.258-9.738-10.983 5.814a1 1 0 0 1-1.351-1.351l5.813-10.981c.068-.128.151-.244.229-.364l6.654 6.654c-.12.078-.235.166-.362.228zm1.776-1.642-6.654-6.654c.119-.078.235-.161.362-.228l10.983-5.814a1 1 0 0 1 1.351 1.351l-5.813 10.981c-.063.128-.151.244-.229.364zM38 25h-3a1 1 0 0 1 0-2h3a1 1 0 0 1 0 2z"
              fill="#000"/>
    </g>
</svg>