<?xml version="1.0" encoding="iso-8859-1"?>
<!-- Generator: Adobe Illustrator 17.1.0, SVG Export Plug-In . SVG Version: 6.00 Build 0)  -->
<!DOCTYPE svg PUBLIC "-//W3C//DTD SVG 1.1//EN" "http://www.w3.org/Graphics/SVG/1.1/DTD/svg11.dtd">
<svg version="1.1" id="Capa_1" xmlns="http://www.w3.org/2000/svg" x="0px" y="0px"
	 viewBox="0 0 261.695 261.695" style="enable-background:new 0 0 261.695 261.695;" xml:space="preserve">
<path d="M211.735,230.103c0,4.142-3.358,7.5-7.5,7.5h-148c-4.142,0-7.5-3.358-7.5-7.5v-16c0-4.142,3.358-7.5,7.5-7.5h148
	c4.142,0,7.5,3.358,7.5,7.5V230.103z M261.695,87.742c0-8.188-6.66-14.848-14.848-14.848S232,79.554,232,87.742
	c0,2.667,0.716,5.165,1.952,7.33l-66.261,26.505l-25.44-50.879c7.985-4.083,13.468-12.389,13.468-21.956
	c0-13.592-11.059-24.649-24.65-24.649s-24.649,11.058-24.649,24.649c0,9.567,5.482,17.872,13.467,21.956l-25.439,50.879L27.83,94.93
	c1.185-2.132,1.865-4.581,1.865-7.188c0-8.188-6.66-14.848-14.848-14.848S0,79.554,0,87.742c0,6.016,3.602,11.197,8.758,13.527
	l33.355,82.641c1.145,2.837,3.896,4.693,6.955,4.693h165c3.087,0,5.858-1.892,6.983-4.766l32.435-82.834
	C258.346,98.561,261.695,93.541,261.695,87.742z"/>
</svg>
