<svg xmlns="http://www.w3.org/2000/svg" version="1.1" width="512" height="512" x="0" y="0" viewBox="0 0 512 512"
	 style="enable-background:new 0 0 512 512" xml:space="preserve" class=""><g><g xmlns="http://www.w3.org/2000/svg"><path d="m156 356h200c5.523 0 10-4.478 10-10s-4.477-10-10-10h-200c-5.523 0-10 4.478-10 10s4.477 10 10 10z" fill="#000000" data-original="#000000" class=""></path><path
	d="m385.071 162.929c-3.905-3.904-10.237-3.904-14.143 0l-22.928 22.928-22.929-22.929c-3.905-3.904-10.237-3.904-14.143 0-3.905 3.905-3.905 10.237 0 14.143l22.929 22.929-22.929 22.929c-3.905 3.905-3.905 10.237 0 14.143 1.953 1.952 4.512 2.929 7.071 2.929s5.119-.977 7.071-2.929l22.93-22.929 22.929 22.929c1.953 1.952 4.512 2.929 7.071 2.929s5.119-.977 7.071-2.929c3.905-3.905 3.905-10.237 0-14.143l-22.928-22.929 22.929-22.929c3.904-3.905 3.904-10.237-.001-14.142z"
	fill="#000000" data-original="#000000" class=""></path><path
	d="m126.929 237.071c1.953 1.952 4.512 2.929 7.071 2.929s5.119-.977 7.071-2.929l22.929-22.928 22.929 22.929c1.953 1.952 4.512 2.929 7.071 2.929s5.119-.977 7.071-2.929c3.905-3.905 3.905-10.237 0-14.143l-22.928-22.929 22.929-22.929c3.905-3.905 3.905-10.237 0-14.143-3.905-3.904-10.237-3.904-14.143 0l-22.929 22.929-22.929-22.929c-3.905-3.904-10.237-3.904-14.143 0-3.905 3.905-3.905 10.237 0 14.143l22.929 22.929-22.929 22.929c-3.904 3.905-3.904 10.237.001 14.142z"
	fill="#000000" data-original="#000000" class=""></path><circle cx="440.321" cy="418.916" r="10" fill="#000000"
																   data-original="#000000" class=""></circle><path
	d="m506.67 204.422c-9.677-46.571-32.233-90.29-65.212-124.946-47.971-50.41-115.91-79.476-185.457-79.476-70.451 0-139.228 29.851-187.286 81.417-43.832 47.031-68.715 110.304-68.715 174.571 0 64.981 25.461 128.943 70.176 176.126 47.962 50.609 116.151 79.886 185.844 79.886 29.11 0 57.67-4.85 84.9-14.421 26.33-9.261 50.84-22.712 72.87-39.982 2.1-1.65 3.44-4.02 3.76-6.671.32-2.65-.41-5.27-2.06-7.37-1.9-2.43-4.78-3.83-7.87-3.83-2.26 0-4.39.74-6.16 2.13-41.87 32.801-92.16 50.143-145.46 50.143-63.02 0-122.29-24.552-166.88-69.124-44.57-44.591-69.12-103.864-69.12-166.887s24.55-122.296 69.12-166.888c44.59-44.573 103.86-69.124 166.88-69.124s122.29 24.551 166.88 69.124c44.57 44.592 69.11 103.855 69.12 166.888 0 42.932-11.64 84.964-33.66 121.546-2.84 4.72-1.32 10.881 3.41 13.731 1.56.93 3.34 1.43 5.15 1.43 3.54 0 6.75-1.81 8.57-4.84 11.74-19.491 20.81-40.452 26.96-62.303 6.35-22.541 9.57-45.943 9.57-69.563 0-17.368-1.816-34.656-5.33-51.567z"
	fill="#000000" data-original="#000000" class=""></path></g></g></svg>