<?xml version="1.0" encoding="utf-8"?>
<!DOCTYPE svg PUBLIC "-//W3C//DTD SVG 1.1//EN" "http://www.w3.org/Graphics/SVG/1.1/DTD/svg11.dtd">
<svg version="1.1" id="Layer_1" xmlns="http://www.w3.org/2000/svg" x="0px" y="0px" viewBox="0 0 210 140"
	 enable-background="new 0 0 210 140" xml:space="preserve">
<g id="person">
	<circle fill="#040305" cx="181.762" cy="28.421" r="14.171"/>
	<path fill="#040305" d="M80.859,98.711c2.805,3.449,7.615,3.646,11.049,1.119c3.902-2.881,8.324-5.109,13.051-6.898
		c0.78,0.281,1.642,0.471,2.647,0.48c7.124,0.031,13.392,2.061,19.124,5.992c-8.679,13.211-12.004,28.568-11.194,45.639
		c0.497,10.432,16.667,9.492,16.17-0.932c-0.811-17.104,3.221-30.801,14.036-42.748c2.163-0.734,4.101-2.035,5.482-3.971
		c7.966-11.156,15.936-22.316,23.9-33.475c4.362-6.111,4.7-14.15-1.354-19.426c-0.707-0.616-1.507-1.147-2.356-1.599
		c-11.12-7.434-21.718-15.499-30.965-25.208c-6.956-7.298-19.151,2.604-12.163,9.936c7.4,7.772,15.482,14.69,24.05,21.042
		c-1.469,2.056-2.935,4.112-4.403,6.168c-4.145-3.11-7.451-7.127-9.588-12.311c-3.959-9.612-19.237-4.224-15.249,5.461
		c3.362,8.16,8.626,14.971,15.413,20.051c-2.687,3.763-5.373,7.527-8.057,11.291c-0.705,0.984-1.291,2.025-1.773,3.086
		c-6.13-2.932-12.822-4.611-19.688-4.641c-0.616-0.002-1.204,0.057-1.756,0.166c-1.989-0.859-4.348-0.879-6.592-0.113
		c-6.719,2.291-12.95,5.635-18.667,9.85C78.524,90.211,78.265,95.527,80.859,98.711z"/>
</g>
	<rect id="laser" x="15" y="41.468" fill="#ED1C24" width="104.875" height="2.25"/>
</svg>
