<svg xmlns="http://www.w3.org/2000/svg" version="1.1" width="512" height="512" x="0" y="0" viewBox="0 0 512.373 512.373"
	 style="enable-background:new 0 0 512 512" xml:space="preserve" class=""><g>
<g xmlns="http://www.w3.org/2000/svg">
	<g>
		<path
			d="M481.882,136.117c31.008-69.248,2.176-124.832,0.896-127.264c-3.456-6.464-10.688-10.176-18.016-8.416    c-7.136,1.792-12.096,7.776-12.096,15.136c0,0.16-2.144,17.12-32.96,44.32c-45.728-38.496-103.264-59.52-163.52-59.52    c-60.224,0-117.76,21.056-163.52,59.52c-30.336-26.784-32.896-43.52-32.96-43.52c0-7.328-4.992-13.76-12.128-15.52    c-7.168-1.76-14.528,1.536-18.016,8c-1.28,2.4-30.08,58.016,0.928,127.264C10.65,173.045,0.186,214.453,0.186,256.373    c0,141.152,114.848,256,256,256s256-114.848,256-256C512.186,214.453,501.722,173.045,481.882,136.117z M306.938,198.997    l67.872-67.872c6.24-6.24,16.384-6.24,22.624,0c12.096,12.064,18.752,28.16,18.752,45.248s-6.656,33.184-18.752,45.248    c-12.48,12.48-28.864,18.72-45.248,18.72s-32.768-6.24-45.248-18.72C300.698,215.381,300.698,205.237,306.938,198.997z     M114.938,131.125c6.24-6.24,16.384-6.24,22.624,0l67.872,67.872c6.24,6.24,6.24,16.384,0,22.624    c-12.064,12.096-28.16,18.752-45.248,18.752s-33.184-6.656-45.248-18.752c-12.096-12.064-18.752-28.16-18.752-45.248    S102.842,143.189,114.938,131.125z M440.858,308.725c-23.136,82.208-99.072,139.648-184.672,139.648S94.65,390.933,71.514,308.725    c-1.376-4.864-0.384-10.016,2.656-14.016c3.008-4,7.712-6.336,12.736-6.336h338.56c4.992,0,9.728,2.336,12.736,6.336    S442.202,303.861,440.858,308.725z"
			fill="#000000" data-original="#000000" class=""></path>
	</g>
</g>
<g xmlns="http://www.w3.org/2000/svg">
</g>
<g xmlns="http://www.w3.org/2000/svg">
</g>
<g xmlns="http://www.w3.org/2000/svg">
</g>
<g xmlns="http://www.w3.org/2000/svg">
</g>
<g xmlns="http://www.w3.org/2000/svg">
</g>
<g xmlns="http://www.w3.org/2000/svg">
</g>
<g xmlns="http://www.w3.org/2000/svg">
</g>
<g xmlns="http://www.w3.org/2000/svg">
</g>
<g xmlns="http://www.w3.org/2000/svg">
</g>
<g xmlns="http://www.w3.org/2000/svg">
</g>
<g xmlns="http://www.w3.org/2000/svg">
</g>
<g xmlns="http://www.w3.org/2000/svg">
</g>
<g xmlns="http://www.w3.org/2000/svg">
</g>
<g xmlns="http://www.w3.org/2000/svg">
</g>
<g xmlns="http://www.w3.org/2000/svg">
</g>
</g></svg>