<?xml version="1.0" encoding="utf-8"?>
<!-- Generator: Adobe Illustrator 16.0.0, SVG Export Plug-In . SVG Version: 6.00 Build 0)  -->
<!DOCTYPE svg PUBLIC "-//W3C//DTD SVG 1.1//EN" "http://www.w3.org/Graphics/SVG/1.1/DTD/svg11.dtd">
<svg version="1.1" id="Layer_2" xmlns="http://www.w3.org/2000/svg" x="0px" y="0px"
	 width="149.402px" height="83.5px" viewBox="46.965 19.917 149.402 83.5"
	 enable-background="new 46.965 19.917 149.402 83.5"
	 xml:space="preserve">
<g id="gun">
	<path stroke="#FFFFFF" stroke-miterlimit="10" d="M75.777,24.018l7.546,7.491l30.834-0.112l5.85-9.992l6.594,0.25l1.858,2.008
		l18.906,0.259l-0.006-1.471l28.332-0.103l0.024,6.975l19.617-0.07l0.065,18.908l-16.512,0.06l-0.273,0l0.026,6.909l6.117-0.022
		l4.88,4.844l0.049,14.359l-5.128,5.165l-6.536,0.023l-3.995-3.964l-36.283,0.132l-2.898-2.876l-17.884,0.062l0.095,26.192
		l-3.188,3.213l-22.691,0.082l-4.401-4.369c0,0-0.027-7.41-0.046-12.587c-0.019-5.176,6.11-18.277,6.11-18.277l-0.017-4.761
		l-3.246-3.221l-37.39,0.134l-2.31-2.292l-0.062-17.301l-1.831-1.819l-0.049-13.728L75.777,24.018z"/>
	<path stroke="#FFFFFF" stroke-miterlimit="10" d="M100.946,26.4c2.046-0.007,3.712,2.182,3.722,4.89l-7.407,0.029
		C97.25,28.609,98.9,26.408,100.946,26.4z"/>
</g>
</svg>
