<svg xmlns="http://www.w3.org/2000/svg" version="1.1" width="512"
     height="512" x="0" y="0" viewBox="0 0 60 60" style="enable-background:new 0 0 512 512" xml:space="preserve"
     class=""><g><path d="M18.581 34.008a.593.593 0 0 0-.564.564c-.324 4.909 2.928 5.261 4 5.376A2.28 2.28 0 0 1 24.049 42a4.413 4.413 0 0 0 1.238 2.98 2.251 2.251 0 0 1 .754 1.522l.366 4.842a19.342 19.342 0 0 1 7.187 0l.365-4.84a2.25 2.25 0 0 1 .753-1.523A4.414 4.414 0 0 0 35.951 42a2.28 2.28 0 0 1 2.033-2.048c1.071-.115 4.323-.467 4-5.384a.591.591 0 0 0-.569-.556c-2.065-.062-5.861.181-8.413 2.489V41a3.013 3.013 0 0 1-3.262 2.988A3.079 3.079 0 0 1 27 40.887V36.5c-2.552-2.311-6.337-2.546-8.419-2.492ZM13 28.6c2.2-.624 7.214-1.6 17-1.6s14.8.976 17 1.6v-1.908C45.505 26.2 40.75 25 30 25s-15.5 1.2-17 1.692ZM25.921 10.5a35.6 35.6 0 0 0-4.4 2.277c-5.5 3.373-8.354 7.347-8.509 11.815C15.227 23.972 20.236 23 30 23c9.746 0 14.756.968 16.974 1.592-.261-7.268-7.663-11.8-12.895-14.09l-.311 3.431A2.263 2.263 0 0 1 31.5 16h-3a2.263 2.263 0 0 1-2.264-2.067Z" fill="#000000"/><path
        d="M27.455 2a.265.265 0 0 0-.2.089.261.261 0 0 0-.069.208l1.041 11.455A.271.271 0 0 0 28.5 14h3a.271.271 0 0 0 .271-.248L32.816 2.3a.262.262 0 0 0-.069-.209.265.265 0 0 0-.2-.089ZM13 44.639a13.44 13.44 0 0 0 10.57 13.072L24.9 58l-.853-11.35a.258.258 0 0 0-.085-.175 6.36 6.36 0 0 1-1.9-4.272.3.3 0 0 0-.262-.266c-3.958-.427-6.064-3.163-5.778-7.5a2.6 2.6 0 0 1 2.492-2.424c2.491-.087 7.117.252 10.2 3.355a1 1 0 0 1 .29.7v4.818A1.083 1.083 0 0 0 29.908 42 1.014 1.014 0 0 0 31 41v-4.93a1 1 0 0 1 .29-.7c3.079-3.1 7.714-3.443 10.191-3.355a2.6 2.6 0 0 1 2.5 2.416c.287 4.348-1.819 7.084-5.778 7.511a.3.3 0 0 0-.261.266 6.361 6.361 0 0 1-1.9 4.273.257.257 0 0 0-.084.176L35.1 57.993l1.33-.282A13.44 13.44 0 0 0 47 44.639V30.692C45.505 30.2 40.75 29 30 29s-15.5 1.2-17 1.692Z"
        fill="#000000"/></g></svg>