<svg xmlns="http://www.w3.org/2000/svg" version="1.1" width="512"
     height="512" x="0" y="0" viewBox="0 0 358 512" style="enable-background:new 0 0 512 512" xml:space="preserve"
     class=""><g><path d="M157.172 105.934h42.754c19.82-8.352 33.738-27.957 33.738-50.817C233.664 24.676 208.988 0 178.547 0c-30.438 0-55.117 24.676-55.117 55.117 0 22.86 13.918 42.465 33.742 50.817zM115.965 488.227c0 13.109 10.668 23.773 23.777 23.773 13.11 0 23.774-10.664 23.774-23.773V327.492h30.062v160.735c0 13.109 10.668 23.773 23.777 23.773s23.774-10.664 23.774-23.773v-212.66l-125.164-.06zM271.285 258.098l47.395-60.575c3.238-4.054 2.629-10.062-1.356-13.386l-44.601-37.203a49.38 49.38 0 0 0-31.582-11.446H115.957a49.382 49.382 0 0 0-31.586 11.446L39.77 184.137c-3.985 3.324-4.594 9.332-1.356 13.386l47.488 59.856v-79.754h30.063v67.82l125.258.059V177.52h30.062zM319.277 251.145l-48.086 61.44v64.517h86.528zM0 377.102h85.902V311.27l-50.574-63.723zm0 0" fill="#000000"/></g></svg>