<svg xmlns="http://www.w3.org/2000/svg" version="1.1" width="512"
     height="512" x="0" y="0" viewBox="0 0 512 512" style="enable-background:new 0 0 512 512" xml:space="preserve"
     class="">
    <path d="M407.554 145.766c-8.095-1.769-16.089 3.356-17.859 11.449-.227 1.052-5.763 22.069-13.824 52.578l-14.719-6.053-32.2-13.24c-11.24-4.6-11.97-14.29-11.21-20.24 1.06-8.25.53-16.68-2.2-24.55-5.68-16.37-18.19-30.41-34.24-38.43-4.997-2.05-8.487-3.195-10.591-3.808 21.879 2.565 42.218-12.335 46.124-34.29l3.361-19.903c4.039-22.788-11.108-44.556-33.952-48.625-22.797-4.053-44.553 11.142-48.605 33.949l-3.361 19.903c-3.606 20.284 8.032 39.732 26.699 46.631a52.604 52.604 0 0 0-8.557-.718c-27.32 0-49.2 21.95-54.16 49.24l-26.32 118.35c53.442 9.68 100.439 18.202 115.01 20.84l2.83-17.66-9.43-1.76c-31.08-5.81-52.04-34.89-47.72-66.21l4.89-35.44c1.13-8.21 8.7-13.94 16.91-12.81s13.94 8.7 12.81 16.91l-4.89 35.44c-2.13 15.43 8.2 29.76 23.51 32.62 16.999 3.059 22.761 5.729 77.307 17.896-9.661 36.527-20.507 77.506-29.887 112.974-3.943-8.062-5.764-10.371-21.736-34.454a40.206 40.206 0 0 0-26.341-17.341l-119.59-21.664-37.78 180.6c-2.466 17.911 11.485 34.05 29.77 34.05 14.68 0 27.21-10.6 29.63-25.07l38.97-148.22 34.53 39.68a106.818 106.818 0 0 1 26.1 64.67l2.17 42.78c.738 14.626 12.835 26.16 27.56 26.16 15.24 0 27.6-12.34 27.6-27.56v-37.283L393.15 261.57c7.563-2.278 13.776-8.341 15.863-16.54 2.042-8.024-.35-16.199-5.734-21.834l15.724-59.571c1.77-8.093-3.356-16.088-11.449-17.859zM142.663 261.5l22.79-102.51-57.08-12.36-.24 1.16-14.81 72.24c-3.67 17.59 8.02 34.6 25.65 37.57l23.67 3.99c.01-.03.01-.06.02-.09zM201.343 88.7l-22.33-4.22c-14.9-2.82-30.05.27-42.66 8.7-9.14 6.11-16.2 14.52-20.57 24.35l56.78 12.3c5.78-16.62 15.91-30.8 28.78-41.13z"
          fill="#000"/>
</svg>