<?xml version="1.0" encoding="UTF-8" standalone="no"?>
<!DOCTYPE svg PUBLIC "-//W3C//DTD SVG 1.1//EN" "http://www.w3.org/Graphics/SVG/1.1/DTD/svg11.dtd">
<svg width="100%" height="100%" viewBox="0 -10 512 532" version="1.1" xmlns="http://www.w3.org/2000/svg"
	 xml:space="preserve"
	 style="fill-rule:evenodd;clip-rule:evenodd;">
    <g>
        <path
			d="M254.145,275.88L257.537,275.88C288.603,275.35 313.731,264.429 332.286,243.542C373.106,197.527 366.32,118.643 365.578,111.115C362.927,54.603 336.209,27.567 314.155,14.95C297.721,5.513 278.531,0.424 257.113,0L255.311,0C243.542,0 220.428,1.908 198.269,14.526C176.003,27.143 148.861,54.179 146.21,111.115C145.468,118.643 138.682,197.527 179.502,243.542C197.951,264.429 223.079,275.35 254.145,275.88Z"
			style="fill:none;fill-rule:nonzero;stroke:black;stroke-width:20px;stroke-dasharray:40;"/>
		<path
			d="M191.907,300.902C198.375,296.343 313.625,296.449 320.093,301.008C321.895,302.28 364.094,331.65 416.895,345.221C441.599,354.021 444.355,380.422 445.098,404.596C445.098,405.55 445.098,406.398 445.204,407.246C445.31,416.789 444.673,431.526 442.977,440.008C425.801,449.763 358.474,483.479 256.053,483.479C154.056,483.479 86.305,449.657 69.023,439.902C67.327,431.42 66.584,416.683 66.796,407.14C66.796,406.292 66.902,405.444 66.902,404.49C67.645,380.316 70.401,353.915 95.105,345.115C147.906,331.544 190.105,302.068 191.907,300.902Z"
			style="fill:none;fill-rule:nonzero;stroke:black;stroke-width:20px;stroke-dasharray:40;"/>
    </g>
</svg>
