<?xml version="1.0" encoding="UTF-8" standalone="no"?>
<!DOCTYPE svg PUBLIC "-//W3C//DTD SVG 1.1//EN" "http://www.w3.org/Graphics/SVG/1.1/DTD/svg11.dtd">
<svg width="100%" height="100%" viewBox="0 0 244 244"
	 version="1.1" xmlns="http://www.w3.org/2000/svg" xml:space="preserve"
	 style="fill-rule:evenodd;clip-rule:evenodd;stroke-miterlimit:10;">
    <g id="gun" transform="matrix(1.10098,-0.295006,0.295006,1.10098,-18.2017,88.9242)">
        <path
			d="M33.064,36.028L41.784,42.112L72.141,36.707L76.187,25.86L82.725,24.973L84.902,26.632L103.571,23.641L103.313,22.193L131.206,17.227L132.429,24.093L151.74,20.655L155.054,39.271L138.798,42.165L138.53,42.212L139.741,49.013L145.762,47.941L151.401,51.876L153.917,66.012L149.751,71.982L143.315,73.128L138.7,69.908L102.977,76.268L99.63,73.932L82.021,77.066L86.612,102.855L84.023,106.565L61.682,110.543L56.596,106.994C56.596,106.994 55.297,99.699 54.39,94.603C53.483,89.507 57.271,75.549 57.271,75.549L56.437,70.861L52.685,68.244L15.875,74.798L13.206,72.934L10.173,55.902L8.056,54.425L5.652,40.909L33.064,36.028Z"
			fill="#000"/>
		<path
			d="M58.268,34.054C60.282,33.696 62.3,35.566 62.774,38.232L55.481,39.531C55.006,36.864 56.253,34.413 58.268,34.054Z"
			fill="#000"/>
    </g>
	<g id="laser" transform="matrix(1.03223,-0.483325,0.483325,1.03223,-8.91297,126.811)">
        <rect x="152.979" y="19.917" width="80.817" height="2.667" style="fill:rgb(237,28,36);"/>
    </g>
</svg>
