<svg viewBox="0 0 151 152" version="1.1"
     xmlns="http://www.w3.org/2000/svg" xml:space="preserve"
     style="fill-rule:evenodd;clip-rule:evenodd;stroke-linejoin:round;stroke-miterlimit:2;">
    <path fill="#000"
          d="M151,106.43l-75.49,44.08l-75.51,-43.76l0,-106.6l150.97,0l0.03,106.28Zm-75.49,33.16l66.133,-38.26l0,-91.8l-132.286,-0l-0,91.79l66.153,38.27Z"
          style="fill:var(--black);fill-rule:nonzero;"/>
    <path fill="#000"
          d="M94.412,73.37l8.471,0l0,1.47l-8.471,0l0,-1.47Zm32.33,-14.66l0,-2.68l-3.732,-0l-0,-1.54l-7.058,-0l0,0.86l-11.456,-0l-0,-0.9l-9.666,-0l0,4.02l1.991,1.44l0,2.14l15.399,-0l2.01,2.42l10.253,-0l-0,-0.95l1.304,-0l-0,-1.6l-1.304,-0l-0,-0.8l-1.473,-0l-0,-2.41l3.732,-0Zm-42.313,-17.31c3.002,1.675 6.663,1.675 9.665,-0c1.476,-0.831 2.709,-2.038 3.573,-3.5c0.829,-1.535 1.26,-3.254 1.254,-5c-0.032,-1.665 -0.506,-3.291 -1.373,-4.71c-0.853,-1.464 -2.049,-2.696 -3.484,-3.59c-2.966,-1.807 -6.7,-1.807 -9.665,-0c-1.437,0.892 -2.633,2.125 -3.484,3.59c-0.846,1.442 -1.289,3.086 -1.284,4.76c-0.004,1.747 0.431,3.467 1.264,5c0.857,1.44 2.076,2.63 3.534,3.45Z"
          style="fill:var(--black);fill-rule:nonzero;"/>
    <path fill="#000"
          d="M108.099,63.04l-17.579,0l0,-14.27l-16.911,-11.45l-20.296,0l-10.631,13.1l6.759,5.83l7.734,-9.23l9.665,0l-10.631,19.32l0,16.12l-18.354,0l-0,10.68l28.02,0l-0,-19.42l9.665,14.17l-0,22.72l10.621,-0l-0,-24.66l-11.109,-15.14l6.281,-10.39l-0,11.85l20.485,-0l2.717,-6.82l3.564,-0l-0,-2.41Z"
          style="fill:var(--black);fill-rule:nonzero;"/>
</svg>
