<svg xmlns="http://www.w3.org/2000/svg" viewBox="0 0 1082.57 152.09">
    <path fill="#000"
          d="M172.28.32h19.54v87.27h41.62V62.32H253v43.8h-80.72zM297.46 17.83H273.2V.32H317l44.81 105.8h-21.05l-8.09-19.88h-44.82l-8.08 19.88h-20.9zm28.3 50.89l-15.33-37.91-15.5 37.91zM381.92 74.71a45 45 0 0 0 13.51 10 37.6 37.6 0 0 0 16.76 3.83q10.75-.17 17.57-4.07t6.84-11.22a8.4 8.4 0 0 0-4.88-8.14 45.23 45.23 0 0 0-12.21-3.74c-4.87-.88-10.17-1.63-15.86-2.29a63.32 63.32 0 0 1-15.87-3.82 30.47 30.47 0 0 1-12.2-8.48q-4.88-5.6-4.89-16A24.31 24.31 0 0 1 374 18.23a30.17 30.17 0 0 1 9.11-9.67 47.17 47.17 0 0 1 13.43-6.28A58 58 0 0 1 413 0q25.39 0 40.69 15.63l-14 12.53c-4.67-4.56-9.19-7.73-13.59-9.53A37.07 37.07 0 0 0 412 16a33 33 0 0 0-9.93 1.29 21.74 21.74 0 0 0-6.68 3.34 12.42 12.42 0 0 0-3.74 4.48 11.06 11.06 0 0 0-1.13 4.72 8.38 8.38 0 0 0 4.87 8.13 43.19 43.19 0 0 0 12.21 3.67q7.32 1.2 15.87 2.11a61.89 61.89 0 0 1 15.87 3.74A30.38 30.38 0 0 1 451.58 56q4.88 5.71 4.88 16.27a27.71 27.71 0 0 1-3.74 14.33 34.53 34.53 0 0 1-10 10.75 48.56 48.56 0 0 1-14.4 6.75 60.81 60.81 0 0 1-16.93 2.36 64.17 64.17 0 0 1-22.39-4.34 56.88 56.88 0 0 1-21.41-14.56zM479.92 61.14h-12.63V42.6h12.63V.32h81.21v18.54h-61.66V42.6h43v18.54h-43v26.45h61.66v18.53h-81.21zM582.86 72.77h-12.63V54.22h12.63V.32h50.37a43.24 43.24 0 0 1 15.86 2.78 36.06 36.06 0 0 1 12 7.58 31.9 31.9 0 0 1 7.58 11.44 39.16 39.16 0 0 1 2.61 14.42 30.8 30.8 0 0 1-1.87 10.77 31.13 31.13 0 0 1-5.21 9.19 35.3 35.3 0 0 1-7.92 7.16 39 39 0 0 1-9.77 4.73L673 106.12h-24.6l-22.08-33.35h-23.91v33.35h-19.55zm19.55-18.54h29.32q10.27 0 15.16-5.31a17.65 17.65 0 0 0 4.88-12.37 17.66 17.66 0 0 0-4.88-12.38q-4.9-5.3-15.16-5.31h-29.32zM690.34.42l46 46.5 46-46.5v105.7h-19.1v-64L736.35 70l-26.87-27.86v64h-19.14zM834.07 17.83H809.8V.32h43.81l44.82 105.8h-21.05l-8.09-19.88h-44.83l-8.1 19.88h-20.87zm28.31 50.89L847 30.81l-15.46 37.92zM934.13 53.23L901.63.32h23.24l20.4 35.88L967 .32h21.9l-32.53 52.91 32.53 52.89h-23.26l-20.37-35.88-21.75 35.88h-21.89zM1027.8 53.23L995.29.32h23.24l20.4 35.88L1060.66.32h21.91L1050 53.23l32.53 52.89h-23.26l-20.37-35.88-21.75 35.88h-21.86zM151.7 106.43l-75.84 44.08L0 106.75V.15h151.67zm-75.84 33.16l66.44-38.26V9.53H9.4v91.79z"/>
    <path fill="#000"
          d="M94.85 73.37h8.51v1.47h-8.51zM127.33 58.71v-2.68h-3.75v-1.54h-7.09v.86h-11.51v-.9h-9.71v4.02l2 1.44v2.14h15.47l2.02 2.42h10.3v-.95h1.31v-1.6h-1.31v-.8h-1.48v-2.41h3.75zM84.82 41.4a10 10 0 0 0 9.71 0 9.67 9.67 0 0 0 3.59-3.5 10.42 10.42 0 0 0 1.26-5A9.35 9.35 0 0 0 98 28.19a10.41 10.41 0 0 0-3.5-3.59 9.36 9.36 0 0 0-9.71 0 10.36 10.36 0 0 0-3.5 3.59A9.32 9.32 0 0 0 80 32.95a10.38 10.38 0 0 0 1.27 5 9.6 9.6 0 0 0 3.55 3.45z"/>
    <path fill="#000"
          d="M108.6 63.04H90.94V48.77L73.95 37.32H53.56l-10.68 13.1 6.79 5.83 7.77-9.23h9.71L56.47 66.34v16.12H38.03v10.68h28.15V73.72l9.71 14.17v22.72h10.67V85.95L75.4 70.81l6.31-10.39v11.85h20.58l2.73-6.82h3.58v-2.41zM847 151.16V116h4v30.9h14.6v4.26zM870.71 151.16V116h21v4.26h-17.08V131h15.73v4.26h-15.73v11.64H892v4.26zM895.45 120.24V116h23.47v4.26h-9.75v30.92h-3.92v-30.94zM922.45 128.52v-2.3a2.22 2.22 0 0 0 1.67-1.42 9.85 9.85 0 0 0 .49-3.58h-2.16V116h4.21v4.85a10.88 10.88 0 0 1-1 5.12 5.75 5.75 0 0 1-3.21 2.55zM932.11 139.79h3.67q0 4.07 2.11 6.15a8.14 8.14 0 0 0 6 2.08 8.4 8.4 0 0 0 5.44-1.59 5.45 5.45 0 0 0 2-4.48 5.15 5.15 0 0 0-1.3-3.8 11.31 11.31 0 0 0-4.83-2.28l-5.93-1.67q-6.13-1.71-6.12-8.43a11.06 11.06 0 0 1 2.72-7.74 9.72 9.72 0 0 1 7.57-3q5.19 0 8 2.77t2.84 8.45h-3.68a6.94 6.94 0 0 0-2-5.32 7.36 7.36 0 0 0-5.24-1.84 6.79 6.79 0 0 0-4.8 1.59 5.82 5.82 0 0 0-1.71 4.48 4.26 4.26 0 0 0 3.38 4.56l8.23 2.3q6.57 1.86 6.57 9.46a10.07 10.07 0 0 1-3 7.77q-3 2.82-8.33 2.82a11.6 11.6 0 0 1-8.43-3q-3.16-3.07-3.16-9.28zM973.36 151.16V116h12.94a7.79 7.79 0 0 1 6.22 2.74 10.68 10.68 0 0 1 2.35 7.2 11.46 11.46 0 0 1-2.35 7.55 7.67 7.67 0 0 1-6.22 2.84h-9v14.85zm3.92-18.91H985q5.88 0 5.88-6.17t-5.73-6h-7.84zM1000.61 151.16V116h3.92v30.9h14.6v4.26zM1022.31 151.16l10.83-35.16h4.46l10.4 35.16h-4.26l-2.84-10.24h-11.56l-3 10.24zm8.23-14.5h9l-4.31-15.58zM1046.08 116h4.56l8.28 16.91 8.28-16.91h4.56l-10.88 21v14.16H1057V137zM1076.85 127.59V116h3.87v11.61l-1 15.19h-1.91zm0 23.57v-5h3.87v5z"/>
</svg>