<svg xmlns="http://www.w3.org/2000/svg" version="1.1" width="512"
     height="512" x="0" y="0" viewBox="0 0 56 56" style="enable-background:new 0 0 512 512" xml:space="preserve"
     class="">
    <path d="m35.071 21.735.061.09a28.841 28.841 0 0 0 6.387 6.935 28.83 28.83 0 0 0 6.381-6.927l.066-.1c.062-.093.124-.185.181-.285a21.269 21.269 0 0 0 3.372-11.322c0-5.523-4.477-10-10-10s-10 4.477-10 10a21.233 21.233 0 0 0 3.353 11.293c.075.131.137.223.199.316zM41.448 2a8 8 0 1 1-7.928 8 7.974 7.974 0 0 1 7.928-8zM6 48v-3a1 1 0 0 1 2 0v3h3V19H6v3a1 1 0 0 1-2 0v-3H3a2.994 2.994 0 0 0-3 3v27.026A4.977 4.977 0 0 1 3 48z"
          fill="#000"/>
    <path
            d="M46.852 26.482A4.334 4.334 0 0 1 49 30c0 2.8-3.294 5-7.5 5S34 32.8 34 30a4.361 4.361 0 0 1 2.168-3.53A29.6 29.6 0 0 1 33.513 23H31.5l-2.7 3.6a1 1 0 0 1-1.6 0L24.5 23H13v13.069a6.045 6.045 0 0 1 2.142.674c.392.212.764.458 1.113.736a1 1 0 1 1-1.234 1.573 5.647 5.647 0 0 0-.821-.545 4.1 4.1 0 0 0-.948-.365c-.081-.02-.169-.029-.252-.045V48a2 2 0 0 1-2 2H3a2.993 2.993 0 0 0-3 2.856c-.03.786.265 1.549.817 2.109A3.34 3.34 0 0 0 3.226 56H17v-3a1 1 0 0 1 2 0v3h22.52l3.7-4.625a1.036 1.036 0 0 1 1.562 0L50.48 56H56V41.932a6.083 6.083 0 0 1-2.144-.675 7.566 7.566 0 0 1-1.113-.736 1 1 0 1 1 1.235-1.573c.257.205.531.388.82.545.3.16.618.283.948.365.082.02.17.029.254.045V23h-6.476a30.421 30.421 0 0 1-2.672 3.482zM21 42a7.074 7.074 0 0 1-1.735-.2 6 6 0 0 1-1.407-.541 1 1 0 1 1 .942-1.764c.3.16.617.283.947.365.41.098.831.145 1.253.14a1 1 0 0 1 0 2zm2.058-12.832a1 1 0 0 1-1.11 1.664l-1.7-1.13-1.7 1.13a1 1 0 1 1-1.11-1.664l1-.668-1-.668a1 1 0 0 1 1.11-1.664l1.7 1.13 1.7-1.13a1 1 0 1 1 1.11 1.664l-1 .668zm3.921 9.884c-.283.222-.548.459-.815.7-.3.263-.593.526-.908.773a1 1 0 1 1-1.234-1.573c.282-.222.547-.459.814-.7.3-.263.593-.526.908-.773a1 1 0 1 1 1.235 1.573zM30 36a7.175 7.175 0 0 1 1.734.2 6 6 0 0 1 1.408.541 1 1 0 1 1-.942 1.764 4.1 4.1 0 0 0-.948-.365A5.12 5.12 0 0 0 30 38a1 1 0 0 1 0-2zm6.584 14.186a1 1 0 0 1-1.162 1.628L32.5 49.729l-2.919 2.085a1 1 0 0 1-1.162-1.628l2.36-1.686-2.36-1.686a1 1 0 0 1 1.162-1.628l2.919 2.085 2.919-2.085a1 1 0 0 1 1.162 1.628l-2.36 1.686zm1.89-9.116a1 1 0 0 1-1.212.728 6.011 6.011 0 0 1-1.407-.541 7.433 7.433 0 0 1-1.113-.736 1 1 0 1 1 1.235-1.573c.256.206.53.388.819.545.3.16.618.283.948.365a1 1 0 0 1 .727 1.212zm6.5-2.018c-.283.222-.548.459-.815.7-.3.263-.593.526-.908.773a7.59 7.59 0 0 1-1.115.737 1 1 0 0 1-.94-1.766c.29-.157.564-.339.821-.544.282-.222.547-.459.814-.7.3-.263.593-.526.908-.773a1 1 0 1 1 1.235 1.573zm6.167-2.309a1 1 0 1 1-.942 1.764c-.3-.16-.619-.283-.949-.365A5.128 5.128 0 0 0 48 38a1 1 0 0 1 0-2 7.074 7.074 0 0 1 1.735.2c.49.122.962.304 1.406.543z"
            fill="#000"/>
    <path d="M41.519 31c-.199 0-.393-.059-.558-.169a25.947 25.947 0 0 1-3.4-2.884A2.623 2.623 0 0 0 36 30c0 1.419 2.259 3 5.5 3s5.5-1.581 5.5-3a2.589 2.589 0 0 0-1.545-2.041 25.624 25.624 0 0 1-3.379 2.871 1 1 0 0 1-.557.17z"
          fill="#000"/>
</svg>