<svg xmlns="http://www.w3.org/2000/svg" version="1.1" width="512"
     height="512" x="0" y="0" viewBox="1000 650 3000 3700" style="enable-background:new 0 0 512 512"
     xml:space="preserve" class=""><g><path d="M2449.444 2150.258h197.863c24.805 0 39.371-27.891 25.197-48.248l-243.882-350.271c-.01-.005-.01-.01-.01-.015l-182.176-261.642-928.877-108.155c-15.04-1.769-29.397 2.809-40.634 12.823-11.247 10.011-17.437 23.817-17.437 38.873v396.637c0 3.747 1.907 6.21 3.049 7.342 1.142 1.134 2.886 3.454 7.352 3.018l756.358-3.362h.143c13.409 0 25.339 8.537 29.652 21.24l92.125 270.941a30.704 30.704 0 0 0 29.069 20.82h272.208zM1117.702 1196.957c-3.416-12.257-14.694-20.814-27.419-20.814-15.693 0-28.459 12.769-28.459 28.464v368.533c0 15.722 12.745 28.467 28.467 28.467h72.677c18.707 0 33.872-15.165 33.872-33.872v-87.205zM2318.697 1450.276c-8.065 8.066-9.191 20.752-2.673 30.113l137.907 198.07 130.133-197.728c6.144-9.335 4.882-21.703-3.02-29.605l-.845-.845a149.112 149.112 0 0 1-43.674-105.439v-27.155c0-7.497-6.89-12.87-14.254-11.464-14.495 2.766-29.402 4.328-44.694 4.328h-56.266c-15.292 0-30.199-1.562-44.694-4.328-7.364-1.405-14.254 3.967-14.254 11.464v27.155a149.11 149.11 0 0 1-43.666 105.434zM2734.751 2239.988c0-14.957-12.125-27.082-27.082-27.082h-516.45c-14.957 0-27.082 12.125-27.082 27.082v61.094c0 14.957 12.125 27.082 27.082 27.082h516.45c14.957 0 27.082-12.125 27.082-27.082zM2170.062 4165.529c-78.087 0-141.623 63.531-141.623 141.623 0 10.603 8.626 19.229 19.231 19.229h351.219c10.604 0 19.231-8.626 19.231-19.229 0-78.092-63.536-141.623-141.623-141.623H2187.805zM2317.135 759.831c44.745 62.064 129.131 88.297 204.782 53.966 27.954-12.686 51.218-33.899 69.073-58.87l14.278-19.968c4.776-6.68 3.668-16.173-2.923-21.07-33.974-25.244-75.953-40.269-121.433-40.269h-62.938c-43.741 0-84.307 13.828-117.578 37.322-6.829 4.823-8.051 14.514-3.161 21.295z" fill="#000000" opacity="1" data-original="#000000" class=""></path><path
        d="M2480.913 1247.902c112.871 0 204.372-91.5 204.372-204.372V877.993c0-28.783-6.017-56.169-16.818-81.022-3.551-8.17-14.561-9.546-19.741-2.299-22.807 31.906-51.704 59.64-86.603 77.535-110.205 56.508-236.085 19.774-301.834-71.389 0 0-19.949-26.004-29.034-5.842-10.361 22.996-17.65 54.849-17.65 83.017v165.534c0 112.873 91.501 204.375 204.374 204.375zM2689.323 2930.065l220.864 49.549c65.936 14.792 112.797 73.331 112.797 140.906v154.263c0 61.073 49.509 110.582 110.582 110.582h120.314c61.068 0 110.574-49.506 110.574-110.574v-344.31c0-96.989-54.366-185.793-140.747-229.9l-167.156-85.352-39.227 4.698c-56.857 6.809-109.86 33.461-149.23 75.043 0 0-132.532 139.834-189.555 199.976-11.296 11.914-5.236 31.525 10.784 35.119zM3909.707 1395.011c-12.715 0-23.993 8.558-27.409 20.812l-79.137 283.575v87.205c0 18.707 15.165 33.872 33.872 33.872h72.674c15.723 0 28.469-12.746 28.469-28.469v-368.53c.001-15.696-12.766-28.465-28.469-28.465zM3740.511 1686.912c0-26.053-19.265-48.093-45.084-51.577l-1045.28-141.058-157.663 239.553 229.172 329.142c14.387 20.663 46.161 16.178 54.266-7.66l66.923-196.816c5.455-16.055 22.79-24.839 38.891-19.846l845.355 260.941c4.344 1.328 7.637-.403 9.208-1.563s4.211-3.786 4.211-8.336V1686.912zM2061.262 3082.607v893.726c0 69.89 56.657 126.548 126.547 126.548h84.017c66.687 0 122.168-52.131 126.308-118.683l57.781-890.401c1.379-21.254-18.684-37.128-39.175-31.317-46.578 13.209-95.071 20.127-144.108 20.127z"
        fill="#000000" opacity="1" data-original="#000000" class=""></path><path
        d="m2145.976 2406.86-253.597 568.414c-19.277 43.208-12 93.649 18.705 129.646l57.721 67.669c10.213 11.973 29.808 4.751 29.808-10.986v-79.292c-16.642-1.571-29.533-15.979-28.307-33.305 1.189-16.796 16.72-29.048 33.558-29.048h268.774a468.2 468.2 0 0 0 339.984-146.296l209.972-221.765c32.109-33.909 71.436-59.906 114.623-76.299 18.323-6.956 21.59-31.453 5.944-43.257l-180.34-136.064a27.084 27.084 0 0 0-16.311-5.463h-575.805a27.077 27.077 0 0 0-24.729 16.046zM3133.568 3448.014a172.25 172.25 0 0 1-31.737-2.943c-12.561-2.352-25.544 2.9-32.152 13.838-19.767 32.718-25.734 72.95-14.881 110.61l44.779 155.385c7.435 25.799 25.833 47.896 51.059 57.09 46.87 17.084 95.048-10.252 107.741-54.31l45.58-158.167c10.41-36.126 5.507-74.418-12.393-106.387-5.687-10.157-16.828-16.161-28.445-15.419a144.94 144.94 0 0 1-9.239.303z"
        fill="#000000"/></g></svg>