<svg xmlns="http://www.w3.org/2000/svg" version="1.1" width="512"
     height="512" x="0" y="0" viewBox="0 0 512 512" style="enable-background:new 0 0 512 512" xml:space="preserve"
     class=""><g><path d="M74.481 409.843H14c-2.299 0-4.396-1.313-5.398-3.382s-.736-4.528.687-6.333L128.028 249.53c4.106-5.204 10.322-8.069 17.502-8.069s13.365 2.865 17.47 8.067l9.979 12.651L74.48 409.842zm428.23-9.715L383.941 249.53v-.002c-4.106-5.202-10.321-8.067-17.5-8.067s-13.366 2.865-17.472 8.068l-9.979 12.651 98.499 147.663h60.512a5.999 5.999 0 0 0 4.71-9.715zM323.412 282.077l-27.624 34.799a12.004 12.004 0 0 1-9.357 4.539h-.041a12.002 12.002 0 0 1-9.348-4.475l-20.767-25.797-20.766 25.797a12 12 0 0 1-9.341 4.476h-.007a11.996 11.996 0 0 1-9.339-4.465l-28.208-34.961L72.693 455.771a5.998 5.998 0 0 0 4.991 9.329h356.598a6 6 0 0 0 4.991-9.329L323.411 282.077zm-76.484-17.596a11.999 11.999 0 0 1 18.696-.001l20.701 25.716 23.096-29.095-37.625-56.404a19.227 19.227 0 0 0-3.812-4.232v-45.891h30.106v13.649a6 6 0 0 0 6 6h85.661a6.001 6.001 0 0 0 4.858-9.523l-26.135-36.038 26.135-36.039a6 6 0 0 0-4.858-9.523h-60.505V69.48a6 6 0 0 0-6-6h-55.263v-4.581c0-6.627-5.373-12-12-12s-12 5.373-12 12v141.583a19.553 19.553 0 0 0-3.804 4.202l-37.608 56.38 23.579 29.224 20.776-25.81z" fill="#000"/></g></svg>