<svg xmlns="http://www.w3.org/2000/svg" version="1.1" width="512"
     height="512" x="0" y="0" viewBox="0 0 512.007 512.007" style="enable-background:new 0 0 512 512"
     xml:space="preserve" class=""><g><path d="M279.635 348.081c-10.275 0-20.332-.954-30.093-2.765l-21.344 150.098 92.037.013-18.367-148.853a165.278 165.278 0 0 1-22.233 1.507zM331.255 339.776l19.207 155.655 33.206.004 27.557-193.792a127.486 127.486 0 0 0-14.009-3c-18.242 18.541-40.779 32.795-65.961 41.133zM439.859 313.373l-25.89 182.066 76.663.01c8.059.16 15.161-6.942 15.002-15v-55.268c0-47.974-26.562-89.87-65.775-111.808zM53.635 425.182v55.21c0 8.283 6.715 14.999 14.998 15l68.982.009-25.279-177.765c-35.299 22.843-58.701 62.516-58.701 107.546zM140.684 303.905l27.232 191.501 29.98.004 22.519-158.36c-22.122-8.558-41.975-21.752-58.363-38.407a127.408 127.408 0 0 0-21.368 5.262z" fill="#000000" /><path
        d="M279.603 220.441c-40.303-.003-82.852-3.152-132.384-9.844 32.642 142.448 232.242 142.351 264.831.002-49.523 6.694-92.073 9.843-132.375 9.843h-.072zM279.605 103.45c39.57.003 81.323 3.044 129.746 9.498-39.449-128.563-220.03-128.484-259.431-.003 48.399-6.455 90.119-9.495 129.625-9.495zM20.14 242.099l78.119-44.64 14.88 26.04-78.12 44.64zM141.05 272.46l-13.02-22.8-78.154 44.629 14.414 25.242c20.212-22.422 46.741-39.05 76.76-47.071zM81.773 168.656c-7.53-13.187-24.385-17.79-37.575-10.259L13.879 175.71C.69 183.242-3.911 200.099 3.62 213.286l1.627 2.849 78.153-44.63z"
        fill="#000000"/><path
        d="M502.998 130.144c-7.596-3.314-16.435.163-19.744 7.756-4.561 10.463-13.162 12.708-33.166 15.668-5.668.839-11.745 1.742-17.881 3.194 19.53-23.47 48.538-43.05 38.773-83.137-2.112-8.012-10.317-12.791-18.328-10.68-8.011 2.112-12.792 10.318-10.68 18.328 6.156 17.706-13.397 34.703-28.305 51.078.562 3.827.948 7.71 1.188 11.633-51.16-7.163-94.499-10.532-135.254-10.535h-.058c-40.694 0-83.999 3.369-135.144 10.534a139.083 139.083 0 0 0-.266 8.423v27.477c51.238 7.178 94.637 10.554 135.47 10.557h.072c40.832 0 84.23-3.375 135.458-10.556 0 0-.613 16.59-1.774 23.762a15.036 15.036 0 0 0 4.161-4.476c7.252-11.006 18.806-13.241 36.957-15.927 19.876-2.94 44.613-6.601 56.275-33.357 3.312-7.592-.16-16.432-7.754-19.742z"
        fill="#000000"/></g></svg>