<?xml version="1.0" encoding="iso-8859-1"?>
<!-- Generator: Adobe Illustrator 19.0.0, SVG Export Plug-In . SVG Version: 6.00 Build 0)  -->
<svg version="1.1" id="Capa_1" xmlns="http://www.w3.org/2000/svg" x="0px" y="0px"
	 viewBox="0 0 512 512" style="enable-background:new 0 0 512 512;" xml:space="preserve">
<g>
	<g>
		<path d="M393.6,358.4c-2.133-2.133-2.133-2.133-4.267-4.267l-6.4-2.133c-2.133,0-6.4,0-6.4,0c-2.133,0-4.267,0-8.533,0
			c-6.4-2.133-10.667-4.267-14.933-8.533c-2.133-2.133-6.4-4.267-8.533-2.133c-4.267,0-6.4,2.133-8.533,6.4
			c-2.133,2.133-4.267,4.267-6.4,6.4l-21.333,21.333c-6.4,6.4-14.933,8.533-23.467,8.533h-64c-8.533,0-17.067-4.267-23.467-8.533
			L176,354.133c-2.133-2.133-4.267-4.267-4.267-6.4c0-4.267-2.133-4.267-4.267-6.4c-2.133,0-6.4,0-8.533,2.133
			c-4.267,2.133-8.533,6.4-12.8,6.4s-8.533,2.133-12.8,0c-4.267,0-8.533,2.133-10.667,6.4c-6.4,10.667-14.933,17.067-27.733,17.067
			c-2.133,0-4.267,0-6.4,0L156.8,512h202.667L419.2,373.333C408.533,373.333,400,366.933,393.6,358.4z"/>
	</g>
</g>
	<g>
	<g>
		<path d="M62.933,366.933l-17.067,8.533c-14.933,6.4-25.6,21.333-27.733,36.267L1.067,497.067c0,2.133,0,6.4,2.133,8.533
			c0,4.267,2.133,6.4,6.4,6.4h123.733L62.933,366.933z"/>
	</g>
</g>
	<g>
	<g>
		<path d="M493.867,413.867C489.6,396.8,481.067,384,466.133,377.6l-19.2-10.667H444.8L380.8,512h119.467
			c2.133,0,6.4-2.133,8.533-4.267c2.133-2.133,2.133-6.4,2.133-8.533L493.867,413.867z"/>
	</g>
</g>
	<g>
	<g>
		<g>
			<path d="M148.267,142.933c2.133-4.267,0-10.667-6.4-14.933c-4.267-2.133-10.667,0-12.8,4.267c-8.533,17.067-46.933,106.667,0,192
				c0,4.267,4.267,6.4,8.533,6.4c2.133,0,4.267,0,6.4-2.133c4.267-4.267,6.4-10.667,4.267-14.933
				C116.267,256,129.067,185.6,148.267,142.933z"/>
			<path d="M148.267,64c-19.2,0-38.4,10.667-51.2,27.733c-21.333,27.733-51.2,96-12.8,251.733c2.133,4.267,6.4,8.533,10.667,8.533
				h2.133c6.4-2.133,10.667-6.4,8.533-12.8c-38.4-153.6-6.4-215.467,8.533-234.667c8.533-12.8,21.333-19.2,34.133-19.2
				c6.4,0,10.667-4.267,10.667-10.667C158.933,68.267,154.667,64,148.267,64z"/>
			<path d="M385.067,132.267c-4.267-4.267-8.533-6.4-14.933-4.267c-4.267,4.267-6.4,8.533-4.267,14.933
				c19.2,40.533,32,110.933,0,170.667c-2.133,6.4,0,12.8,4.267,14.933c0,2.133,2.133,2.133,4.267,2.133
				c4.267,0,8.533-2.133,10.667-6.4C429.867,236.8,393.6,149.333,385.067,132.267z"/>
			<path d="M414.933,91.733c-12.8-17.067-32-27.733-51.2-27.733c-4.267,0-10.667,4.267-10.667,10.667
				c0,6.4,4.267,10.667,10.667,10.667c12.8,0,23.467,6.4,34.133,19.2C412.8,123.733,444.8,185.6,406.4,339.2
				c0,6.4,2.133,10.667,8.533,12.8h2.133c6.4,0,10.667-4.267,10.667-8.533C466.133,187.733,436.267,119.467,414.933,91.733z"/>
		</g>
	</g>
</g>
	<g>
	<g>
		<path d="M365.867,200.533c8.533-19.2,17.067-44.8,17.067-72.533c0-70.4-57.6-128-128-128s-128,57.6-128,128
			c0,29.867,10.667,59.733,29.867,83.2c-12.8,23.467-19.2,42.667-19.2,55.467c0,25.6,29.867,42.667,53.333,49.067v-49.067
			c0-4.267,2.133-8.533,6.4-8.533l21.333-10.667c4.267-2.133,10.667,0,14.933,4.267c2.133,4.267,0,10.667-4.267,14.933l-17.067,6.4
			V352c0,2.133,0,2.133,0,4.267l4.267,4.267c2.133,2.133,4.267,2.133,8.533,2.133h64c2.133,0,6.4-2.133,8.533-2.133l4.267-4.267
			c0-2.133,0-2.133,0-4.267v-78.933l-14.933-8.533c-4.267-2.133-6.4-8.533-4.267-14.933c2.133-4.267,8.533-6.4,14.933-4.267
			L318.933,256c4.267,2.133,6.4,6.4,6.4,8.533v51.2c23.467-4.267,64-23.467,64-51.2
			C389.333,247.467,376.533,221.867,365.867,200.533z M297.6,234.667c-32,0-42.667-21.333-42.667-32c0,10.667-10.667,32-42.667,32
			c-36.267,0-64-32-64-74.667c0-4.267,2.133-8.533,6.4-10.667c4.267,0,8.533,0,12.8,2.133c14.933,14.933,64,34.133,81.067,40.533
			c4.267,2.133,6.4,6.4,6.4,10.667c0-4.267,2.133-8.533,6.4-10.667c17.067-6.4,66.133-25.6,81.067-40.533
			c4.267-2.133,8.533-2.133,12.8-2.133c4.267,2.133,6.4,6.4,6.4,10.667C361.6,202.667,333.867,234.667,297.6,234.667z"/>
	</g>
</g>
	<g>
</g>
	<g>
</g>
	<g>
</g>
	<g>
</g>
	<g>
</g>
	<g>
</g>
	<g>
</g>
	<g>
</g>
	<g>
</g>
	<g>
</g>
	<g>
</g>
	<g>
</g>
	<g>
</g>
	<g>
</g>
	<g>
</g>
</svg>
