<svg xmlns="http://www.w3.org/2000/svg" version="1.1" width="512"
     height="512" x="0" y="0" viewBox="0 0 512 512" style="enable-background:new 0 0 512 512" xml:space="preserve"
     class=""><g><path d="M495.21 176.264c-8.84-15.913-28.907-21.647-44.82-12.806l-52.295 29.053-34.471-52.72c-1.02.036-2.038.078-3.066.078-34.721 0-64.625-20.952-77.779-50.868l-108.634-.007a32.962 32.962 0 0 0-28.872 17.06l-41.75 75.81c-8.781 15.946-2.974 35.991 12.971 44.772a32.81 32.81 0 0 0 15.871 4.095c11.625 0 22.897-6.163 28.901-17.066l32.355-58.75h62.25l-95.042 165.903H45.597c-18.203 0-32.961 14.757-32.961 32.961 0 18.203 14.757 32.961 32.961 32.961h134.041a32.958 32.958 0 0 0 28.377-16.193l23.677-40.068 59.776 47.097-35.839 89.161c-6.789 16.89 1.399 36.086 18.289 42.875a32.87 32.87 0 0 0 12.283 2.387c13.061 0 25.424-7.815 30.593-20.677l45.046-112.067c5.458-13.577 1.311-29.127-10.183-38.183l-66.279-52.22 45.825-78.186 28.501 43.59c6.294 9.624 16.819 14.927 27.612 14.927a32.844 32.844 0 0 0 15.983-4.152l79.106-43.948c15.912-8.839 21.646-28.906 12.805-44.819z" fill="#000000"/><circle
        cx="360.557" cy="54.935" r="54.935" fill="#000000"/></g></svg>