<svg xmlns="http://www.w3.org/2000/svg" version="1.1" width="512"
     height="512" x="0" y="0" viewBox="0 0 64 64" style="enable-background:new 0 0 512 512" xml:space="preserve"
     class=""><g><path d="M45.953 21.142a8.551 8.551 0 0 1-1.34 5.04l-1.69 2.64.96.99a3.767 3.767 0 0 0 4.66.59l12.25-7.51a3.757 3.757 0 1 0-3.92-6.41l-9.69 5.93z" fill="#000000" /><path
        d="m19.443 26.1 7.07-4.04 2.78.14-5.89 9.22a6.456 6.456 0 0 0-.746 5.421 6.833 6.833 0 0 0 3.726 4.139l8.49 3.13-5.22 8.55a4.313 4.313 0 1 0 7.36 4.5l7.96-13.03a4.318 4.318 0 0 0-2.19-6.3l-6.48-2.38 6.63-10.35a6.547 6.547 0 0 0-2.07-9.06c-2.62-1.8-13.06-1.61-15.06-1.55a3.8 3.8 0 0 0-2.07.49l-8.02 4.6a3.756 3.756 0 1 0 3.73 6.52z"
        fill="#000000"/><path
        d="M25.693 42.862a8.876 8.876 0 0 1-4.23-3.78l-1.22 5.86-7.25 11.44a4.313 4.313 0 0 0 7.29 4.61l7.66-12.09a4.311 4.311 0 0 0 .58-1.43l.69-3.32zM43.623 14.752a6.875 6.875 0 1 0-6.88-6.87 6.884 6.884 0 0 0 6.88 6.87zM10.806 39.736h5.6a1 1 0 0 0 0-2h-5.6a1 1 0 1 0 0 2zM5.808 45.736h7.2a1 1 0 0 0 0-2h-7.2a1 1 0 0 0 0 2zM2.408 51.736h7.2a1 1 0 0 0 0-2h-7.2a1 1 0 0 0 0 2z"
        fill="#000000"/></g></svg>