<svg xmlns="http://www.w3.org/2000/svg" version="1.1" width="512"
     height="512" x="0" y="0" viewBox="0 0 1707 1707" style="enable-background:new 0 0 512 512" xml:space="preserve"
     fill-rule="evenodd" class=""><g><path d="M1148 1518c-37 0-73-19-95-52-28-40-13-139 9-255 2-17 6-32 8-45l2-15c3-8 5-19 3-21 0-2-7-7-11-13l-7-7-38-38c-15-15-32-30-52-54l-85 90c-67 71-76 80-129 77h-71c-116 3-223 3-262-17-43-23-64-70-51-118 11-43 49-88 129-90h188l344-309c-39 3-71 11-112 56l-6 9c-39 40-84 94-138 90-36-2-66-24-83-58-15-37-11-75 13-105 21-26 64-65 100-99 28-26 54-49 63-60 57-69 92-66 184-62 30 2 66 4 114 2 73 0 105 32 133 60 8 9 15 15 23 24l105 90c15-11 33-30 50-52 38-45 83-101 154-86 32 7 58 31 71 61 11 30 6 62-13 90-36 51-81 94-127 137-17 17-34 32-51 49-34 35-66 50-99 50-49-3-85-43-120-78-10-13-23-25-34-34l-114 118 95 94c17 18 30 28 38 39 45 43 52 51 41 101l-2 13c-2 15-9 40-13 73-30 175-49 270-67 296-19 30-51 49-87 49z" fill="#000000" /><path
        d="M695 877H97c-13 0-24-11-24-24s11-24 24-24h598c13 0 24 11 24 24s-11 24-24 24zM622 705H24c-13 0-24-11-24-24 0-12 11-23 24-23h598c13 0 24 11 24 23 0 13-11 24-24 24zM806 501H208c-13 0-24-10-24-23s11-24 24-24h598c13 0 24 11 24 24s-11 23-24 23zM912 1398H313c-13 0-23-11-23-24s10-23 23-23h599c12 0 23 10 23 23s-11 24-23 24zM1411 503c-79 0-133-58-148-124-17-73 15-161 120-187 41-8 82-2 116 22 37 23 62 62 69 101 17 92-49 167-118 182-15 4-28 6-39 6z"
        fill="#000000"/></g></svg>