<?xml version="1.0" encoding="utf-8"?>
<!-- Generator: Adobe Illustrator 16.0.0, SVG Export Plug-In . SVG Version: 6.00 Build 0)  -->
<!DOCTYPE svg PUBLIC "-//W3C//DTD SVG 1.1//EN" "http://www.w3.org/Graphics/SVG/1.1/DTD/svg11.dtd">
<svg version="1.1" id="Capa_1" xmlns="http://www.w3.org/2000/svg" x="0px" y="0px"
	 width="612px" height="661.467px" viewBox="0 68.606 612 661.467" enable-background="new 0 68.606 612 661.467"
	 xml:space="preserve">
<g id="XMLID_796_">
	<path id="XMLID_802_" stroke="#FFFFFF" stroke-width="8" stroke-miterlimit="10" d="M306,93.34
		c-157.996,0-286.076,114.167-286.076,255v178.5v1.133h0.031c0.643,23.051,20.725,47.535,45.202,54.807l97.806,29.061v51
		c0,23.375,21.456,42.5,47.679,42.5h190.717c26.224,0,47.68-19.125,47.68-42.5v-51l97.805-29.061
		c24.478-7.271,44.561-31.758,45.203-54.807h0.03v-1.133v-178.5C592.076,207.507,463.996,93.34,306,93.34z M410.895,365.34
		c47.399,0,85.823,34.248,85.823,76.502c0,42.252-38.424,76.498-85.823,76.498c-47.398,0-85.823-34.246-85.823-76.498
		C325.071,399.588,363.493,365.34,410.895,365.34z M201.105,365.34c47.401,0,85.823,34.248,85.823,76.502
		c0,42.252-38.422,76.498-85.823,76.498c-47.401,0-85.823-34.246-85.823-76.498C115.283,399.588,153.704,365.34,201.105,365.34z
		 M344.144,569.34c0,18.777-17.077,34-38.144,34c-21.067,0-38.144-15.223-38.144-34c0-18.779,19.977-46.84,38.144-46.84
		S344.144,550.561,344.144,569.34z"/>
</g>
</svg>
