<?xml version="1.0" encoding="UTF-8" standalone="no"?>
<!DOCTYPE svg PUBLIC "-//W3C//DTD SVG 1.1//EN" "http://www.w3.org/Graphics/SVG/1.1/DTD/svg11.dtd">
<svg width="100%" height="100%" viewBox="0 0 500 500" version="1.1" xmlns="http://www.w3.org/2000/svg"
     xml:space="preserve" style="fill-rule:evenodd;clip-rule:evenodd;stroke-linejoin:round;stroke-miterlimit:2;">
    <g>
        <path d="M191.304,95.45l-14.629,-45.024c23.681,-7.694 48.425,-11.613 73.325,-11.613c24.9,-0 49.644,3.919 73.325,11.613l-14.629,45.024c-18.484,-6.001 -38.211,-9.245 -58.696,-9.245c-20.485,-0 -40.212,3.244 -58.696,9.245Z"/>
        <path d="M70.897,114.159c2.016,-2.094 4.069,-4.149 6.158,-6.166c25.794,-24.897 57.031,-43.755 91.467,-54.944l14.629,45.024c-38.505,12.502 -71.615,36.973 -94.941,69.023l-38.331,-27.848c6.448,-8.875 13.475,-17.253 21.018,-25.089Z"/>
        <path d="M47.392,285.155l-47.392,-0c-0,-50.11 15.864,-98.933 45.317,-139.473l38.331,27.849c-22.804,31.332 -36.256,69.907 -36.256,111.624Z"/>
        <path d="M500,285.155l-47.392,-0c-0,-41.717 -13.452,-80.292 -36.256,-111.624l38.331,-27.849c29.453,40.54 45.317,89.363 45.317,139.473Z"/>
        <path d="M422.961,108.008c2.078,2.007 4.12,4.052 6.126,6.134c7.549,7.841 14.581,16.225 21.034,25.106l-38.331,27.848c-23.326,-32.05 -56.436,-56.521 -94.941,-69.023l14.629,-45.024c34.443,11.191 65.686,30.055 91.483,54.959Z"/>
    </g>
    <path d="M71.382,227.118c-0,0 119.13,12.409 166.874,27.921c13.129,4.266 20.324,18.389 16.059,31.518c-4.266,13.129 -18.389,20.324 -31.518,16.058c-47.743,-15.512 -151.415,-75.497 -151.415,-75.497Z"/>
    <path d="M227.172,459.288c3.166,-0 4.559,-1.393 4.559,-4.558l-0,-15.322c-0,-3.166 -1.393,-4.558 -4.559,-4.558l-12.156,-0l0,-62.173c0,-3.165 -1.392,-4.558 -4.558,-4.558l-36.721,0c-3.165,0 -4.558,1.393 -4.558,4.558l-0,15.322c-0,3.166 1.393,4.558 4.558,4.558l11.65,0l-0,42.293l-14.182,-0c-3.166,-0 -4.559,1.392 -4.559,4.558l0,15.322c0,3.165 1.393,4.558 4.559,4.558l55.967,-0Z" style="fill-rule:nonzero;"/>
    <path d="M321.38,435.356l0,-43.178c0,-15.449 -7.471,-25.958 -38.62,-25.958c-31.149,-0 -38.747,10.509 -38.747,25.958l0,43.178c0,15.448 7.598,25.831 38.747,25.831c31.149,0 38.62,-10.383 38.62,-25.831Zm-48.75,-4.558l0,-34.062c0,-3.292 1.52,-5.825 10.13,-5.825c8.737,0 10.13,2.533 10.13,5.825l-0,34.062c-0,3.419 -1.393,5.951 -10.13,5.951c-8.61,-0 -10.13,-2.532 -10.13,-5.951Z" style="fill-rule:nonzero;"/>
</svg>
