<?xml version="1.0" encoding="utf-8"?>
<!-- Generator: Adobe Illustrator 16.0.0, SVG Export Plug-In . SVG Version: 6.00 Build 0)  -->
<!DOCTYPE svg PUBLIC "-//W3C//DTD SVG 1.1//EN" "http://www.w3.org/Graphics/SVG/1.1/DTD/svg11.dtd">
<svg xmlns:inkpad="http://taptrix.com/inkpad/svg_extensions" version="1.1" id="Layer_1"
	 xmlns="http://www.w3.org/2000/svg" x="0px" y="0px" width="130.235px" height="150px"
	 viewBox="29.928 0 130.235 150" enable-background="new 29.928 0 130.235 150" xml:space="preserve">
<g id="Layer" inkpad:layerName="Layer 2">
	<path stroke="#FFFFFF" stroke-width="2.5" stroke-linecap="round" stroke-linejoin="round" d="M85.894,59.113L64.133,13.285
		l-4.93-0.023c0,0-1.826-8.062-13.18-8.034s-12.351,7.805-12.351,7.805l-3.744,0.003l5.731,25.938l11.571,8.353l9.143,25.098
		l-5.845,14.811l16.469,50.896l7.901,8.383h42.608l6.66-8.271l16.192-50.619l-5.039-16.367l7.125-23.284l12.168-8.015l5.552-26.839
		l-5.126-0.022c0,0-0.319-8.534-12.312-8.431c-11.994,0.104-11.834,7.674-11.834,7.674l-5.227-0.07l-19.126,46.893L85.894,59.113z"
	/>
</g>
</svg>
