<svg xmlns="http://www.w3.org/2000/svg" version="1.1" width="512"
     height="512" x="0" y="0" viewBox="0 0 43.349 43.349" style="enable-background:new 0 0 512 512" xml:space="preserve"
     fill-rule="evenodd" class=""><g transform="matrix(1,0,0,1,0,0)"><path fill-rule="nonzero" d="M22.628 23.287a.685.685 0 0 0-1.358-.188 7.221 7.221 0 0 1-.381 1.502c-.148.39-.323.728-.511.937a.686.686 0 1 0 1.02.918c.307-.34.568-.831.773-1.372.217-.573.376-1.219.457-1.797zM30.998 23.003a.685.685 0 0 0-1.363.13c.005.05.013.175.022.303.06.88.133 1.95 1.282 3.055a.685.685 0 0 0 .95-.988c-.766-.737-.82-1.517-.863-2.158a11.222 11.222 0 0 0-.028-.342z" fill="#000000" opacity="1" data-original="#000000" class=""></path><path
        d="M24.88 17.33v-2.005l-4.16-1.944v3.949l3.055 1.764V25.106l-6.34-5.173c0-19.737 17.503-19.737 17.503 0L28.6 25.106v-6.012l3.055-1.764v-3.949l-4.161 1.944v2.005zM31.05 25.659c0 1.71-2.17 3.098-4.848 3.098-2.677 0-4.847-1.387-4.846-3.098H20.24c-4.865 0-8.845 3.98-8.845 8.845v8.845h4.143l1.148-3.428 1.142 3.428h16.716l1.148-3.428 1.142 3.428h4.143v-8.845c0-4.865-3.98-8.845-8.845-8.845zm7.864 4.096h-6.04v-3.623s3.78.394 6.04 3.622zm-25.454 0h6.04v-3.623s-3.682.302-6.04 3.622z"
        fill="#000000" opacity="1" data-original="#000000" class=""></path><path
        d="M24.504 2.484v2.09a5.88 5.88 0 0 1 3.365 0v-2.09c0-.925-.756-1.682-1.681-1.683h-.001c-.926 0-1.683.757-1.683 1.683z"
        fill="#000000" opacity="1" data-original="#000000" class=""></path><path
        d="M26.188.801c3.71-.111 8.552 6.413 12.059.794-7.564.689-6.991-3.215-12.06-.794zM13.98 22.459l-3.099 3.098 2.91 2.91c1.242-.845 2.529-1.698 3.79-2.397zM4.012 17.641l4.86 4.86 2.051-2.051-4.86-4.86a2.24 2.24 0 0 1-.65 1.4c-.391.391-.89.608-1.401.651zM11.323 20.85 9.27 22.9l-1.254 1.255a1.23 1.23 0 0 0 0 1.733 1.23 1.23 0 0 0 1.734 0l.73-.73 3.099-3.099.73-.73c.477-.477.477-1.257 0-1.734s-1.256-.477-1.733 0zM2.796 14.374a1.45 1.45 0 1 0 2.051 2.051 1.45 1.45 0 0 0-2.05-2.051z"
        fill="#000000"/></g></svg>